<svg id="Capa_2" data-name="Capa 2" xmlns="http://www.w3.org/2000/svg" viewBox="0 0 369.81 420.01" style=""><defs><style>.cls-1{fill:none;stroke:#000;stroke-linecap:round;stroke-linejoin:round;stroke-width:4px;}</style></defs><path class="cls-1 GEBHUGsY_0" d="M452.22,360.72c-2.63-3.63-7.64-19.73-10.53-23.73-17-2.63-34.87-4.91-52.54-8.36-9.66-1.88-19-5.51-28.35-8.77-13.74-4.79-25.64-3.74-37.44,6.33-20.44,17.42-41.51,34.11-66.09,45.83-6.51,3.11-11.26,9.73-17.18,14.25-8.44,6.47-17.07,12.71-25.9,18.64-9.83,6.61-11.53,16-10.6,26.8.28,3.27,3.17,7.59-2.31,9.73-4.89,1.9-8.58-.23-12.17-3.23l-.06,0a11.19,11.19,0,0,1-3.47-12.45c2.06-5.6,3.9-10.73,7-14.89,12-15.92,24.76-31.28,37.95-46.23a84.06,84.06,0,0,1,27.32-20.52c10.32-4.85,18.28-12.45,24.57-22.41a382.94,382.94,0,0,1,27.46-38.08c13.24-16.15,31.64-25.38,51-31.41,25.73-8,49.78-19.76,74.35-30.37,3.29-1.42,6-4.22,8.95-6.38" transform="translate(-182.91 -29.54)"></path><path class="cls-1 GEBHUGsY_1" d="M466.84,31.54c-1.16,6.19-2.31,12.39-3.57,19.09,1.13,1.39,2.25,3,3.59,4.38,5.11,5.35,4.23,8.63,1.2,15.64A60.42,60.42,0,0,1,464.73,77c-5.44,9.25-4,19.22-2.86,29.91,1.76,16.15,3.64,32.12.71,48.7-1.67,9.41,2.23,20,4.36,29.84,2.83,13.05,6.58,25.9,9.52,38.93,1.18,5.26,1.26,10.77,1.84,16.14-20.2,6.74-36.26,5.3-46-14" transform="translate(-182.91 -29.54)"></path><path class="cls-1 GEBHUGsY_2" d="M417.45,300.47c7.56,6.6,13,8.54,24.08,7.56a9,9,0,0,1,7.1,2.57l4.48,4.48a10.65,10.65,0,0,1,2.9,9.61c-1.31,6.51-2,10.11-3.61,17.91.4,0-.53,6.51-.13,6.49,0,10.52-.19,21.06,0,31.58.39,18.09.88,36.19,1.72,54.27.15,3.24.6,6.93,5.49,8.24,10.52,2.84,21,5.48,31.58,3.89a5.12,5.12,0,0,0,2.5-9,44.85,44.85,0,0,0-19.47-8.76l-9.11-.51c1.18-10.35,4-53.52,5.26-63.45" transform="translate(-182.91 -29.54)"></path><path class="cls-1 GEBHUGsY_3" d="M528.37,292.37c3.51-1.08,7.39-1.53,10.47-3.35,14-8.25,14.6-18.62,7.15-33-6.85-13.2-20.21-16.31-33.81-17.9-1.07-.13-2.16,0-3.24,0-12.28-.52-14.3-.61-17.31,6.83a8.39,8.39,0,0,1-7.91,5.26c-4.59-.09-9.13-.18-13.63.16-11,.81-15.65,5.85-15.29,16.92a158.05,158.05,0,0,0,2.5,22.65,7.09,7.09,0,0,0,.22.91A9.48,9.48,0,0,0,469,297c7.37-1.88,11.65-5.8,15.57-14a5.63,5.63,0,0,1,7.66-2.53l18.43,9.48a26.67,26.67,0,0,0,16,2.8,14,14,0,0,0,1.76-.35" transform="translate(-182.91 -29.54)"></path><path class="cls-1 GEBHUGsY_4" d="M334.06,266.45c1.77,16,8.51,29.37,21,39.71,8.21,6.77,16.86,9.52,27.6,5.83,9.43-3.25,19.38-5,29.08-7.5a67.34,67.34,0,0,0,6.48-2.4" transform="translate(-182.91 -29.54)"></path><path class="cls-1 GEBHUGsY_5" d="M444.17,61.51c6.09,19.71.4,39.42,0,59.13-.39,20.25-1,40.51-.68,60.75.21,12.44,2.54,30,3.45,42.45" transform="translate(-182.91 -29.54)"></path><path class="cls-1 GEBHUGsY_6" d="M481.82,291.56c-.41,5.67-.33,11.43-1.32,17-1.79,10.05-5.07,19.9-6.16,30-1.41,13.14-3.52,13.5-4.06,26.74" transform="translate(-182.91 -29.54)"></path><path class="cls-1 GEBHUGsY_7" d="M469.64,371.33" transform="translate(-182.91 -29.54)"></path><path class="cls-1 GEBHUGsY_8" d="M453.08,31.54l4.05,21.87" transform="translate(-182.91 -29.54)"></path><path class="cls-1 GEBHUGsY_9" d="M441.74,35.59l8.91,21.06" transform="translate(-182.91 -29.54)"></path><path class="cls-1 GEBHUGsY_10" d="M428.79,45.31c3,3,6,5.88,8.88,8.93,2.1,2.2,4,4.59,5.66,6.52l19.46-9" transform="translate(-182.91 -29.54)"></path><path class="cls-1 GEBHUGsY_11" d="M239.33,358c3.4,6.13,5.27,13.36,12.14,17" transform="translate(-182.91 -29.54)"></path><path class="cls-1 GEBHUGsY_12" d="M479.8,302.09l-27.53,9.72" transform="translate(-182.91 -29.54)"></path><path class="cls-1 GEBHUGsY_13" d="M288.33,31.97L291.24,27.05L297.17,24.55"></path><path class="cls-1 GEBHUGsY_14" d="M295.38,210.95L296.88,220.58"></path><path class="cls-1 GEBHUGsY_15" d="M467.1,427.64h48.23a3.05,3.05,0,0,0,3-3h0a2.29,2.29,0,0,0-1.75-2.29c-31.8-8.21-43.62-35.74-44.56-70.87" transform="translate(-182.91 -29.54)"></path><path class="cls-1 GEBHUGsY_16" d="M520.65,294.13c-4.42,15.55-2.1,32.68,4.55,50.83a1.53,1.53,0,0,0,2.87,0c6.83-19.48,8.34-36.91.66-50.81" transform="translate(-182.91 -29.54)"></path><style data-made-with="vivus-instant">.GEBHUGsY_0{stroke-dasharray:697 699;stroke-dashoffset:698;animation:GEBHUGsY_draw_0 5200ms linear 0ms infinite,GEBHUGsY_fade 5200ms linear 0ms infinite;}.GEBHUGsY_1{stroke-dasharray:270 272;stroke-dashoffset:271;animation:GEBHUGsY_draw_1 5200ms linear 0ms infinite,GEBHUGsY_fade 5200ms linear 0ms infinite;}.GEBHUGsY_2{stroke-dasharray:311 313;stroke-dashoffset:312;animation:GEBHUGsY_draw_2 5200ms linear 0ms infinite,GEBHUGsY_fade 5200ms linear 0ms infinite;}.GEBHUGsY_3{stroke-dasharray:272 274;stroke-dashoffset:273;animation:GEBHUGsY_draw_3 5200ms linear 0ms infinite,GEBHUGsY_fade 5200ms linear 0ms infinite;}.GEBHUGsY_4{stroke-dasharray:113 115;stroke-dashoffset:114;animation:GEBHUGsY_draw_4 5200ms linear 0ms infinite,GEBHUGsY_fade 5200ms linear 0ms infinite;}.GEBHUGsY_5{stroke-dasharray:163 165;stroke-dashoffset:164;animation:GEBHUGsY_draw_5 5200ms linear 0ms infinite,GEBHUGsY_fade 5200ms linear 0ms infinite;}.GEBHUGsY_6{stroke-dasharray:75 77;stroke-dashoffset:76;animation:GEBHUGsY_draw_6 5200ms linear 0ms infinite,GEBHUGsY_fade 5200ms linear 0ms infinite;}.GEBHUGsY_7{stroke-dasharray:0 2;stroke-dashoffset:1;animation:GEBHUGsY_draw_7 5200ms linear 0ms infinite,GEBHUGsY_fade 5200ms linear 0ms infinite;}.GEBHUGsY_8{stroke-dasharray:23 25;stroke-dashoffset:24;animation:GEBHUGsY_draw_8 5200ms linear 0ms infinite,GEBHUGsY_fade 5200ms linear 0ms infinite;}.GEBHUGsY_9{stroke-dasharray:23 25;stroke-dashoffset:24;animation:GEBHUGsY_draw_9 5200ms linear 0ms infinite,GEBHUGsY_fade 5200ms linear 0ms infinite;}.GEBHUGsY_10{stroke-dasharray:43 45;stroke-dashoffset:44;animation:GEBHUGsY_draw_10 5200ms linear 0ms infinite,GEBHUGsY_fade 5200ms linear 0ms infinite;}.GEBHUGsY_11{stroke-dasharray:22 24;stroke-dashoffset:23;animation:GEBHUGsY_draw_11 5200ms linear 0ms infinite,GEBHUGsY_fade 5200ms linear 0ms infinite;}.GEBHUGsY_12{stroke-dasharray:30 32;stroke-dashoffset:31;animation:GEBHUGsY_draw_12 5200ms linear 0ms infinite,GEBHUGsY_fade 5200ms linear 0ms infinite;}.GEBHUGsY_13{stroke-dasharray:13 15;stroke-dashoffset:14;animation:GEBHUGsY_draw_13 5200ms linear 0ms infinite,GEBHUGsY_fade 5200ms linear 0ms infinite;}.GEBHUGsY_14{stroke-dasharray:10 12;stroke-dashoffset:11;animation:GEBHUGsY_draw_14 5200ms linear 0ms infinite,GEBHUGsY_fade 5200ms linear 0ms infinite;}.GEBHUGsY_15{stroke-dasharray:147 149;stroke-dashoffset:148;animation:GEBHUGsY_draw_15 5200ms linear 0ms infinite,GEBHUGsY_fade 5200ms linear 0ms infinite;}.GEBHUGsY_16{stroke-dasharray:108 110;stroke-dashoffset:109;animation:GEBHUGsY_draw_16 5200ms linear 0ms infinite,GEBHUGsY_fade 5200ms linear 0ms infinite;}@keyframes GEBHUGsY_draw{100%{stroke-dashoffset:0;}}@keyframes GEBHUGsY_fade{0%{stroke-opacity:1;}92.3076923076923%{stroke-opacity:1;}100%{stroke-opacity:0;}}@keyframes GEBHUGsY_draw_0{15.384615384615385%{stroke-dashoffset: 698}73.07692307692307%{ stroke-dashoffset: 0;}100%{ stroke-dashoffset: 0;}}@keyframes GEBHUGsY_draw_1{15.384615384615385%{stroke-dashoffset: 271}73.07692307692307%{ stroke-dashoffset: 0;}100%{ stroke-dashoffset: 0;}}@keyframes GEBHUGsY_draw_2{15.384615384615385%{stroke-dashoffset: 312}73.07692307692307%{ stroke-dashoffset: 0;}100%{ stroke-dashoffset: 0;}}@keyframes GEBHUGsY_draw_3{15.384615384615385%{stroke-dashoffset: 273}73.07692307692307%{ stroke-dashoffset: 0;}100%{ stroke-dashoffset: 0;}}@keyframes GEBHUGsY_draw_4{15.384615384615385%{stroke-dashoffset: 114}73.07692307692307%{ stroke-dashoffset: 0;}100%{ stroke-dashoffset: 0;}}@keyframes GEBHUGsY_draw_5{15.384615384615385%{stroke-dashoffset: 164}73.07692307692307%{ stroke-dashoffset: 0;}100%{ stroke-dashoffset: 0;}}@keyframes GEBHUGsY_draw_6{15.384615384615385%{stroke-dashoffset: 76}73.07692307692307%{ stroke-dashoffset: 0;}100%{ stroke-dashoffset: 0;}}@keyframes GEBHUGsY_draw_7{15.384615384615385%{stroke-dashoffset: 1}73.07692307692307%{ stroke-dashoffset: 0;}100%{ stroke-dashoffset: 0;}}@keyframes GEBHUGsY_draw_8{15.384615384615385%{stroke-dashoffset: 24}73.07692307692307%{ stroke-dashoffset: 0;}100%{ stroke-dashoffset: 0;}}@keyframes GEBHUGsY_draw_9{15.384615384615385%{stroke-dashoffset: 24}73.07692307692307%{ stroke-dashoffset: 0;}100%{ stroke-dashoffset: 0;}}@keyframes GEBHUGsY_draw_10{15.384615384615385%{stroke-dashoffset: 44}73.07692307692307%{ stroke-dashoffset: 0;}100%{ stroke-dashoffset: 0;}}@keyframes GEBHUGsY_draw_11{15.384615384615385%{stroke-dashoffset: 23}73.07692307692307%{ stroke-dashoffset: 0;}100%{ stroke-dashoffset: 0;}}@keyframes GEBHUGsY_draw_12{15.384615384615385%{stroke-dashoffset: 31}73.07692307692307%{ stroke-dashoffset: 0;}100%{ stroke-dashoffset: 0;}}@keyframes GEBHUGsY_draw_13{15.384615384615385%{stroke-dashoffset: 14}73.07692307692307%{ stroke-dashoffset: 0;}100%{ stroke-dashoffset: 0;}}@keyframes GEBHUGsY_draw_14{15.384615384615385%{stroke-dashoffset: 11}73.07692307692307%{ stroke-dashoffset: 0;}100%{ stroke-dashoffset: 0;}}@keyframes GEBHUGsY_draw_15{15.384615384615385%{stroke-dashoffset: 148}73.07692307692307%{ stroke-dashoffset: 0;}100%{ stroke-dashoffset: 0;}}@keyframes GEBHUGsY_draw_16{15.384615384615385%{stroke-dashoffset: 109}73.07692307692307%{ stroke-dashoffset: 0;}100%{ stroke-dashoffset: 0;}}</style></svg>