<svg id="Capa_1" data-name="Capa 1" xmlns="http://www.w3.org/2000/svg" viewBox="0 0 345.55 282.35" style=""><defs><style>.cls-1{fill:#263238;}.cls-11,.cls-2,.cls-4{fill:#E6EBE7;}.cls-10,.cls-11,.cls-2,.cls-3,.cls-4,.cls-6,.cls-8,.cls-9{stroke:#263238;}.cls-10,.cls-11,.cls-2,.cls-6,.cls-7,.cls-8,.cls-9{stroke-linecap:round;}.cls-10,.cls-11,.cls-2,.cls-8,.cls-9{stroke-linejoin:round;}.cls-2{stroke-width:1.08px;}.cls-3,.cls-9{fill:#fff;}.cls-3,.cls-4,.cls-5,.cls-6,.cls-7{stroke-miterlimit:10;}.cls-10,.cls-5,.cls-6,.cls-7,.cls-8{fill:none;}.cls-5,.cls-7{stroke:#fff;}.cls-5,.cls-7,.cls-8{stroke-width:0.5px;}</style></defs><g id="freepik--Gears--inject-46"><path class="cls-1 VsBPHsTJ_0" d="M268.68,149.28l6-2.76-1.28-7.25-6.67-.52a29.59,29.59,0,0,0-3.33-6.32l3.44-5.8-5.21-5.21-5.86,3.47a29.09,29.09,0,0,0-11.17-4.56l-1.6-6.68h-7.37l-1.69,6.72a29.1,29.1,0,0,0-6.63,2.11L222,117.92l-6,4.23,2.49,6.51a30.13,30.13,0,0,0-4.24,5.49l-6.93-.71-2.52,6.92,5.74,3.9a29.7,29.7,0,0,0-.41,4.89,17.74,17.74,0,0,0,.08,2.07l-6,3.37,1.91,7.12,6.84-.09a29.63,29.63,0,0,0,3.76,6l-3,6.13,5.65,4.74,5.47-3.92a29.16,29.16,0,0,0,6.59,2.78l1.09,6.6,7.34.64,2.22-6.25a28.91,28.91,0,0,0,7.06-1.53l4.63,4.71,6.38-3.68-1.75-6.35a29.56,29.56,0,0,0,4.9-5.34l6.49,1.19,3.11-6.68-5.09-4.19A29.06,29.06,0,0,0,268.68,149.28Zm-10.9-.13a18.4,18.4,0,1,1-18.4-18.4h0A18.4,18.4,0,0,1,257.78,149.15Z" transform="translate(-70.46 -109.39)"></path><path class="cls-2 VsBPHsTJ_1" d="M268.68,145.56l6-2.75-1.28-7.26-6.67-.52a29.07,29.07,0,0,0-3.33-6.31l3.44-5.81-5.21-5.21-5.86,3.48a28.94,28.94,0,0,0-11.17-4.56l-1.6-6.69h-7.37l-1.69,6.73a29.07,29.07,0,0,0-6.63,2.1L222,114.21l-6,4.22,2.49,6.52a29.69,29.69,0,0,0-4.24,5.49l-6.93-.72-2.52,6.93,5.74,3.89a29.7,29.7,0,0,0-.41,4.89,18,18,0,0,0,.08,2.08l-6,3.37L206,158l6.84-.09a29.63,29.63,0,0,0,3.76,6l-3,6.14,5.65,4.73,5.47-3.92a28.75,28.75,0,0,0,6.59,2.79l1.09,6.59,7.34.65,2.22-6.25a28.91,28.91,0,0,0,7.06-1.53l4.63,4.7,6.38-3.68-1.75-6.35a29.23,29.23,0,0,0,4.9-5.34l6.49,1.2,3.11-6.68-5.09-4.2A29.2,29.2,0,0,0,268.68,145.56Zm-10.9-.13A18.4,18.4,0,1,1,239.38,127a18.4,18.4,0,0,1,18.4,18.43Z" transform="translate(-70.46 -109.39)"></path><path class="cls-1 VsBPHsTJ_2" d="M257.87,251.39l10.75-4.89-2.27-12.9-11.86-.93a52,52,0,0,0-5.93-11.23l6.11-10.32-9.26-9.26L235,208a51.66,51.66,0,0,0-19.86-8.1l-3-11.89H199l-3,12a51.79,51.79,0,0,0-11.78,3.74l-9.36-8.1-10.73,7.51,4.42,11.59A52.11,52.11,0,0,0,161,224.5l-12.33-1.27-4.48,12.31,10.21,6.93a51.69,51.69,0,0,0-.74,8.7c0,1.24.06,2.46.15,3.68l-10.75,6,3.39,12.65,12.17-.16a51.8,51.8,0,0,0,6.7,10.66l-5.25,10.9,10,8.42,9.72-7a52.54,52.54,0,0,0,11.72,4.95l2,11.73,13.05,1.14L210.49,303a52,52,0,0,0,12.56-2.72l8.23,8.37,11.35-6.55-3.12-11.29a51.73,51.73,0,0,0,8.72-9.5l11.53,2.13,5.53-11.87-9-7.47A51.82,51.82,0,0,0,257.87,251.39Zm-19.37-.22a32.71,32.71,0,1,1-32.71-32.71h0A32.73,32.73,0,0,1,238.5,251.17Z" transform="translate(-70.46 -109.39)"></path><path class="cls-2 VsBPHsTJ_3" d="M257.87,246.36l10.75-4.9-2.27-12.9-11.86-.92a52,52,0,0,0-5.93-11.23l6.11-10.32-9.26-9.27L235,203a51.84,51.84,0,0,0-19.86-8.11l-3-11.88H199l-3,12a51.79,51.79,0,0,0-11.78,3.74l-9.36-8.1-10.73,7.51,4.42,11.59a52.07,52.07,0,0,0-7.53,9.76L148.7,218.2l-4.48,12.31,10.21,6.93a51.66,51.66,0,0,0-.74,8.69c0,1.24.06,2.47.15,3.69l-10.75,6,3.39,12.66,12.17-.16a51.39,51.39,0,0,0,6.67,10.62l-5.25,10.91,10,8.42,9.72-7a52,52,0,0,0,11.72,4.94l2,11.79,13.05,1.15L210.49,298a52,52,0,0,0,12.56-2.72l8.23,8.37,11.35-6.55-3.12-11.29a51.73,51.73,0,0,0,8.72-9.5l11.53,2.13,5.53-11.88-9-7.46A51.11,51.11,0,0,0,257.87,246.36Zm-19.37-.23a32.71,32.71,0,1,1-32.71-32.71h0A32.7,32.7,0,0,1,238.5,246.13Z" transform="translate(-70.46 -109.39)"></path><path class="cls-1 VsBPHsTJ_4" d="M376.41,279.91l10.75-4.9-2.28-12.9L373,261.19A52.53,52.53,0,0,0,367.09,250l6.11-10.33-9.26-9.26-10.4,6.18a51.88,51.88,0,0,0-19.87-8.11l-3-11.88h-13.1l-3,12a51.79,51.79,0,0,0-11.78,3.74l-9.37-8.11-10.73,7.52,4.42,11.59a52.77,52.77,0,0,0-7.52,9.76l-12.34-1.27-4.48,12.31L273,271a52.72,52.72,0,0,0-.73,8.69c0,1.24.06,2.47.14,3.68l-10.74,6L265,302l12.16-.16a51.86,51.86,0,0,0,6.68,10.62l-5.25,10.91,10,8.42,9.73-7a51,51,0,0,0,11.72,5l2,11.73,13,1.14,3.93-11.1a52.47,52.47,0,0,0,12.56-2.72l8.24,8.36,11.34-6.55L358,319.37a52.39,52.39,0,0,0,8.72-9.5L378.29,312l5.54-11.87-9-7.47A52.2,52.2,0,0,0,376.41,279.91ZM357,279.68A32.71,32.71,0,1,1,324.26,247h.06A32.7,32.7,0,0,1,357,279.68Z" transform="translate(-70.46 -109.39)"></path><path class="cls-2 VsBPHsTJ_5" d="M376.41,274.88l10.75-4.9-2.28-12.9L373,256.16a52.56,52.56,0,0,0-5.94-11.24l6.11-10.32-9.26-9.26-10.4,6.18a51.88,51.88,0,0,0-19.87-8.11l-3-11.88h-13.1l-3,12a51.79,51.79,0,0,0-11.78,3.74l-9.37-8.11-10.73,7.52,4.42,11.59a52.35,52.35,0,0,0-7.52,9.76l-12.34-1.27L262.75,259,273,266a52.84,52.84,0,0,0-.73,8.7c0,1.24.06,2.46.14,3.68l-10.74,6L265,297l12.16-.15a52.29,52.29,0,0,0,6.68,10.62l-5.25,10.91,10,8.42,9.73-7A52.54,52.54,0,0,0,310,324.75l2,11.73,13,1.14,4-11.1a51.52,51.52,0,0,0,12.56-2.72l8.24,8.37,11.34-6.55L358,314.34a53.12,53.12,0,0,0,8.72-9.5L378.29,307l5.54-11.87-9-7.47A52.44,52.44,0,0,0,376.41,274.88ZM357,274.65a32.71,32.71,0,1,1-32.71-32.71h0A32.7,32.7,0,0,1,357,274.63Z" transform="translate(-70.46 -109.39)"></path></g><g id="freepik--character-3--inject-46"><path class="cls-3 VsBPHsTJ_6" d="M362.26,305.87a3.53,3.53,0,0,1-.54,2.43c-.81,1.62-2.16,2.16-1.35,3a11.07,11.07,0,0,0,2.7,1.62s.54,5.4,3,7.83,8.1-.54,8.1-.54l2.7,4.86,6.48-3.78s-1.62-1.62-3.51-7.29-4.86-9.72-10.53-10.26S362.26,305.87,362.26,305.87Z" transform="translate(-70.46 -109.39)"></path><path class="cls-3 VsBPHsTJ_7" d="M346.86,331.79l-1.62-4.32c-.81-2.16-2.7-3-4.86-3s-3.24-2.16-4.32-1.89.54,1.89,1.35,2.7a8.14,8.14,0,0,0,1.89,1.35,42.75,42.75,0,0,1-6.75-1.08c-3-.81-2.43.27-.27,2.16s5.4,3.78,6.48,3.78a21.21,21.21,0,0,1,3.78.81L344,335Z" transform="translate(-70.46 -109.39)"></path><path class="cls-3 VsBPHsTJ_8" d="M376.27,296.54l-4.5-1c-2.26-.49-3.33-2.25-3.63-4.39s-2.6-2.9-2.49-4,2,.26,2.87,1a8.22,8.22,0,0,1,1.6,1.68,42.45,42.45,0,0,0-2-6.53c-1.23-2.83-.08-2.44,2.1-.57s4.5,4.81,4.66,5.87a6,6,0,0,0,1.14,2.3l1.8,2.25Z" transform="translate(-70.46 -109.39)"></path><path class="cls-4 VsBPHsTJ_9" d="M344.16,355.28l-1.62-22.95a5.07,5.07,0,0,1,4.32-.54l7,19.71S348.48,359.06,344.16,355.28Z" transform="translate(-70.46 -109.39)"></path><path class="cls-3 VsBPHsTJ_10" d="M364.42,373.91s-10-3.51-10.81.54,11.89,8.92,16.21,8.65S370.09,376.08,364.42,373.91Z" transform="translate(-70.46 -109.39)"></path><path class="cls-1 VsBPHsTJ_11" d="M382,365.81s-15.93-10-20.25-12.15-9.19-1.62-11.08,2.7,17,21.88,21.34,27.82,14.85,7.56,20.25,7.56,14.85-5.94,15.93-11.07.54-22.42-.81-27-4.59-7.56-8.37-3.24S385.75,366.08,382,365.81Z" transform="translate(-70.46 -109.39)"></path><path class="cls-5 VsBPHsTJ_12" d="M380.94,366.27s-5.12,12.41-4.53,16.55" transform="translate(-70.46 -109.39)"></path><path class="cls-5 VsBPHsTJ_13" d="M403.4,364.5s4.33,5.12,4.52,10.24" transform="translate(-70.46 -109.39)"></path><path class="cls-4 VsBPHsTJ_14" d="M383.59,319.91s-5.94,3.24-8.37,5.94-27,24.57-29.44,25.92-2.7,6.75,1.62,7.29,25.39-10.8,25.39-10.8-1.89,4.86,0,6.48,6.75,3,7.29,5.13-.27,6.48,2.43,8.64,11.07,3,16.2-1.08,4.86-13.77,3.78-20.25.81-30.24-.54-35.64-25.65-18.36-25.65-18.36l-1.08,4.05s16.2,11.88,16.47,13S383.59,319.91,383.59,319.91Z" transform="translate(-70.46 -109.39)"></path><path class="cls-6 VsBPHsTJ_15" d="M302.33,238.87L312.15,235.64"></path><path class="cls-6 VsBPHsTJ_16" d="M303.4,238.21L312.15,241.04"></path><path class="cls-1 VsBPHsTJ_17" d="M370.9,292.91a7.7,7.7,0,0,0-9.45.27c-5.13,3.78-1.89,9.45-.54,11.07l1.35,1.62s4.05,7.29,8.1,10.26,13.23,3.78,13.23,3.78,3.51,3.51,3,13.5-4,15.39,2.16,23.49S406,368,411.4,359.6s6.75-17,.27-25.65-17.28-12.42-20.25-13.77-4.05-3.51-4.05-4.59,4.86-13.5,0-20.52S375.22,290.47,370.9,292.91Z" transform="translate(-70.46 -109.39)"></path><path class="cls-7 VsBPHsTJ_18" d="M369.72,294.19s-3.94-1.38-4.73,4.13,2.67,15.05,10.64,18.32" transform="translate(-70.46 -109.39)"></path><path class="cls-7 VsBPHsTJ_19" d="M367.94,302.46A31.73,31.73,0,0,0,375,313.1a21.93,21.93,0,0,0,11.23,5.51" transform="translate(-70.46 -109.39)"></path><path class="cls-7 VsBPHsTJ_20" d="M388.43,322.75s7.28,8.07,4.53,18.71,3.54,21.46,11.62,20.68,8.07-12,8.07-12" transform="translate(-70.46 -109.39)"></path><path class="cls-7 VsBPHsTJ_21" d="M387.05,321.17s4.33.2,10.83,9.06,2.56,16.74,3.35,23.44,6.5,5.51,7.88,2.75" transform="translate(-70.46 -109.39)"></path></g><g id="freepik--character-2--inject-46"><path class="cls-1 VsBPHsTJ_22" d="M363.85,152.79c-5.29-6.49-14.43-7.76-21.22-12.38a128.56,128.56,0,0,1-13-10.15h-.31a13.38,13.38,0,0,0-8-4.13c-7-.59-13.89,1.68-13.28,9.6-.4.26-.79.53-1.19.84a7.47,7.47,0,0,0-1.9.53c-4.89,2.06-5.27,12.2-1.62,16.84,1.94,2.46,5.74,4.54,9.23,5.7v.11s.3,1,10.45,2,13.12,5,12.66,9.87a12.78,12.78,0,0,0,3.44,10c1.23,1.73,3.23,3.09,6.44,3.88C364.12,190,375,166.44,363.85,152.79Z" transform="translate(-70.46 -109.39)"></path><path class="cls-7 VsBPHsTJ_23" d="M312.38,138.9A39.74,39.74,0,0,0,330.06,150c10.74,3,22.51-.62,29.52,4.37s7.11,10.13,6.45,13" transform="translate(-70.46 -109.39)"></path><path class="cls-7 VsBPHsTJ_24" d="M310.55,135.54a15,15,0,0,1,9.75-1c5.39,1.3,9.07,8.15,18.56,12s14.67,1,19.35,3.61" transform="translate(-70.46 -109.39)"></path><path class="cls-7 VsBPHsTJ_25" d="M310.49,140.26a10.82,10.82,0,0,0-4.58,8.83c0,5.91,4.49,6.73,4.49,6.73" transform="translate(-70.46 -109.39)"></path><path class="cls-7 VsBPHsTJ_26" d="M309,139.34s-7.49,4.21-6.94,8.79a7.12,7.12,0,0,0,4.16,5.91" transform="translate(-70.46 -109.39)"></path><path class="cls-1 VsBPHsTJ_27" d="M315,176.55s-6.3,5.52-7.86,12.27-3,31.35-.65,33.59,5.06,1.17,6.72-.71,9.94-28.21,9.94-28.21l2.37.61S335,215.4,336,217.84s4.89,6.39,8.77,4.17,1-19-1-25.22-7.25-21.63-11.41-23.27S317.05,173.29,315,176.55Z" transform="translate(-70.46 -109.39)"></path><path class="cls-4 VsBPHsTJ_28" d="M314,179s5.09,7.66,11.39,6.36,8.08-8.73,7.83-10.32S314,179,314,179Z" transform="translate(-70.46 -109.39)"></path><path class="cls-4 VsBPHsTJ_29" d="M319,152.5s-14.22,4.8-16.9,8.47-6.47,29.62-7,30.67-8,26.27-8,26.27l4.18-.32s12.38-25,12.87-26.06,4.21-16.91,4.21-16.91,1.69,4.62,4.38,5.18,10-.58,15.07-1.36,6.67-1,8.55-3.6,1.61-6.43,1.61-6.43l8.3,17.9-5.62,28.84,4.16,1.63s8.64-26.05,8.93-28.38-5.9-19.24-10-26.74-5-7.35-8.88-9S319,152.5,319,152.5Z" transform="translate(-70.46 -109.39)"></path><path class="cls-3 VsBPHsTJ_30" d="M317.9,159.83s.81,7.35,3.86,8.18,1.95-8.43,1.95-8.43Z" transform="translate(-70.46 -109.39)"></path><path class="cls-3 VsBPHsTJ_31" d="M315.73,145.29a12.9,12.9,0,0,1-4.67,5,23,23,0,0,0,3.58,7.49c4.48,5.81,6.8,6.1,9.1,4.12,1.94-1.68,3.58-6.82,3.58-11.25C317.39,147.89,315.73,145.29,315.73,145.29Z" transform="translate(-70.46 -109.39)"></path><path class="cls-8 VsBPHsTJ_32" d="M313.26,151.87a2.85,2.85,0,0,1,2.74-.93c1.82.32,2.11,2.71,2.56,4.19s.63,4.31,2.63,1.92" transform="translate(-70.46 -109.39)"></path><path class="cls-8 VsBPHsTJ_33" d="M320.17,150.74s1.68-2.42,4.44,0" transform="translate(-70.46 -109.39)"></path><path class="cls-8 VsBPHsTJ_34" d="M319.34,159.53a2.68,2.68,0,0,0,3.26-.65" transform="translate(-70.46 -109.39)"></path><path class="cls-8 VsBPHsTJ_35" d="M314.89,153.33s1,1.1,2.16-.33" transform="translate(-70.46 -109.39)"></path><path class="cls-8 VsBPHsTJ_36" d="M321.58,152.61a2,2,0,0,0,2.82-.18l0,0" transform="translate(-70.46 -109.39)"></path><path class="cls-3 VsBPHsTJ_37" d="M287.22,217.91a20.87,20.87,0,0,0-3.12,5c-.66,2.05-2.93,6.31-1.34,6.06s3.71-5.45,3.71-5.45a10.27,10.27,0,0,0,4.2-2.28,4.11,4.11,0,0,0,.73-3.69Z" transform="translate(-70.46 -109.39)"></path><path class="cls-3 VsBPHsTJ_38" d="M340.77,215.15s-3,3.4-3.22,4.4-.38,5.91-.38,5.91.46.9,1.58-.25a2.7,2.7,0,0,0,1-2.1s-.41,3.64.1,4.86,3.13-.81,3.88-2.22,1.22-9,1.22-9Z" transform="translate(-70.46 -109.39)"></path></g><g id="freepik--character-1--inject-46"><path class="cls-9 VsBPHsTJ_39" d="M120.85,309.88s9.72,2.43,6.21,4.05-10.26,1.89-14,.81-4.32-5.13-1.35-5.67S120.85,309.88,120.85,309.88Z" transform="translate(-70.46 -109.39)"></path><path class="cls-9 VsBPHsTJ_40" d="M90.88,341.2l-10.26,2.43,1.08,5.94,2.43.54s-.81,7,.27,10,1.89,8.37,4,7.56.81-12.15,1.62-13.5a42.07,42.07,0,0,1,4-4.59l-2.7-7.29Z" transform="translate(-70.46 -109.39)"></path><path class="cls-10 VsBPHsTJ_41" d="M84.33,343s1.23,20.66,4.12,24.66" transform="translate(-70.46 -109.39)"></path><path class="cls-1 VsBPHsTJ_42" d="M110.05,311.77s19.17,4.86,28.08,9.18,13.78,10.8,8.38,15.66-28.63,9.72-35.38,11.61-18.09,4-18.09,4l-2.71-11.94,24.31-5.07-17.28-6.75s-6.21-2.16-3.24-8.64S110.05,311.77,110.05,311.77Z" transform="translate(-70.46 -109.39)"></path><path class="cls-7 VsBPHsTJ_43" d="M114.64,335.26s14.85,2.7,20.52,2.7" transform="translate(-70.46 -109.39)"></path><path class="cls-1 VsBPHsTJ_44" d="M114.1,309.34l6.48,2.7a38.82,38.82,0,0,1,11.34-7.84c6.75-3,14.59-5.4,13.24-13.23s-7.57-8.91-13.78-8.91h-10.8Z" transform="translate(-70.46 -109.39)"></path><path class="cls-9 VsBPHsTJ_45" d="M142.16,241.59s5.54,1.24,6,.61,6-2.86,7.09-3.38,1.71-1.75.52-2-6.56,1.39-6.56,1.39l3.44-4.85s5.24-2.76,4.34-3.8-3.45,0-4.8,0-6.11.37-7.82,2.12-5.58,6.26-5.58,6.26Z" transform="translate(-70.46 -109.39)"></path><path class="cls-11 VsBPHsTJ_46" d="M131.52,253.35l12.29-10.62-4.35-3.19-18.56,7.83h0c-5.62,1.53-12.08,3.52-13.82,5-3.24,2.7-3.24,11.34-3.24,12.15S99,273.15,92.23,279.63s-17.55,11.61-20.25,14,0,20.26,7.83,28.36a66.68,66.68,0,0,0,17.82,12.69s17.82-22.68,20-26.73,2.7-4.87,2.7-4.87,6.75-11.61,6.21-15.12-.81-18.36-.81-21.6,4.86-10.26,5.67-12.69A2.74,2.74,0,0,1,131.52,253.35Z" transform="translate(-70.46 -109.39)"></path><path class="cls-6 VsBPHsTJ_47" d="M103.84,264.51s6.17-8.27,11.39-11" transform="translate(-70.46 -109.39)"></path><path class="cls-9 VsBPHsTJ_48" d="M149.21,248.85a18.51,18.51,0,0,1,.27,6.21c-.54,2.43,2.16,3.51.81,4.59s-2.7,2.43-2.7,2.43l-3,5.94c-.81,1.62-3,3.78-4.87,3.51s-6.21-3.51-7.83-3.51-5.67,2.16-5.67,2.16-.54-8.1-.54-11.07,3.51-3.78,3.51-3.78,2.43-5.13,5.67-7.56S146.51,245.07,149.21,248.85Z" transform="translate(-70.46 -109.39)"></path><path class="cls-10 VsBPHsTJ_49" d="M134.08,264.24s1.62,1.89,2.7,1.89h1.08a21.93,21.93,0,0,0,1.35,3.51" transform="translate(-70.46 -109.39)"></path><path class="cls-10 VsBPHsTJ_50" d="M149.21,254a4.6,4.6,0,0,0-1.89,3.24" transform="translate(-70.46 -109.39)"></path><path class="cls-1 VsBPHsTJ_51" d="M134.08,264.24s-4.05-1.62-7-7.56-4.59-13.5,2.7-19.17,13.78-2.7,17-1.62,8.37,3.78,6.48,9.45-10.53,6.21-10.26,7.56,3,4,1.35,4.59-3.25,1.62-3.25,2.43-.26,3-1.08,3-3.24-5.4-5.13-3.78S134.08,264.24,134.08,264.24Z" transform="translate(-70.46 -109.39)"></path><path class="cls-9 VsBPHsTJ_52" d="M127.06,256.68,129,269.37l4.05,8.91h-8.37a119.72,119.72,0,0,1-3.5-13.29,9.06,9.06,0,0,1,3.6-9Z" transform="translate(-70.46 -109.39)"></path><path class="cls-9 VsBPHsTJ_53" d="M167.57,300.69s2.43-5.13,3.24-5.13,5.94-3,7-3.51,2.43-.27,1.89.81-5.13,4.32-5.13,4.32l5.94.27s5.4-2.43,5.67-1.08-2.16,2.7-3,3.78-4,4.6-6.48,4.86-8.37.55-8.37.55Z" transform="translate(-70.46 -109.39)"></path><path class="cls-11 VsBPHsTJ_54" d="M111.13,293.94s26.46,25.12,29.43,25.39,29.17-11.88,29.17-11.88l-2.16-8.11-26.19,6s-20.8-26.74-22.69-26.74-5.13,2.7-5.13,2.7" transform="translate(-70.46 -109.39)"></path><path class="cls-11 VsBPHsTJ_55" d="M111.4,316.9s-15.93,10-19.71,11.34S86,330.4,86,330.4s2.57,3.23,4,3.93c3.33,1.67,7.63.39,7.63.39Z" transform="translate(-70.46 -109.39)"></path></g><style data-made-with="vivus-instant">.VsBPHsTJ_0{stroke-dasharray:402 404;stroke-dashoffset:403;animation:VsBPHsTJ_draw_0 5200ms ease 0ms infinite,VsBPHsTJ_fade 5200ms linear 0ms infinite;}.VsBPHsTJ_1{stroke-dasharray:402 404;stroke-dashoffset:403;animation:VsBPHsTJ_draw_1 5200ms ease 0ms infinite,VsBPHsTJ_fade 5200ms linear 0ms infinite;}.VsBPHsTJ_2{stroke-dasharray:714 716;stroke-dashoffset:715;animation:VsBPHsTJ_draw_2 5200ms ease 0ms infinite,VsBPHsTJ_fade 5200ms linear 0ms infinite;}.VsBPHsTJ_3{stroke-dasharray:714 716;stroke-dashoffset:715;animation:VsBPHsTJ_draw_3 5200ms ease 0ms infinite,VsBPHsTJ_fade 5200ms linear 0ms infinite;}.VsBPHsTJ_4{stroke-dasharray:714 716;stroke-dashoffset:715;animation:VsBPHsTJ_draw_4 5200ms ease 0ms infinite,VsBPHsTJ_fade 5200ms linear 0ms infinite;}.VsBPHsTJ_5{stroke-dasharray:714 716;stroke-dashoffset:715;animation:VsBPHsTJ_draw_5 5200ms ease 0ms infinite,VsBPHsTJ_fade 5200ms linear 0ms infinite;}.VsBPHsTJ_6{stroke-dasharray:71 73;stroke-dashoffset:72;animation:VsBPHsTJ_draw_6 5200ms ease 0ms infinite,VsBPHsTJ_fade 5200ms linear 0ms infinite;}.VsBPHsTJ_7{stroke-dasharray:53 55;stroke-dashoffset:54;animation:VsBPHsTJ_draw_7 5200ms ease 0ms infinite,VsBPHsTJ_fade 5200ms linear 0ms infinite;}.VsBPHsTJ_8{stroke-dasharray:51 53;stroke-dashoffset:52;animation:VsBPHsTJ_draw_8 5200ms ease 0ms infinite,VsBPHsTJ_fade 5200ms linear 0ms infinite;}.VsBPHsTJ_9{stroke-dasharray:61 63;stroke-dashoffset:62;animation:VsBPHsTJ_draw_9 5200ms ease 0ms infinite,VsBPHsTJ_fade 5200ms linear 0ms infinite;}.VsBPHsTJ_10{stroke-dasharray:46 48;stroke-dashoffset:47;animation:VsBPHsTJ_draw_10 5200ms ease 0ms infinite,VsBPHsTJ_fade 5200ms linear 0ms infinite;}.VsBPHsTJ_11{stroke-dasharray:178 180;stroke-dashoffset:179;animation:VsBPHsTJ_draw_11 5200ms ease 0ms infinite,VsBPHsTJ_fade 5200ms linear 0ms infinite;}.VsBPHsTJ_12{stroke-dasharray:18 20;stroke-dashoffset:19;animation:VsBPHsTJ_draw_12 5200ms ease 0ms infinite,VsBPHsTJ_fade 5200ms linear 0ms infinite;}.VsBPHsTJ_13{stroke-dasharray:12 14;stroke-dashoffset:13;animation:VsBPHsTJ_draw_13 5200ms ease 0ms infinite,VsBPHsTJ_fade 5200ms linear 0ms infinite;}.VsBPHsTJ_14{stroke-dasharray:257 259;stroke-dashoffset:258;animation:VsBPHsTJ_draw_14 5200ms ease 0ms infinite,VsBPHsTJ_fade 5200ms linear 0ms infinite;}.VsBPHsTJ_15{stroke-dasharray:11 13;stroke-dashoffset:12;animation:VsBPHsTJ_draw_15 5200ms ease 0ms infinite,VsBPHsTJ_fade 5200ms linear 0ms infinite;}.VsBPHsTJ_16{stroke-dasharray:10 12;stroke-dashoffset:11;animation:VsBPHsTJ_draw_16 5200ms ease 0ms infinite,VsBPHsTJ_fade 5200ms linear 0ms infinite;}.VsBPHsTJ_17{stroke-dasharray:216 218;stroke-dashoffset:217;animation:VsBPHsTJ_draw_17 5200ms ease 0ms infinite,VsBPHsTJ_fade 5200ms linear 0ms infinite;}.VsBPHsTJ_18{stroke-dasharray:30 32;stroke-dashoffset:31;animation:VsBPHsTJ_draw_18 5200ms ease 0ms infinite,VsBPHsTJ_fade 5200ms linear 0ms infinite;}.VsBPHsTJ_19{stroke-dasharray:26 28;stroke-dashoffset:27;animation:VsBPHsTJ_draw_19 5200ms ease 0ms infinite,VsBPHsTJ_fade 5200ms linear 0ms infinite;}.VsBPHsTJ_20{stroke-dasharray:64 66;stroke-dashoffset:65;animation:VsBPHsTJ_draw_20 5200ms ease 0ms infinite,VsBPHsTJ_fade 5200ms linear 0ms infinite;}.VsBPHsTJ_21{stroke-dasharray:51 53;stroke-dashoffset:52;animation:VsBPHsTJ_draw_21 5200ms ease 0ms infinite,VsBPHsTJ_fade 5200ms linear 0ms infinite;}.VsBPHsTJ_22{stroke-dasharray:200 202;stroke-dashoffset:201;animation:VsBPHsTJ_draw_22 5200ms ease 0ms infinite,VsBPHsTJ_fade 5200ms linear 0ms infinite;}.VsBPHsTJ_23{stroke-dasharray:67 69;stroke-dashoffset:68;animation:VsBPHsTJ_draw_23 5200ms ease 0ms infinite,VsBPHsTJ_fade 5200ms linear 0ms infinite;}.VsBPHsTJ_24{stroke-dasharray:53 55;stroke-dashoffset:54;animation:VsBPHsTJ_draw_24 5200ms ease 0ms infinite,VsBPHsTJ_fade 5200ms linear 0ms infinite;}.VsBPHsTJ_25{stroke-dasharray:20 22;stroke-dashoffset:21;animation:VsBPHsTJ_draw_25 5200ms ease 0ms infinite,VsBPHsTJ_fade 5200ms linear 0ms infinite;}.VsBPHsTJ_26{stroke-dasharray:20 22;stroke-dashoffset:21;animation:VsBPHsTJ_draw_26 5200ms ease 0ms infinite,VsBPHsTJ_fade 5200ms linear 0ms infinite;}.VsBPHsTJ_27{stroke-dasharray:197 199;stroke-dashoffset:198;animation:VsBPHsTJ_draw_27 5200ms ease 0ms infinite,VsBPHsTJ_fade 5200ms linear 0ms infinite;}.VsBPHsTJ_28{stroke-dasharray:48 50;stroke-dashoffset:49;animation:VsBPHsTJ_draw_28 5200ms ease 0ms infinite,VsBPHsTJ_fade 5200ms linear 0ms infinite;}.VsBPHsTJ_29{stroke-dasharray:309 311;stroke-dashoffset:310;animation:VsBPHsTJ_draw_29 5200ms ease 0ms infinite,VsBPHsTJ_fade 5200ms linear 0ms infinite;}.VsBPHsTJ_30{stroke-dasharray:25 27;stroke-dashoffset:26;animation:VsBPHsTJ_draw_30 5200ms ease 0ms infinite,VsBPHsTJ_fade 5200ms linear 0ms infinite;}.VsBPHsTJ_31{stroke-dasharray:52 54;stroke-dashoffset:53;animation:VsBPHsTJ_draw_31 5200ms ease 0ms infinite,VsBPHsTJ_fade 5200ms linear 0ms infinite;}.VsBPHsTJ_32{stroke-dasharray:14 16;stroke-dashoffset:15;animation:VsBPHsTJ_draw_32 5200ms ease 0ms infinite,VsBPHsTJ_fade 5200ms linear 0ms infinite;}.VsBPHsTJ_33{stroke-dasharray:6 8;stroke-dashoffset:7;animation:VsBPHsTJ_draw_33 5200ms ease 0ms infinite,VsBPHsTJ_fade 5200ms linear 0ms infinite;}.VsBPHsTJ_34{stroke-dasharray:4 6;stroke-dashoffset:5;animation:VsBPHsTJ_draw_34 5200ms ease 0ms infinite,VsBPHsTJ_fade 5200ms linear 0ms infinite;}.VsBPHsTJ_35{stroke-dasharray:3 5;stroke-dashoffset:4;animation:VsBPHsTJ_draw_35 5200ms ease 0ms infinite,VsBPHsTJ_fade 5200ms linear 0ms infinite;}.VsBPHsTJ_36{stroke-dasharray:4 6;stroke-dashoffset:5;animation:VsBPHsTJ_draw_36 5200ms ease 0ms infinite,VsBPHsTJ_fade 5200ms linear 0ms infinite;}.VsBPHsTJ_37{stroke-dasharray:33 35;stroke-dashoffset:34;animation:VsBPHsTJ_draw_37 5200ms ease 0ms infinite,VsBPHsTJ_fade 5200ms linear 0ms infinite;}.VsBPHsTJ_38{stroke-dasharray:40 42;stroke-dashoffset:41;animation:VsBPHsTJ_draw_38 5200ms ease 0ms infinite,VsBPHsTJ_fade 5200ms linear 0ms infinite;}.VsBPHsTJ_39{stroke-dasharray:41 43;stroke-dashoffset:42;animation:VsBPHsTJ_draw_39 5200ms ease 0ms infinite,VsBPHsTJ_fade 5200ms linear 0ms infinite;}.VsBPHsTJ_40{stroke-dasharray:68 70;stroke-dashoffset:69;animation:VsBPHsTJ_draw_40 5200ms ease 0ms infinite,VsBPHsTJ_fade 5200ms linear 0ms infinite;}.VsBPHsTJ_41{stroke-dasharray:26 28;stroke-dashoffset:27;animation:VsBPHsTJ_draw_41 5200ms ease 0ms infinite,VsBPHsTJ_fade 5200ms linear 0ms infinite;}.VsBPHsTJ_42{stroke-dasharray:192 194;stroke-dashoffset:193;animation:VsBPHsTJ_draw_42 5200ms ease 0ms infinite,VsBPHsTJ_fade 5200ms linear 0ms infinite;}.VsBPHsTJ_43{stroke-dasharray:21 23;stroke-dashoffset:22;animation:VsBPHsTJ_draw_43 5200ms ease 0ms infinite,VsBPHsTJ_fade 5200ms linear 0ms infinite;}.VsBPHsTJ_44{stroke-dasharray:99 101;stroke-dashoffset:100;animation:VsBPHsTJ_draw_44 5200ms ease 0ms infinite,VsBPHsTJ_fade 5200ms linear 0ms infinite;}.VsBPHsTJ_45{stroke-dasharray:63 65;stroke-dashoffset:64;animation:VsBPHsTJ_draw_45 5200ms ease 0ms infinite,VsBPHsTJ_fade 5200ms linear 0ms infinite;}.VsBPHsTJ_46{stroke-dasharray:258 260;stroke-dashoffset:259;animation:VsBPHsTJ_draw_46 5200ms ease 0ms infinite,VsBPHsTJ_fade 5200ms linear 0ms infinite;}.VsBPHsTJ_47{stroke-dasharray:16 18;stroke-dashoffset:17;animation:VsBPHsTJ_draw_47 5200ms ease 0ms infinite,VsBPHsTJ_fade 5200ms linear 0ms infinite;}.VsBPHsTJ_48{stroke-dasharray:85 87;stroke-dashoffset:86;animation:VsBPHsTJ_draw_48 5200ms ease 0ms infinite,VsBPHsTJ_fade 5200ms linear 0ms infinite;}.VsBPHsTJ_49{stroke-dasharray:9 11;stroke-dashoffset:10;animation:VsBPHsTJ_draw_49 5200ms ease 0ms infinite,VsBPHsTJ_fade 5200ms linear 0ms infinite;}.VsBPHsTJ_50{stroke-dasharray:4 6;stroke-dashoffset:5;animation:VsBPHsTJ_draw_50 5200ms ease 0ms infinite,VsBPHsTJ_fade 5200ms linear 0ms infinite;}.VsBPHsTJ_51{stroke-dasharray:102 104;stroke-dashoffset:103;animation:VsBPHsTJ_draw_51 5200ms ease 0ms infinite,VsBPHsTJ_fade 5200ms linear 0ms infinite;}.VsBPHsTJ_52{stroke-dasharray:58 60;stroke-dashoffset:59;animation:VsBPHsTJ_draw_52 5200ms ease 0ms infinite,VsBPHsTJ_fade 5200ms linear 0ms infinite;}.VsBPHsTJ_53{stroke-dasharray:63 65;stroke-dashoffset:64;animation:VsBPHsTJ_draw_53 5200ms ease 0ms infinite,VsBPHsTJ_fade 5200ms linear 0ms infinite;}.VsBPHsTJ_54{stroke-dasharray:147 149;stroke-dashoffset:148;animation:VsBPHsTJ_draw_54 5200ms ease 0ms infinite,VsBPHsTJ_fade 5200ms linear 0ms infinite;}.VsBPHsTJ_55{stroke-dasharray:65 67;stroke-dashoffset:66;animation:VsBPHsTJ_draw_55 5200ms ease 0ms infinite,VsBPHsTJ_fade 5200ms linear 0ms infinite;}@keyframes VsBPHsTJ_draw{100%{stroke-dashoffset:0;}}@keyframes VsBPHsTJ_fade{0%{stroke-opacity:1;}92.3076923076923%{stroke-opacity:1;}100%{stroke-opacity:0;}}@keyframes VsBPHsTJ_draw_0{15.384615384615385%{stroke-dashoffset: 403}53.84615384615385%{ stroke-dashoffset: 0;}100%{ stroke-dashoffset: 0;}}@keyframes VsBPHsTJ_draw_1{15.734265734265735%{stroke-dashoffset: 403}54.1958041958042%{ stroke-dashoffset: 0;}100%{ stroke-dashoffset: 0;}}@keyframes VsBPHsTJ_draw_2{16.083916083916083%{stroke-dashoffset: 715}54.545454545454554%{ stroke-dashoffset: 0;}100%{ stroke-dashoffset: 0;}}@keyframes VsBPHsTJ_draw_3{16.433566433566433%{stroke-dashoffset: 715}54.89510489510489%{ stroke-dashoffset: 0;}100%{ stroke-dashoffset: 0;}}@keyframes VsBPHsTJ_draw_4{16.783216783216783%{stroke-dashoffset: 715}55.244755244755254%{ stroke-dashoffset: 0;}100%{ stroke-dashoffset: 0;}}@keyframes VsBPHsTJ_draw_5{17.132867132867133%{stroke-dashoffset: 715}55.59440559440559%{ stroke-dashoffset: 0;}100%{ stroke-dashoffset: 0;}}@keyframes VsBPHsTJ_draw_6{17.482517482517483%{stroke-dashoffset: 72}55.94405594405594%{ stroke-dashoffset: 0;}100%{ stroke-dashoffset: 0;}}@keyframes VsBPHsTJ_draw_7{17.83216783216783%{stroke-dashoffset: 54}56.29370629370629%{ stroke-dashoffset: 0;}100%{ stroke-dashoffset: 0;}}@keyframes VsBPHsTJ_draw_8{18.181818181818183%{stroke-dashoffset: 52}56.64335664335665%{ stroke-dashoffset: 0;}100%{ stroke-dashoffset: 0;}}@keyframes VsBPHsTJ_draw_9{18.53146853146853%{stroke-dashoffset: 62}56.993006993006986%{ stroke-dashoffset: 0;}100%{ stroke-dashoffset: 0;}}@keyframes VsBPHsTJ_draw_10{18.881118881118883%{stroke-dashoffset: 47}57.34265734265735%{ stroke-dashoffset: 0;}100%{ stroke-dashoffset: 0;}}@keyframes VsBPHsTJ_draw_11{19.230769230769234%{stroke-dashoffset: 179}57.692307692307686%{ stroke-dashoffset: 0;}100%{ stroke-dashoffset: 0;}}@keyframes VsBPHsTJ_draw_12{19.58041958041958%{stroke-dashoffset: 19}58.04195804195804%{ stroke-dashoffset: 0;}100%{ stroke-dashoffset: 0;}}@keyframes VsBPHsTJ_draw_13{19.930069930069934%{stroke-dashoffset: 13}58.39160839160839%{ stroke-dashoffset: 0;}100%{ stroke-dashoffset: 0;}}@keyframes VsBPHsTJ_draw_14{20.27972027972028%{stroke-dashoffset: 258}58.74125874125874%{ stroke-dashoffset: 0;}100%{ stroke-dashoffset: 0;}}@keyframes VsBPHsTJ_draw_15{20.62937062937063%{stroke-dashoffset: 12}59.09090909090909%{ stroke-dashoffset: 0;}100%{ stroke-dashoffset: 0;}}@keyframes VsBPHsTJ_draw_16{20.979020979020984%{stroke-dashoffset: 11}59.44055944055944%{ stroke-dashoffset: 0;}100%{ stroke-dashoffset: 0;}}@keyframes VsBPHsTJ_draw_17{21.328671328671327%{stroke-dashoffset: 217}59.79020979020979%{ stroke-dashoffset: 0;}100%{ stroke-dashoffset: 0;}}@keyframes VsBPHsTJ_draw_18{21.678321678321677%{stroke-dashoffset: 31}60.13986013986013%{ stroke-dashoffset: 0;}100%{ stroke-dashoffset: 0;}}@keyframes VsBPHsTJ_draw_19{22.02797202797203%{stroke-dashoffset: 27}60.48951048951049%{ stroke-dashoffset: 0;}100%{ stroke-dashoffset: 0;}}@keyframes VsBPHsTJ_draw_20{22.37762237762238%{stroke-dashoffset: 65}60.83916083916085%{ stroke-dashoffset: 0;}100%{ stroke-dashoffset: 0;}}@keyframes VsBPHsTJ_draw_21{22.72727272727273%{stroke-dashoffset: 52}61.18881118881119%{ stroke-dashoffset: 0;}100%{ stroke-dashoffset: 0;}}@keyframes VsBPHsTJ_draw_22{23.076923076923077%{stroke-dashoffset: 201}61.53846153846154%{ stroke-dashoffset: 0;}100%{ stroke-dashoffset: 0;}}@keyframes VsBPHsTJ_draw_23{23.426573426573427%{stroke-dashoffset: 68}61.88811188811189%{ stroke-dashoffset: 0;}100%{ stroke-dashoffset: 0;}}@keyframes VsBPHsTJ_draw_24{23.77622377622378%{stroke-dashoffset: 54}62.23776223776224%{ stroke-dashoffset: 0;}100%{ stroke-dashoffset: 0;}}@keyframes VsBPHsTJ_draw_25{24.125874125874127%{stroke-dashoffset: 21}62.58741258741259%{ stroke-dashoffset: 0;}100%{ stroke-dashoffset: 0;}}@keyframes VsBPHsTJ_draw_26{24.475524475524477%{stroke-dashoffset: 21}62.93706293706294%{ stroke-dashoffset: 0;}100%{ stroke-dashoffset: 0;}}@keyframes VsBPHsTJ_draw_27{24.825174825174827%{stroke-dashoffset: 198}63.286713286713294%{ stroke-dashoffset: 0;}100%{ stroke-dashoffset: 0;}}@keyframes VsBPHsTJ_draw_28{25.174825174825173%{stroke-dashoffset: 49}63.63636363636363%{ stroke-dashoffset: 0;}100%{ stroke-dashoffset: 0;}}@keyframes VsBPHsTJ_draw_29{25.524475524475527%{stroke-dashoffset: 310}63.98601398601399%{ stroke-dashoffset: 0;}100%{ stroke-dashoffset: 0;}}@keyframes VsBPHsTJ_draw_30{25.874125874125873%{stroke-dashoffset: 26}64.33566433566433%{ stroke-dashoffset: 0;}100%{ stroke-dashoffset: 0;}}@keyframes VsBPHsTJ_draw_31{26.223776223776223%{stroke-dashoffset: 53}64.6853146853147%{ stroke-dashoffset: 0;}100%{ stroke-dashoffset: 0;}}@keyframes VsBPHsTJ_draw_32{26.573426573426577%{stroke-dashoffset: 15}65.03496503496504%{ stroke-dashoffset: 0;}100%{ stroke-dashoffset: 0;}}@keyframes VsBPHsTJ_draw_33{26.923076923076923%{stroke-dashoffset: 7}65.38461538461539%{ stroke-dashoffset: 0;}100%{ stroke-dashoffset: 0;}}@keyframes VsBPHsTJ_draw_34{27.272727272727277%{stroke-dashoffset: 5}65.73426573426573%{ stroke-dashoffset: 0;}100%{ stroke-dashoffset: 0;}}@keyframes VsBPHsTJ_draw_35{27.622377622377627%{stroke-dashoffset: 4}66.08391608391608%{ stroke-dashoffset: 0;}100%{ stroke-dashoffset: 0;}}@keyframes VsBPHsTJ_draw_36{27.97202797202797%{stroke-dashoffset: 5}66.43356643356644%{ stroke-dashoffset: 0;}100%{ stroke-dashoffset: 0;}}@keyframes VsBPHsTJ_draw_37{28.321678321678323%{stroke-dashoffset: 34}66.78321678321679%{ stroke-dashoffset: 0;}100%{ stroke-dashoffset: 0;}}@keyframes VsBPHsTJ_draw_38{28.671328671328673%{stroke-dashoffset: 41}67.13286713286713%{ stroke-dashoffset: 0;}100%{ stroke-dashoffset: 0;}}@keyframes VsBPHsTJ_draw_39{29.02097902097902%{stroke-dashoffset: 42}67.48251748251748%{ stroke-dashoffset: 0;}100%{ stroke-dashoffset: 0;}}@keyframes VsBPHsTJ_draw_40{29.370629370629374%{stroke-dashoffset: 69}67.83216783216784%{ stroke-dashoffset: 0;}100%{ stroke-dashoffset: 0;}}@keyframes VsBPHsTJ_draw_41{29.72027972027972%{stroke-dashoffset: 27}68.18181818181819%{ stroke-dashoffset: 0;}100%{ stroke-dashoffset: 0;}}@keyframes VsBPHsTJ_draw_42{30.069930069930074%{stroke-dashoffset: 193}68.53146853146855%{ stroke-dashoffset: 0;}100%{ stroke-dashoffset: 0;}}@keyframes VsBPHsTJ_draw_43{30.419580419580424%{stroke-dashoffset: 22}68.88111888111888%{ stroke-dashoffset: 0;}100%{ stroke-dashoffset: 0;}}@keyframes VsBPHsTJ_draw_44{30.76923076923077%{stroke-dashoffset: 100}69.23076923076923%{ stroke-dashoffset: 0;}100%{ stroke-dashoffset: 0;}}@keyframes VsBPHsTJ_draw_45{31.11888111888112%{stroke-dashoffset: 64}69.58041958041957%{ stroke-dashoffset: 0;}100%{ stroke-dashoffset: 0;}}@keyframes VsBPHsTJ_draw_46{31.46853146853147%{stroke-dashoffset: 259}69.93006993006993%{ stroke-dashoffset: 0;}100%{ stroke-dashoffset: 0;}}@keyframes VsBPHsTJ_draw_47{31.818181818181817%{stroke-dashoffset: 17}70.27972027972028%{ stroke-dashoffset: 0;}100%{ stroke-dashoffset: 0;}}@keyframes VsBPHsTJ_draw_48{32.16783216783217%{stroke-dashoffset: 86}70.62937062937064%{ stroke-dashoffset: 0;}100%{ stroke-dashoffset: 0;}}@keyframes VsBPHsTJ_draw_49{32.51748251748252%{stroke-dashoffset: 10}70.97902097902097%{ stroke-dashoffset: 0;}100%{ stroke-dashoffset: 0;}}@keyframes VsBPHsTJ_draw_50{32.86713286713287%{stroke-dashoffset: 5}71.32867132867132%{ stroke-dashoffset: 0;}100%{ stroke-dashoffset: 0;}}@keyframes VsBPHsTJ_draw_51{33.21678321678322%{stroke-dashoffset: 103}71.67832167832168%{ stroke-dashoffset: 0;}100%{ stroke-dashoffset: 0;}}@keyframes VsBPHsTJ_draw_52{33.56643356643357%{stroke-dashoffset: 59}72.02797202797203%{ stroke-dashoffset: 0;}100%{ stroke-dashoffset: 0;}}@keyframes VsBPHsTJ_draw_53{33.91608391608392%{stroke-dashoffset: 64}72.37762237762239%{ stroke-dashoffset: 0;}100%{ stroke-dashoffset: 0;}}@keyframes VsBPHsTJ_draw_54{34.265734265734274%{stroke-dashoffset: 148}72.72727272727273%{ stroke-dashoffset: 0;}100%{ stroke-dashoffset: 0;}}@keyframes VsBPHsTJ_draw_55{34.61538461538461%{stroke-dashoffset: 66}73.07692307692307%{ stroke-dashoffset: 0;}100%{ stroke-dashoffset: 0;}}</style></svg>