<svg id="Capa_1" data-name="Capa 1" xmlns="http://www.w3.org/2000/svg" viewBox="0 0 753.59 187.03" style=""><defs><style>.cls-1,.cls-2,.cls-3{fill:none;stroke-linecap:round;stroke-linejoin:round;}.cls-1,.cls-2{stroke:#000;}.cls-1,.cls-3{stroke-width:5px;}.cls-3{stroke:#fab968;}</style></defs><path class="cls-1 uSXbDUWy_0" d="M240.73,411.62h36.11a7.85,7.85,0,0,1,.84,0c1.75.17,2.16.64,2,2.39a6.29,6.29,0,0,1-.24,1.43,42.21,42.21,0,0,1-16.79,23.25,40.78,40.78,0,0,1-21.47,7.46A44.69,44.69,0,0,1,227.77,445,42.19,42.19,0,0,1,207,432.46,41.73,41.73,0,0,1,197,414.13a42.64,42.64,0,0,1-1.12-13.66,39.76,39.76,0,0,1,2.19-10.9,43.76,43.76,0,0,1,7.4-13A42.79,42.79,0,0,1,222.51,364,41.37,41.37,0,0,1,241.33,361a42,42,0,0,1,15.36,4,42.55,42.55,0,0,1,18.2,16.33" transform="translate(-23.35 -327.09)"></path><path class="cls-1 uSXbDUWy_1" d="M109.85,362.84q0,27.39,0,54.77a27.49,27.49,0,0,0,9,20.6,28.77,28.77,0,0,0,14,7.41,30.91,30.91,0,0,0,21-2.5,31.89,31.89,0,0,0,15.7-16.41,20.63,20.63,0,0,0,1.58-7.78c.28-18.69,0-37.39.12-56.09" transform="translate(-23.35 -327.09)"></path><path class="cls-2 uSXbDUWy_2" d="M710.14,487.6c-.1-.21-.11-.4-.47-.5a25.32,25.32,0,0,0-12.36-.91,12.66,12.66,0,0,0-10.23,10.88,15.51,15.51,0,0,0,1.46,9.71,12.52,12.52,0,0,0,9.85,6.59c4.64.66,9.07-.33,13.43-1.79a1.27,1.27,0,0,0,1-1.45c0-3.07,0-6.15,0-9.22v-1.2h-12" transform="translate(-23.35 -327.09)"></path><path class="cls-1 uSXbDUWy_3" d="M697.43,362.84v82.7" transform="translate(-23.35 -327.09)"></path><path class="cls-2 uSXbDUWy_4" d="M452.7,486.53v26.16c-.87-.14-1.1-.68-1.44-1.11q-8.38-10.86-16.79-21.7a11.8,11.8,0,0,0-2.75-3.15,2.09,2.09,0,0,0-.37,1.59v24.57" transform="translate(-23.35 -327.09)"></path><path class="cls-2 uSXbDUWy_5" d="M492.41,487.12a30.44,30.44,0,0,0-9.24-1.29c-3,.12-5.74.87-7.29,3.7s-1,6.75,2.6,8.06c2.79,1,5.72,1.39,8.53,2.23a9.7,9.7,0,0,1,5.31,3.1c1.47,1.85,1.13,5.91-.37,7.59-2.42,2.71-5.56,3.28-8.89,3.07a29.42,29.42,0,0,1-9.36-2.13" transform="translate(-23.35 -327.09)"></path><path class="cls-2 uSXbDUWy_6" d="M388.16,486.53c0,5.47,0,10.94,0,16.41-.05,7.46,5.66,11.23,12.12,10.56a10,10,0,0,0,8-4.92,11,11,0,0,0,1.31-5.76c0-5.39,0-10.78,0-16.17" transform="translate(-23.35 -327.09)"></path><path class="cls-2 uSXbDUWy_7" d="M324.22,487.6c-.08-.14.17-.39-.12-.47-4.13-1.12-8.34-1.9-12.58-.93-5,1.15-8.61,4-10,9.19-1.58,6,0,12.72,5.3,16a16,16,0,0,0,10.54,2.05,27.45,27.45,0,0,0,7.8-1.67" transform="translate(-23.35 -327.09)"></path><path class="cls-2 uSXbDUWy_8" d="M257.77,487.6c-.09-.14.17-.4-.13-.47-4.3-1.14-8.65-1.93-13.06-.82-5.46,1.37-9,4.86-9.91,10.41-.72,4.2-.21,8.32,2.58,11.86a12.86,12.86,0,0,0,8.76,4.81c4.33.59,8.47-.31,12.6-1.46" transform="translate(-23.35 -327.09)"></path><path class="cls-2 uSXbDUWy_9" d="M666.48,486.53v26.15a1.87,1.87,0,0,1-1.44-1q-5.76-7.49-11.52-15c-2.46-3.18-5-6.31-7.41-9.5-.2-.27-.47-.24-.63-.46a2,2,0,0,0-.36,1.56v24.57" transform="translate(-23.35 -327.09)"></path><path class="cls-3 uSXbDUWy_10" d="M378.57,412a63.92,63.92,0,0,0,8.78,23.92,64.61,64.61,0,0,0,14.71,16.82c1.37,1.09,3,2,3.74,3.69h2.52a7.55,7.55,0,0,1,2.16-2.5,64,64,0,0,0,10.31-9.84,66,66,0,0,0,11.41-19.77c1.51-4,2.4-8.17,3.69-12.23,2.27-7.15,5.69-13.59,11.3-18.69A28.83,28.83,0,0,1,464.94,386a34.39,34.39,0,0,1,8.52.55,33.89,33.89,0,0,1,17,8.31,30.78,30.78,0,0,1,7.22,9.44A35.87,35.87,0,0,1,501,417.62a37.12,37.12,0,0,1-.86,10.77,45.91,45.91,0,0,1-15,25.06,54.6,54.6,0,0,1-17.76,10.17A69.39,69.39,0,0,1,446,467.44a61.9,61.9,0,0,1-7.2-.15c-2.53-.23-5.06-.47-7.55-.92a63.66,63.66,0,0,1-16.41-5.43c-2.25-1.09-4.76-2-6.28-4.24-.37-.55-2.65-.34-3.09.23a8.84,8.84,0,0,1-2.66,2.14,65,65,0,0,1-13.07,5.52,70.33,70.33,0,0,1-17.63,2.84,57,57,0,0,1-8.16-.15c-2.21-.22-4.41-.41-6.6-.76A62.5,62.5,0,0,1,323,449.37a60,60,0,0,1-11.84-15.95A46.61,46.61,0,0,1,305.63,412" transform="translate(-23.35 -327.09)"></path><path class="cls-1 uSXbDUWy_11" d="M774.44,445.54H731.61a4.92,4.92,0,0,1-2.51-.49l-.72-.35a6.82,6.82,0,0,1,1.31-4.08q6.79-12,13.56-24.08,7.86-14,15.71-27.93c4.13-7.35,8.23-14.71,12.37-22a5.37,5.37,0,0,0,.71-2.89l0-.08a7.51,7.51,0,0,0-3.56-.77q-21.59,0-43.18,0" transform="translate(-23.35 -327.09)"></path><path class="cls-3 uSXbDUWy_12" d="M435.55,385.61a3.37,3.37,0,0,0,0-.71,66.8,66.8,0,0,0-22.42-39.68c-1.62-1.41-3.61-2.44-4.68-4.43l-2.64-.12a6.15,6.15,0,0,1-1.92,2.28,62.79,62.79,0,0,0-10.32,9.7,66.59,66.59,0,0,0-14,27.58,53.52,53.52,0,0,1-7.84,18.08,30.24,30.24,0,0,1-10.19,9.22,30.63,30.63,0,0,1-19.06,3.34,34.1,34.1,0,0,1-14.4-5.23,32.1,32.1,0,0,1-11.26-12c-3.78-7.23-4.37-14.95-3.24-22.88a43,43,0,0,1,5.4-15.22c4.7-8.26,11.59-14.26,19.9-18.69a59,59,0,0,1,12.84-4.93,69.67,69.67,0,0,1,15.59-2.24,63.84,63.84,0,0,1,8.52.16c2.25.24,4.49.5,6.72.88A64.17,64.17,0,0,1,402,337.57a8.47,8.47,0,0,1,3.24,2.27,1.87,1.87,0,0,0,1.69.87,2.3,2.3,0,0,0,2.27-1,4.4,4.4,0,0,1,1.69-1.43c2.46-1.33,5-2.54,7.54-3.64a66.74,66.74,0,0,1,22.69-4.94,68.25,68.25,0,0,1,9.48.13,80,80,0,0,1,10.79,1.62,59.79,59.79,0,0,1,17,6.64A61,61,0,0,1,494.12,351a62.64,62.64,0,0,1,8.58,12.38,48.1,48.1,0,0,1,5.79,22.27" transform="translate(-23.35 -327.09)"></path><path class="cls-1 uSXbDUWy_13" d="M592,447.7c-.84-.4-1.69-.78-2.52-1.21a5.78,5.78,0,0,1-2.43-2.25c-1.43-2.38-3-4.66-4.53-7q-9.16-13.9-18.34-27.81a5.08,5.08,0,0,1-1-3.23l-27.23-1h23.75c.24,0,.53-.09.71,0,1.93,1.07,3.84.3,5.77,0s3.85-.31,5.75-.65a32.2,32.2,0,0,0,5.76-1.53c6.13-2.29,10.48-6.26,12-12.82a24.69,24.69,0,0,0,.15-9.23,20.17,20.17,0,0,0-3.64-9.33,21.21,21.21,0,0,0-11.37-7.58,35.91,35.91,0,0,0-10.56-1.31c-8.72,0-17.44,0-26.15,0-2.45,0-2.88.42-2.88,2.87,0,12.22,0,24.45,0,36.67,0,1.15.85,2.14.49,3.23a10,10,0,0,0-.46,3.24q0,18.34,0,36.68" transform="translate(-23.35 -327.09)"></path><path class="cls-2 uSXbDUWy_14" d="M552.51,486.53v26.36h15c.39,0,.82-.14,1.2.11" transform="translate(-23.35 -327.09)"></path><path class="cls-2 uSXbDUWy_15" d="M587.66,486.65v26a2,2,0,0,0,1.44.29h13.68c.39,0,.82-.14,1.2.11" transform="translate(-23.35 -327.09)"></path><path class="cls-1 uSXbDUWy_16" d="M88,362.84c0,12.83.09,25.65-.09,38.47,0,2.13.06,4.24.06,6.36.06,12.62,0,25.24,0,37.87l-.09-41.23H26.6l-.72,41.23c0-12.63,0-28.61,0-41.23h0c0-12.82,0-28.64,0-41.47" transform="translate(-23.35 -327.09)"></path><path class="cls-1 uSXbDUWy_17" d="M667.2,362.84c-8.44,0-16.88,0-25.32,0-1.15,0-2.21.77-3.22.55a13.85,13.85,0,0,0-3.13-.53q-12.36,0-24.72,0l28.07.72v82" transform="translate(-23.35 -327.09)"></path><path class="cls-2 uSXbDUWy_18" d="M113.81,486.41c-1,2-2,4-3,6-2.11,4.5-4.17,9-6.25,13.54q-1.12,2.46-2.28,4.91a4.22,4.22,0,0,1-1.19,1.8,3.15,3.15,0,0,1-1.07-1.44q-4.65-9.93-9.25-19.89c-.74-1.59-1.52-3.16-2.28-4.73" transform="translate(-23.35 -327.09)"></path><path class="cls-2 uSXbDUWy_19" d="M214,486.53v26.36" transform="translate(-23.35 -327.09)"></path><path class="cls-2 uSXbDUWy_20" d="M622.93,486.65v26.12" transform="translate(-23.35 -327.09)"></path><path class="cls-2 uSXbDUWy_21" d="M149.8,486.52H134.92c-.39,0-.82-.16-1.23.21v26.15H149.8" transform="translate(-23.35 -327.09)"></path><path class="cls-2 uSXbDUWy_22" d="M149.2,499.71H133.84" transform="translate(-23.35 -327.09)"></path><path class="cls-2 uSXbDUWy_23" d="M531.64,486.53H514.45v26.36h17.19" transform="translate(-23.35 -327.09)"></path><path class="cls-2 uSXbDUWy_24" d="M530,499.71H514.6" transform="translate(-23.35 -327.09)"></path><path class="cls-2 uSXbDUWy_25" d="M353.49,485.81a17,17,0,0,0-5.26,1.33,12.58,12.58,0,0,0-7.12,9.93,17.18,17.18,0,0,0,.51,7.55,12.53,12.53,0,0,0,10.43,8.76,16,16,0,0,0,7.92-.73,12,12,0,0,0,8-9.11A15.38,15.38,0,0,0,367,493c-2.38-4.72-6.49-6.95-11.72-7.21-.55,0-1.12,0-1.68,0" transform="translate(-23.35 -327.09)"></path><path class="cls-2 uSXbDUWy_26" d="M178,486.17a28,28,0,0,1-4.2.11,11.57,11.57,0,0,0-2.25.25v26.6c1.65,0,3.27,0,4.89,0,2.52-.07,5,.15,7.57-.43a12.1,12.1,0,0,0,9.38-10.22c.44-3.42.37-6.75-1.26-9.82-2.11-4-5.69-5.86-10.05-6.35-1.31-.14-2.64-.09-4-.13Z" transform="translate(-23.35 -327.09)"></path><style data-made-with="vivus-instant">.uSXbDUWy_0{stroke-dasharray:275 277;stroke-dashoffset:276;animation:uSXbDUWy_draw_0 7200ms linear 0ms infinite,uSXbDUWy_fade 7200ms linear 0ms infinite;}.uSXbDUWy_1{stroke-dasharray:203 205;stroke-dashoffset:204;animation:uSXbDUWy_draw_1 7200ms linear 0ms infinite,uSXbDUWy_fade 7200ms linear 0ms infinite;}.uSXbDUWy_2{stroke-dasharray:90 92;stroke-dashoffset:91;animation:uSXbDUWy_draw_2 7200ms linear 0ms infinite,uSXbDUWy_fade 7200ms linear 0ms infinite;}.uSXbDUWy_3{stroke-dasharray:83 85;stroke-dashoffset:84;animation:uSXbDUWy_draw_3 7200ms linear 0ms infinite,uSXbDUWy_fade 7200ms linear 0ms infinite;}.uSXbDUWy_4{stroke-dasharray:86 88;stroke-dashoffset:87;animation:uSXbDUWy_draw_4 7200ms linear 0ms infinite,uSXbDUWy_fade 7200ms linear 0ms infinite;}.uSXbDUWy_5{stroke-dasharray:71 73;stroke-dashoffset:72;animation:uSXbDUWy_draw_5 7200ms linear 0ms infinite,uSXbDUWy_fade 7200ms linear 0ms infinite;}.uSXbDUWy_6{stroke-dasharray:67 69;stroke-dashoffset:68;animation:uSXbDUWy_draw_6 7200ms linear 0ms infinite,uSXbDUWy_fade 7200ms linear 0ms infinite;}.uSXbDUWy_7{stroke-dasharray:65 67;stroke-dashoffset:66;animation:uSXbDUWy_draw_7 7200ms linear 0ms infinite,uSXbDUWy_fade 7200ms linear 0ms infinite;}.uSXbDUWy_8{stroke-dasharray:65 67;stroke-dashoffset:66;animation:uSXbDUWy_draw_8 7200ms linear 0ms infinite,uSXbDUWy_fade 7200ms linear 0ms infinite;}.uSXbDUWy_9{stroke-dasharray:86 88;stroke-dashoffset:87;animation:uSXbDUWy_draw_9 7200ms linear 0ms infinite,uSXbDUWy_fade 7200ms linear 0ms infinite;}.uSXbDUWy_10{stroke-dasharray:463 465;stroke-dashoffset:464;animation:uSXbDUWy_draw_10 7200ms linear 0ms infinite,uSXbDUWy_fade 7200ms linear 0ms infinite;}.uSXbDUWy_11{stroke-dasharray:186 188;stroke-dashoffset:187;animation:uSXbDUWy_draw_11 7200ms linear 0ms infinite,uSXbDUWy_fade 7200ms linear 0ms infinite;}.uSXbDUWy_12{stroke-dasharray:464 466;stroke-dashoffset:465;animation:uSXbDUWy_draw_12 7200ms linear 0ms infinite,uSXbDUWy_fade 7200ms linear 0ms infinite;}.uSXbDUWy_13{stroke-dasharray:295 297;stroke-dashoffset:296;animation:uSXbDUWy_draw_13 7200ms linear 0ms infinite,uSXbDUWy_fade 7200ms linear 0ms infinite;}.uSXbDUWy_14{stroke-dasharray:43 45;stroke-dashoffset:44;animation:uSXbDUWy_draw_14 7200ms linear 0ms infinite,uSXbDUWy_fade 7200ms linear 0ms infinite;}.uSXbDUWy_15{stroke-dasharray:43 45;stroke-dashoffset:44;animation:uSXbDUWy_draw_15 7200ms linear 0ms infinite,uSXbDUWy_fade 7200ms linear 0ms infinite;}.uSXbDUWy_16{stroke-dasharray:310 312;stroke-dashoffset:311;animation:uSXbDUWy_draw_16 7200ms linear 0ms infinite,uSXbDUWy_fade 7200ms linear 0ms infinite;}.uSXbDUWy_17{stroke-dasharray:167 169;stroke-dashoffset:168;animation:uSXbDUWy_draw_17 7200ms linear 0ms infinite,uSXbDUWy_fade 7200ms linear 0ms infinite;}.uSXbDUWy_18{stroke-dasharray:59 61;stroke-dashoffset:60;animation:uSXbDUWy_draw_18 7200ms linear 0ms infinite,uSXbDUWy_fade 7200ms linear 0ms infinite;}.uSXbDUWy_19{stroke-dasharray:27 29;stroke-dashoffset:28;animation:uSXbDUWy_draw_19 7200ms linear 0ms infinite,uSXbDUWy_fade 7200ms linear 0ms infinite;}.uSXbDUWy_20{stroke-dasharray:27 29;stroke-dashoffset:28;animation:uSXbDUWy_draw_20 7200ms linear 0ms infinite,uSXbDUWy_fade 7200ms linear 0ms infinite;}.uSXbDUWy_21{stroke-dasharray:59 61;stroke-dashoffset:60;animation:uSXbDUWy_draw_21 7200ms linear 0ms infinite,uSXbDUWy_fade 7200ms linear 0ms infinite;}.uSXbDUWy_22{stroke-dasharray:16 18;stroke-dashoffset:17;animation:uSXbDUWy_draw_22 7200ms linear 0ms infinite,uSXbDUWy_fade 7200ms linear 0ms infinite;}.uSXbDUWy_23{stroke-dasharray:61 63;stroke-dashoffset:62;animation:uSXbDUWy_draw_23 7200ms linear 0ms infinite,uSXbDUWy_fade 7200ms linear 0ms infinite;}.uSXbDUWy_24{stroke-dasharray:16 18;stroke-dashoffset:17;animation:uSXbDUWy_draw_24 7200ms linear 0ms infinite,uSXbDUWy_fade 7200ms linear 0ms infinite;}.uSXbDUWy_25{stroke-dasharray:88 90;stroke-dashoffset:89;animation:uSXbDUWy_draw_25 7200ms linear 0ms infinite,uSXbDUWy_fade 7200ms linear 0ms infinite;}.uSXbDUWy_26{stroke-dasharray:87 89;stroke-dashoffset:88;animation:uSXbDUWy_draw_26 7200ms linear 0ms infinite,uSXbDUWy_fade 7200ms linear 0ms infinite;}@keyframes uSXbDUWy_draw{100%{stroke-dashoffset:0;}}@keyframes uSXbDUWy_fade{0%{stroke-opacity:1;}94.44444444444444%{stroke-opacity:1;}100%{stroke-opacity:0;}}@keyframes uSXbDUWy_draw_0{11.11111111111111%{stroke-dashoffset: 276}38.88888888888889%{ stroke-dashoffset: 0;}100%{ stroke-dashoffset: 0;}}@keyframes uSXbDUWy_draw_1{11.645299145299145%{stroke-dashoffset: 204}39.42307692307692%{ stroke-dashoffset: 0;}100%{ stroke-dashoffset: 0;}}@keyframes uSXbDUWy_draw_2{12.179487179487179%{stroke-dashoffset: 91}39.95726495726496%{ stroke-dashoffset: 0;}100%{ stroke-dashoffset: 0;}}@keyframes uSXbDUWy_draw_3{12.713675213675213%{stroke-dashoffset: 84}40.491452991452995%{ stroke-dashoffset: 0;}100%{ stroke-dashoffset: 0;}}@keyframes uSXbDUWy_draw_4{13.247863247863249%{stroke-dashoffset: 87}41.02564102564102%{ stroke-dashoffset: 0;}100%{ stroke-dashoffset: 0;}}@keyframes uSXbDUWy_draw_5{13.782051282051281%{stroke-dashoffset: 72}41.55982905982906%{ stroke-dashoffset: 0;}100%{ stroke-dashoffset: 0;}}@keyframes uSXbDUWy_draw_6{14.316239316239315%{stroke-dashoffset: 68}42.09401709401709%{ stroke-dashoffset: 0;}100%{ stroke-dashoffset: 0;}}@keyframes uSXbDUWy_draw_7{14.850427350427351%{stroke-dashoffset: 66}42.62820512820513%{ stroke-dashoffset: 0;}100%{ stroke-dashoffset: 0;}}@keyframes uSXbDUWy_draw_8{15.384615384615383%{stroke-dashoffset: 66}43.16239316239316%{ stroke-dashoffset: 0;}100%{ stroke-dashoffset: 0;}}@keyframes uSXbDUWy_draw_9{15.91880341880342%{stroke-dashoffset: 87}43.6965811965812%{ stroke-dashoffset: 0;}100%{ stroke-dashoffset: 0;}}@keyframes uSXbDUWy_draw_10{16.45299145299145%{stroke-dashoffset: 464}44.23076923076923%{ stroke-dashoffset: 0;}100%{ stroke-dashoffset: 0;}}@keyframes uSXbDUWy_draw_11{16.98717948717949%{stroke-dashoffset: 187}44.76495726495726%{ stroke-dashoffset: 0;}100%{ stroke-dashoffset: 0;}}@keyframes uSXbDUWy_draw_12{17.52136752136752%{stroke-dashoffset: 465}45.2991452991453%{ stroke-dashoffset: 0;}100%{ stroke-dashoffset: 0;}}@keyframes uSXbDUWy_draw_13{18.055555555555554%{stroke-dashoffset: 296}45.83333333333333%{ stroke-dashoffset: 0;}100%{ stroke-dashoffset: 0;}}@keyframes uSXbDUWy_draw_14{18.58974358974359%{stroke-dashoffset: 44}46.36752136752137%{ stroke-dashoffset: 0;}100%{ stroke-dashoffset: 0;}}@keyframes uSXbDUWy_draw_15{19.12393162393162%{stroke-dashoffset: 44}46.901709401709404%{ stroke-dashoffset: 0;}100%{ stroke-dashoffset: 0;}}@keyframes uSXbDUWy_draw_16{19.658119658119656%{stroke-dashoffset: 311}47.43589743589743%{ stroke-dashoffset: 0;}100%{ stroke-dashoffset: 0;}}@keyframes uSXbDUWy_draw_17{20.192307692307693%{stroke-dashoffset: 168}47.97008547008547%{ stroke-dashoffset: 0;}100%{ stroke-dashoffset: 0;}}@keyframes uSXbDUWy_draw_18{20.726495726495727%{stroke-dashoffset: 60}48.504273504273506%{ stroke-dashoffset: 0;}100%{ stroke-dashoffset: 0;}}@keyframes uSXbDUWy_draw_19{21.26068376068376%{stroke-dashoffset: 28}49.03846153846153%{ stroke-dashoffset: 0;}100%{ stroke-dashoffset: 0;}}@keyframes uSXbDUWy_draw_20{21.794871794871792%{stroke-dashoffset: 28}49.57264957264957%{ stroke-dashoffset: 0;}100%{ stroke-dashoffset: 0;}}@keyframes uSXbDUWy_draw_21{22.329059829059826%{stroke-dashoffset: 60}50.10683760683761%{ stroke-dashoffset: 0;}100%{ stroke-dashoffset: 0;}}@keyframes uSXbDUWy_draw_22{22.863247863247864%{stroke-dashoffset: 17}50.641025641025635%{ stroke-dashoffset: 0;}100%{ stroke-dashoffset: 0;}}@keyframes uSXbDUWy_draw_23{23.397435897435898%{stroke-dashoffset: 62}51.17521367521368%{ stroke-dashoffset: 0;}100%{ stroke-dashoffset: 0;}}@keyframes uSXbDUWy_draw_24{23.931623931623932%{stroke-dashoffset: 17}51.7094017094017%{ stroke-dashoffset: 0;}100%{ stroke-dashoffset: 0;}}@keyframes uSXbDUWy_draw_25{24.465811965811966%{stroke-dashoffset: 89}52.243589743589745%{ stroke-dashoffset: 0;}100%{ stroke-dashoffset: 0;}}@keyframes uSXbDUWy_draw_26{25%{stroke-dashoffset: 88}52.77777777777778%{ stroke-dashoffset: 0;}100%{ stroke-dashoffset: 0;}}</style></svg>