<svg id="Capa_1" data-name="Capa 1" xmlns="http://www.w3.org/2000/svg" viewBox="0 0 333.58 396.73" style=""><defs><style>.cls-1{fill:none;stroke:#000;stroke-linecap:round;stroke-linejoin:round;stroke-width:4px;}</style></defs><path class="cls-1 fWcJQByJ_0" d="M286,605.21c4.58,0,8.89-1.38,13.23-2.53,12.3-3.27,24.56-6.67,36.84-10,12.51-3.37,25-6.68,37.55-10,19.2-5.13,38.4-10.21,57.57-15.41,4.3-1.17,8.42-2.73,11.49-6.38,4.88-5.81,4.65-12.21,2.84-19-3.51-13.1-7.34-26.13-10.3-39.35-5.38-24.08-1-46.75,11.38-67.92A149.07,149.07,0,0,0,464,388.11,133.85,133.85,0,0,0,466,371c.28-4.06.69-8.1.57-12.17-.75-25-6.55-48.62-19-70.44-19.75-34.75-48.95-58-86.92-70a126.46,126.46,0,0,0-38.23-5.89c-11.29,0-22.53.24-33.61,2.58a152.17,152.17,0,0,0-45.8,17.46,145,145,0,0,0-34.27,27.62C191.84,278.77,180,300.2,174,324.82a153.87,153.87,0,0,0-4.26,33.62,8.86,8.86,0,0,1-.71,3.21Q158.35,386.36,147.6,411c-3,7-5.62,14.24-9,21.05-4.17,8.3.71,16.82,7.23,20.11,6,3.05,11.85,6.57,17.92,9.56,4.34,2.14,6.29,4.9,6.19,10.08-.34,18.47-.18,36.95-.12,55.43.05,16.19,14.43,29.86,29.67,30.14,17.88.33,35.76.11,53.64.22,5.55,0,6.2.35,7.84,6.12,2.74,9.63,5.2,19.33,7.92,28.95a17.1,17.1,0,0,0,16.79,12.53" transform="translate(-135.01 -210.48)"></path><path class="cls-1 fWcJQByJ_1" d="M317.47,310.17c-4.11-1.37-6.44-5-9.59-7.6-18.38-15-46-14-63.39,2.57a47.59,47.59,0,0,0-15.27,37.21,45.92,45.92,0,0,0,10.63,28.27,183.55,183.55,0,0,0,12.89,13.57q29.67,29.7,59.36,59.37c4.8,4.81,5.46,5.16,10.7,0q34.09-33.86,68-67.93c9.56-9.57,15-21.2,14.89-34.68-.19-17.4-7.43-31.43-22.37-41.15A48,48,0,0,0,327.87,302c-3.69,2.79-6.95,6.15-10.4,9.25" transform="translate(-135.01 -210.48)"></path><style data-made-with="vivus-instant">.fWcJQByJ_0{stroke-dasharray:1193 1195;stroke-dashoffset:1194;animation:fWcJQByJ_draw_0 5200ms linear 0ms infinite,fWcJQByJ_fade 5200ms linear 0ms infinite;}.fWcJQByJ_1{stroke-dasharray:527 529;stroke-dashoffset:528;animation:fWcJQByJ_draw_1 5200ms linear 0ms infinite,fWcJQByJ_fade 5200ms linear 0ms infinite;}@keyframes fWcJQByJ_draw{100%{stroke-dashoffset:0;}}@keyframes fWcJQByJ_fade{0%{stroke-opacity:1;}92.3076923076923%{stroke-opacity:1;}100%{stroke-opacity:0;}}@keyframes fWcJQByJ_draw_0{15.384615384615385%{stroke-dashoffset: 1194}73.07692307692307%{ stroke-dashoffset: 0;}100%{ stroke-dashoffset: 0;}}@keyframes fWcJQByJ_draw_1{15.384615384615385%{stroke-dashoffset: 528}73.07692307692307%{ stroke-dashoffset: 0;}100%{ stroke-dashoffset: 0;}}</style></svg>