<!--?xml version="1.0" encoding="utf-8"?-->
<!-- Generator: Adobe Illustrator 26.0.0, SVG Export Plug-In . SVG Version: 6.00 Build 0)  -->
<svg version="1.1" id="freepik_stories-music" xmlns:svgjs="http://svgjs.com/svgjs" xmlns="http://www.w3.org/2000/svg" xmlns:xlink="http://www.w3.org/1999/xlink" x="0px" y="0px" viewBox="0 0 500 500" style="" xml:space="preserve">
<style type="text/css">
	.st0{display:none;}
	.st1{display:inline;fill:#92E3A9;}
	.st2{display:inline;}
	.st3{opacity:0.7;fill:#FFFFFF;enable-background:new    ;}
	.st4{fill:none;stroke:#263238;stroke-miterlimit:10;}
	.st5{fill:#263238;}
	.st6{fill:#FFFFFF;}
	.st7{fill:#D9D9D9;}
	.st8{fill:#92E3A9;}	
</style>
<g id="freepik--background-simple--inject-2" class="st0">
	<path id="elgtjib0sayg" class="st1 wwikMrsc_0" d="M248.3,73c0,0-65.4,3.3-107.6,58.7s-43.4,131-45.9,192.2s33.3,107.6,85.9,113.7
		s66.8-40.9,125.8-67.4s78.7-24.6,114-78.9s10.6-137.9-53.4-180.7S248.3,73,248.3,73z"></path>
	<g id="el9zh7euxh05s" class="st2">
		<path class="st3 wwikMrsc_1" d="M248.3,73c0,0-65.4,3.3-107.6,58.7s-43.4,131-45.9,192.2s33.3,107.6,85.9,113.7s66.8-40.9,125.8-67.4
			s78.7-24.6,114-78.9s10.6-137.9-53.4-180.7S248.3,73,248.3,73z"></path>
	</g>
</g>
<g id="freepik--Icons--inject-2">
	<path id="el7pibuiwqnok" class="st4 wwikMrsc_2" d="M145.4,296.3c-2.9,0-5.2-2.3-5.2-5.2v-58.3c0-2.5-2-4.5-4.5-4.5c-2.5,0-4.5,2-4.5,4.5v43.5
		c-0.1,2.6-2.3,4.5-4.9,4.4c-2.4-0.1-4.3-2-4.4-4.4v-24c0.1-1.8-1.3-3.4-3.2-3.5c-1.8-0.1-3.4,1.3-3.5,3.2c0,0.1,0,0.2,0,0.4v8.9
		h-7.4v-1h6.4v-7.9c-0.1-2.4,1.7-4.4,4.1-4.6c2.4-0.1,4.4,1.7,4.6,4.1c0,0.1,0,0.3,0,0.4v24c0.1,2,1.8,3.6,3.8,3.5
		c1.9-0.1,3.4-1.6,3.5-3.5v-43.5c0-3.1,2.5-5.5,5.5-5.5c3.1,0,5.5,2.5,5.5,5.5v58.3c-0.1,2.3,1.7,4.3,4,4.4c2.3,0.1,4.3-1.7,4.4-4
		c0-0.1,0-0.3,0-0.4V220c-0.1-3.7,2.7-6.8,6.5-7c3.7-0.1,6.8,2.7,7,6.5c0,0.2,0,0.3,0,0.5v70.8c0,2.5,2,4.5,4.5,4.5
		c2.5,0,4.5-2,4.5-4.5v-56.4c0-3.5,2.9-6.4,6.4-6.4s6.4,2.9,6.4,6.4c0,0,0,0,0,0V276c0,2.2,1.8,3.9,3.9,3.9s3.9-1.8,3.9-3.9v-22.7
		c0.1-2.6,2.3-4.6,5-4.5c2.4,0.1,4.4,2.1,4.5,4.5v6.9h7.4v1h-8.4v-7.9c-0.1-2.1-1.9-3.6-3.9-3.5c-1.9,0.1-3.4,1.6-3.5,3.5V276
		c0,2.7-2.2,4.9-4.9,4.9s-4.9-2.2-4.9-4.9v-41.6c0-3-2.4-5.4-5.4-5.4s-5.4,2.4-5.4,5.4c0,0,0,0,0,0v56.4c0,3.1-2.5,5.5-5.5,5.5
		c-3.1,0-5.5-2.5-5.5-5.5V220c0.1-3.2-2.3-5.8-5.5-6s-5.8,2.3-6,5.5c0,0.2,0,0.3,0,0.5v71.1C150.6,294,148.3,296.3,145.4,296.3z"></path>
	<path id="elkharpfkem3" class="st4 wwikMrsc_3" d="M241.9,296.3c-2.9,0-5.2-2.3-5.2-5.2v-58.3c0-2.5-2-4.5-4.5-4.5c-2.5,0-4.5,2-4.5,4.5v43.5
		c-0.1,2.6-2.3,4.5-4.9,4.4c-2.4-0.1-4.3-2-4.4-4.4v-24c0.1-1.8-1.3-3.4-3.2-3.5s-3.4,1.3-3.5,3.2c0,0.1,0,0.2,0,0.4v8.9h-7.4v-1
		h6.4v-7.9c-0.1-2.4,1.7-4.4,4.1-4.6s4.4,1.7,4.6,4.1c0,0.1,0,0.3,0,0.4v24c0.1,2,1.8,3.6,3.8,3.5c1.9-0.1,3.4-1.6,3.5-3.5v-43.5
		c0-3.1,2.5-5.5,5.5-5.5c3.1,0,5.5,2.5,5.5,5.5v58.3c-0.1,2.3,1.7,4.3,4,4.4c2.3,0.1,4.3-1.7,4.4-4c0-0.1,0-0.3,0-0.4V220
		c-0.1-3.7,2.7-6.8,6.5-7s6.8,2.7,7,6.5c0,0.2,0,0.3,0,0.5v70.8c0,2.5,2,4.5,4.5,4.5c2.5,0,4.5-2,4.5-4.5c0,0,0,0,0,0v-56.4
		c0-3.5,2.9-6.4,6.4-6.4c3.5,0,6.4,2.9,6.4,6.4V276c0,2.2,1.8,3.9,3.9,3.9s3.9-1.8,3.9-3.9v-22.7c0-2.6,2.1-4.7,4.7-4.7
		c2.6,0,4.7,2.1,4.7,4.7v6.9h7.4v1h-8.4v-7.9c0-2.1-1.7-3.7-3.7-3.7c-2.1,0-3.7,1.7-3.7,3.7V276c0,2.7-2.2,4.9-4.9,4.9
		s-4.9-2.2-4.9-4.9v-41.6c0-3-2.4-5.4-5.4-5.4c-3,0-5.4,2.4-5.4,5.4v56.4c0,3.1-2.5,5.5-5.5,5.5c-3.1,0-5.5-2.5-5.5-5.5V220
		c0.1-3.2-2.3-5.8-5.5-6s-5.8,2.3-6,5.5c0,0.2,0,0.3,0,0.5v71.1C247.1,294,244.8,296.3,241.9,296.3z"></path>
	<path id="elgffi2qtyu7j" class="st4 wwikMrsc_4" d="M338.4,296.3c-2.9,0-5.2-2.3-5.2-5.2v-58.3c0-2.5-2-4.5-4.5-4.5c-2.5,0-4.5,2-4.5,4.5
		c0,0,0,0,0,0v43.5c-0.1,2.6-2.3,4.5-4.9,4.4c-2.4-0.1-4.3-2-4.4-4.4v-24c0.1-1.8-1.3-3.4-3.2-3.5c-1.8-0.1-3.4,1.3-3.5,3.2
		c0,0.1,0,0.2,0,0.4v8.9h-7.4v-1h6.4v-7.9c-0.1-2.4,1.7-4.4,4.1-4.6c2.4-0.1,4.4,1.7,4.6,4.1c0,0.1,0,0.3,0,0.4v24
		c0.1,2,1.8,3.6,3.8,3.5c1.9-0.1,3.4-1.6,3.5-3.5v-43.5c0-3.1,2.5-5.5,5.5-5.5c3.1,0,5.5,2.5,5.5,5.5c0,0,0,0,0,0v58.3
		c-0.1,2.3,1.7,4.3,4,4.4s4.3-1.7,4.4-4c0-0.1,0-0.3,0-0.4V220c-0.1-3.7,2.7-6.8,6.5-7c3.7-0.1,6.8,2.7,7,6.5c0,0.2,0,0.3,0,0.5
		v70.8c0,2.5,2,4.5,4.5,4.5c2.5,0,4.5-2,4.5-4.5c0,0,0,0,0,0v-56.4c0-3.5,2.9-6.4,6.4-6.4c3.5,0,6.4,2.9,6.4,6.4V276
		c0,2.2,1.8,3.9,3.9,3.9s3.9-1.8,3.9-3.9v-22.7c0-2.6,2.1-4.7,4.7-4.7c2.6,0,4.7,2.1,4.7,4.7v6.9h7.4v1h-8.4v-7.9
		c0-2.1-1.7-3.7-3.7-3.7c-2.1,0-3.7,1.7-3.7,3.7V276c0,2.7-2.2,4.9-4.9,4.9s-4.9-2.2-4.9-4.9v-41.6c0-3-2.4-5.4-5.4-5.4
		c-3,0-5.4,2.4-5.4,5.4v56.4c0,3.1-2.5,5.5-5.5,5.5c-3.1,0-5.5-2.5-5.5-5.5c0,0,0,0,0,0V220c0.1-3.2-2.3-5.8-5.5-6s-5.8,2.3-6,5.5
		c0,0.2,0,0.3,0,0.5v71.1C343.6,294,341.3,296.3,338.4,296.3z"></path>
	<path id="el1slxf8y1mnc" class="st4 wwikMrsc_5" d="M252.2,106.6L252.2,97.3L244.2,101.9Z"></path>
	<path id="eljp298x4y9q7" class="st4 wwikMrsc_6" width="1.5" height="9.5" d="M241.5 97.1 L243 97.1 L243 106.6 L241.5 106.6 Z"></path>
	<path id="elrj3tdoowgmn" class="st4 wwikMrsc_7" d="M294.7,106.6L302.7,101.9L294.7,97.3Z"></path>
	<path id="eljhvoiftayzh" class="st4 wwikMrsc_8" width="1.5" height="9.5" d="M303.9 97.1 L305.4 97.1 L305.4 106.6 L303.9 106.6 Z"></path>
	<path id="el4eihrrmp6yk" class="st4 wwikMrsc_9" d="M273.9,88.5c-6.8,0-12.3,5.5-12.3,12.3s5.5,12.3,12.3,12.3c6.8,0,12.3-5.5,12.3-12.3l0,0
		C286.2,94,280.7,88.5,273.9,88.5z M272.2,107.3h-3.7v-13h3.7V107.3z M279.3,107.3h-3.7v-13h3.7V107.3z"></path>
	<path id="elnp9kho3hu" class="st4 wwikMrsc_10" width="11.6" height="4.2" d="M316.9 404.8 L328.5 404.8 L328.5 409 L316.9 409 Z"></path>
	<path id="elead50y18gw" class="st4 wwikMrsc_11" width="11.6" height="4.2" d="M316.9 398.8 L328.5 398.8 L328.5 403 L316.9 403 Z"></path>
	<path id="elnlb1qmcdkdm" class="st4 wwikMrsc_12" width="11.6" height="4.2" d="M316.9 392.8 L328.5 392.8 L328.5 397 L316.9 397 Z"></path>
	<path id="el95v5oco5hw6" class="st4 wwikMrsc_13" width="11.6" height="4.2" d="M316.9 386.8 L328.5 386.8 L328.5 391 L316.9 391 Z"></path>
	<path id="elo7llp8h8mr" class="st4 wwikMrsc_14" width="11.6" height="4.2" d="M347.1 404.8 L358.70000000000005 404.8 L358.70000000000005 409 L347.1 409 Z"></path>
	<path id="el8i234xwtzw" class="st4 wwikMrsc_15" width="11.6" height="4.2" d="M347.1 398.8 L358.70000000000005 398.8 L358.70000000000005 403 L347.1 403 Z"></path>
	<path id="elyau2o6q4izb" class="st4 wwikMrsc_16" width="11.6" height="4.2" d="M286.8 404.8 L298.40000000000003 404.8 L298.40000000000003 409 L286.8 409 Z"></path>
	<path id="elhx5ze973qkl" class="st4 wwikMrsc_17" width="11.6" height="4.2" d="M286.8 398.8 L298.40000000000003 398.8 L298.40000000000003 403 L286.8 403 Z"></path>
	<path id="elr8b5luuskd" class="st4 wwikMrsc_18" width="11.6" height="4.2" d="M301.9 404.8 L313.5 404.8 L313.5 409 L301.9 409 Z"></path>
	<path id="elzz2s3o5mm" class="st4 wwikMrsc_19" width="11.6" height="4.2" d="M301.9 398.8 L313.5 398.8 L313.5 403 L301.9 403 Z"></path>
	<path id="elul5kkj8p1u" class="st4 wwikMrsc_20" width="11.6" height="4.2" d="M301.9 392.8 L313.5 392.8 L313.5 397 L301.9 397 Z"></path>
	<path id="elht2njmivm1n" class="st4 wwikMrsc_21" width="11.6" height="4.2" d="M301.9 386.8 L313.5 386.8 L313.5 391 L301.9 391 Z"></path>
	<path id="eltc56aec4cm" class="st4 wwikMrsc_22" width="11.6" height="4.2" d="M301.9 380.8 L313.5 380.8 L313.5 385 L301.9 385 Z"></path>
	<path id="el9tnvqsckqsd" class="st4 wwikMrsc_23" width="11.6" height="4.2" d="M301.9 374.8 L313.5 374.8 L313.5 379 L301.9 379 Z"></path>
	<path id="el4mh937rcwvk" class="st4 wwikMrsc_24" width="11.6" height="4.2" d="M301.9 368.8 L313.5 368.8 L313.5 373 L301.9 373 Z"></path>
	<path id="el86nul9nn0k8" class="st4 wwikMrsc_25" width="11.6" height="4.2" d="M332 404.8 L343.6 404.8 L343.6 409 L332 409 Z"></path>
	<path id="el0y77evmv0psb" class="st4 wwikMrsc_26" width="11.6" height="4.2" d="M332 398.8 L343.6 398.8 L343.6 403 L332 403 Z"></path>
	<path id="el21eabq6dua7" class="st4 wwikMrsc_27" width="11.6" height="4.2" d="M332 392.8 L343.6 392.8 L343.6 397 L332 397 Z"></path>
	<path id="elcys7z6oizy9" class="st4 wwikMrsc_28" width="11.6" height="4.2" d="M332 386.8 L343.6 386.8 L343.6 391 L332 391 Z"></path>
	<path id="elvik9d13m6bo" class="st4 wwikMrsc_29" width="11.6" height="4.2" d="M332 380.8 L343.6 380.8 L343.6 385 L332 385 Z"></path>
	<path id="el73n6skcz59a" class="st4 wwikMrsc_30" width="11.6" height="4.2" d="M332 374.8 L343.6 374.8 L343.6 379 L332 379 Z"></path>
	<path id="elu6rgk08patp" class="st4 wwikMrsc_31" d="M85.3,182.3c-0.8,0-1.5-0.7-1.5-1.5v-13.6c0-0.8,0.7-1.5,1.5-1.5s1.5,0.7,1.5,1.5v13.6
		C86.8,181.6,86.1,182.3,85.3,182.3z"></path>
	<path id="elt5qrvh0xfb" class="st4 wwikMrsc_32" d="M80.4,180.5c-0.8,0-1.5-0.7-1.5-1.5v-10c0-0.8,0.7-1.5,1.5-1.5s1.5,0.7,1.5,1.5v10
		C81.9,179.8,81.2,180.5,80.4,180.5C80.4,180.5,80.4,180.5,80.4,180.5z"></path>
	<path id="elpgxo1ms0kt" class="st4 wwikMrsc_33" d="M75.5,180.5c-0.8,0-1.5-0.7-1.5-1.5v-10c0-0.8,0.7-1.5,1.5-1.5s1.5,0.7,1.5,1.5v10
		C77,179.8,76.3,180.5,75.5,180.5C75.5,180.5,75.5,180.5,75.5,180.5z"></path>
	<path id="elyljmcw5mw8" class="st4 wwikMrsc_34" d="M134.4,180.5c-0.8,0-1.5-0.7-1.5-1.5v-10c0-0.8,0.7-1.5,1.5-1.5s1.5,0.7,1.5,1.5v10
		C135.9,179.8,135.2,180.5,134.4,180.5C134.4,180.5,134.4,180.5,134.4,180.5z"></path>
	<path id="elni4wedpf3e" class="st4 wwikMrsc_35" d="M129.5,180.5c-0.8,0-1.5-0.7-1.5-1.5v-10c0-0.8,0.7-1.5,1.5-1.5s1.5,0.7,1.5,1.5v10
		C131,179.8,130.3,180.5,129.5,180.5C129.5,180.5,129.5,180.5,129.5,180.5z"></path>
	<path id="elbigbmab8fk" class="st4 wwikMrsc_36" d="M90.2,182.3c-0.8,0-1.5-0.7-1.5-1.5v-13.6c0-0.8,0.7-1.5,1.5-1.5s1.5,0.7,1.5,1.5v13.6
		C91.7,181.6,91,182.3,90.2,182.3z"></path>
	<path id="el9elpvxa2zpr" class="st4 wwikMrsc_37" d="M95.1,184.7c-0.8,0-1.5-0.7-1.5-1.5v-18.3c0-0.8,0.7-1.5,1.5-1.5s1.5,0.7,1.5,1.5v18.3
		C96.6,184,95.9,184.7,95.1,184.7z"></path>
	<path id="el28w99qljelo" class="st4 wwikMrsc_38" d="M100,188.4c-0.8,0-1.5-0.7-1.5-1.5v-25.8c0-0.8,0.7-1.5,1.5-1.5s1.5,0.7,1.5,1.5v25.8
		C101.5,187.8,100.8,188.4,100,188.4z"></path>
	<path id="el1pr04258ggvj" class="st4 wwikMrsc_39" d="M124.6,182.3c-0.8,0-1.5-0.7-1.5-1.5v-13.6c0-0.8,0.7-1.5,1.5-1.5s1.5,0.7,1.5,1.5v13.6
		C126.1,181.6,125.4,182.3,124.6,182.3z"></path>
	<path id="elv1fi5kicnch" class="st4 wwikMrsc_40" d="M119.7,182.3c-0.8,0-1.5-0.7-1.5-1.5v-13.6c0-0.8,0.7-1.5,1.5-1.5s1.5,0.7,1.5,1.5v13.6
		C121.2,181.6,120.5,182.3,119.7,182.3z"></path>
	<path id="elohl3xsobyb" class="st4 wwikMrsc_41" d="M114.7,184.7c-0.8,0-1.5-0.7-1.5-1.5v-18.3c0-0.8,0.7-1.5,1.5-1.5s1.5,0.7,1.5,1.5v18.3
		C116.2,184,115.6,184.7,114.7,184.7z"></path>
	<path id="elv77ukrbhf1l" class="st4 wwikMrsc_42" d="M109.8,188.4c-0.8,0-1.5-0.7-1.5-1.5v-25.8c0-0.8,0.7-1.5,1.5-1.5s1.5,0.7,1.5,1.5v25.8
		C111.3,187.8,110.7,188.4,109.8,188.4z"></path>
	<path id="el2nlr0u3reec" class="st4 wwikMrsc_43" d="M104.9,193.2c-0.8,0-1.5-0.7-1.5-1.5v-35.4c0-0.8,0.7-1.5,1.5-1.5s1.5,0.7,1.5,1.5v35.4
		C106.4,192.5,105.7,193.2,104.9,193.2z"></path>
	<path id="elwwptypuamdb" class="st4 wwikMrsc_44" d="M404.8,169.3c-1.5-6.5-8-10.5-14.5-9c-4.5,1.1-8,4.6-9,9.1c-6.6,0.9-11.2,7-10.4,13.6
		c0.8,5.7,5.4,10,11.1,10.4l0.2-2.4c-5.3-0.5-9.2-5.2-8.7-10.5c0.4-4.7,4.2-8.4,8.9-8.7l1-0.1l0.1-1c0.7-5.3,5.6-9,10.9-8.2
		c4.3,0.6,7.6,4,8.2,8.2l0.2,1.2l1.2-0.1c0.4,0,0.7-0.1,1.1-0.1c5.3,0,9.6,4.3,9.6,9.7s-4.3,9.6-9.7,9.6v2.4c6.7-0.1,12-5.5,12-12.2
		S411.5,169.2,404.8,169.3z"></path>
	<path id="el72hfy1ge0e5" class="st4 wwikMrsc_45" d="M400.8,179c0-0.4-0.2-0.8-0.5-1c-0.3-0.2-0.7-0.3-1.1-0.2l-12.8,3.8
		c-0.5,0.2-0.9,0.6-0.9,1.2v14.7c-0.4-0.2-0.9-0.3-1.4-0.3c-2.1,0-3.8,1.7-3.8,3.8s1.7,3.8,3.8,3.8c2,0,3.6-1.5,3.8-3.5h0.1v-11.2
		l10.4-3.1v6.5c-0.4-0.2-0.9-0.3-1.3-0.3c-2.1,0-3.8,1.7-3.8,3.8s1.7,3.8,3.8,3.8c2.1,0,3.8-1.7,3.8-3.8l0,0L400.8,179L400.8,179z
		 M398.4,184.5l-10.4,3.1v-3.9l10.4-3.1L398.4,184.5z"></path>
	<path id="el5lty0tsg9ec" class="st4 wwikMrsc_46" d="M140.1,351.8c-8.8,0-16,7.2-16,16s7.2,16,16,16s16-7.2,16-16S148.9,351.8,140.1,351.8z
		 M140.1,373.7c-3.2,0-5.8-2.6-5.8-5.8c0-3.2,2.6-5.8,5.8-5.8c3.2,0,5.8,2.6,5.8,5.8l0,0C145.9,371.1,143.3,373.7,140.1,373.7
		L140.1,373.7L140.1,373.7z"></path>
	<path id="elgeub1i9lx9q" class="st4 wwikMrsc_47" d="M140.1,326.6c-5.5,0-9.9,4.4-9.9,9.9c0,5.5,4.4,9.9,9.9,9.9s9.9-4.4,9.9-9.9
		C150,331,145.6,326.6,140.1,326.6C140.1,326.6,140.1,326.6,140.1,326.6z M140.1,340c-2,0-3.6-1.6-3.6-3.6s1.6-3.6,3.6-3.6
		s3.6,1.6,3.6,3.6c0,0,0,0,0,0C143.7,338.5,142.1,340,140.1,340L140.1,340z"></path>
	<path id="elx2zafdpjiwb" class="st4 wwikMrsc_48" d="M156.7,389h-33.3c-2.5,0-4.4-2-4.4-4.4v-59.1c0-2.5,2-4.4,4.4-4.4h33.3
		c2.5,0,4.4,2,4.4,4.4l0,0v59.1C161.2,387.1,159.2,389,156.7,389L156.7,389z M123.4,322c-1.9,0-3.4,1.5-3.4,3.4v59.1
		c0,1.9,1.5,3.4,3.4,3.4h33.3c1.9,0,3.4-1.5,3.4-3.4v-59.2c0-1.9-1.5-3.4-3.4-3.4L123.4,322z"></path>
</g>
<g id="freepik--Character--inject-2">
	<path id="elvdg3e8noxo" class="st5 wwikMrsc_49" d="M228.3,151.7c0-1.4,1.9-2.9,1.7-4.2s-2.4-2.3-2.8-3.6s1.1-3.3,0.6-4.5s-2.9-1.6-3.6-2.8
		s0.2-3.4-0.6-4.5s-3.2-0.8-4.2-1.8s-0.7-3.4-1.8-4.2s-3.3,0.1-4.5-0.6s-1.5-3.1-2.8-3.6s-3.2,0.9-4.5,0.6s-2.3-2.6-3.6-2.8
		s-2.8,1.7-4.2,1.7s-2.9-1.9-4.2-1.7s-2.3,2.4-3.6,2.8s-3.3-1.1-4.5-0.6s-1.6,2.9-2.8,3.6s-3.4-0.2-4.5,0.6s-0.8,3.2-1.8,4.2
		s-3.4,0.7-4.2,1.8s0.1,3.3-0.6,4.5s-3.1,1.5-3.6,2.8s0.9,3.2,0.6,4.5s-2.6,2.3-2.8,3.6s1.7,2.9,1.7,4.2s-1.9,2.9-1.7,4.2
		s2.4,2.3,2.8,3.6s-1.1,3.3-0.6,4.5s2.9,1.6,3.6,2.8s-0.2,3.4,0.6,4.5s3.2,0.8,4.2,1.8s0.7,3.4,1.8,4.2s3.3-0.1,4.5,0.6
		s1.5,3.1,2.8,3.6s3.2-0.9,4.5-0.6s2.3,2.6,3.6,2.8s2.8-1.7,4.2-1.7s2.9,1.9,4.2,1.7s2.3-2.4,3.6-2.8s3.3,1.1,4.5,0.6
		s1.6-2.9,2.8-3.6s3.4,0.2,4.5-0.6s0.8-3.2,1.8-4.2s3.4-0.7,4.2-1.8s-0.1-3.3,0.6-4.5s3.1-1.5,3.6-2.8s-0.9-3.2-0.6-4.5
		s2.6-2.3,2.8-3.6S228.3,153,228.3,151.7z"></path>
	<path id="elonqr5s1504b" class="st5 wwikMrsc_50" d="M193.9,184.3h-0.2c-0.9-0.2-1.7-0.8-2.2-1.6c-0.4-0.5-0.9-0.9-1.5-1.2
		c-0.7,0-1.3,0.1-1.9,0.3c-0.8,0.4-1.8,0.5-2.7,0.2c-0.8-0.5-1.4-1.2-1.7-2.1c-0.3-1.3-1.5-2.1-2.8-1.8c-0.1,0-0.2,0-0.2,0.1
		c-0.9,0.2-1.9,0-2.7-0.5c-0.6-0.7-1-1.5-1.1-2.4c0.1-1.3-0.9-2.4-2.2-2.5c-0.1,0-0.2,0-0.3,0c-0.9-0.1-1.8-0.5-2.4-1.1
		c-0.5-0.8-0.6-1.7-0.5-2.7c0.1-0.6,0-1.3-0.2-1.9c-0.4-0.5-0.9-0.9-1.6-1.1c-1.6-0.3-2.6-1.9-2.2-3.4c0.1-0.3,0.2-0.7,0.4-1
		c0.7-1.1,0.4-2.5-0.6-3.2c-0.1-0.1-0.2-0.1-0.2-0.1c-0.8-0.5-1.3-1.3-1.6-2.2c0-0.9,0.3-1.8,0.9-2.5c1-0.9,1.1-2.4,0.2-3.4
		c-0.1-0.1-0.1-0.1-0.2-0.2c-0.6-0.7-0.9-1.6-0.9-2.5c0.3-0.9,0.8-1.7,1.6-2.2c0.5-0.4,0.9-0.9,1.2-1.5c0.1-0.7,0-1.3-0.3-1.9
		c-0.9-1.4-0.5-3.2,0.9-4c0.3-0.2,0.6-0.3,1-0.4c1.3-0.3,2.1-1.5,1.8-2.8c0-0.1,0-0.2-0.1-0.2c-0.5-1.5,0.4-3.2,1.9-3.7
		c0.3-0.1,0.7-0.1,1-0.1c0.6-0.1,1.3-0.3,1.8-0.7c0.4-0.5,0.6-1.2,0.7-1.8c-0.1-1.6,1.2-3,2.8-3.1c0.4,0,0.7,0,1,0.1
		c0.6,0.1,1.3,0,1.9-0.2c0.5-0.4,0.9-1,1.1-1.6c0.3-1.6,1.9-2.6,3.5-2.2c0.3,0.1,0.7,0.2,0.9,0.4c1.1,0.7,2.5,0.4,3.2-0.6
		c0.1-0.1,0.1-0.2,0.1-0.3c0.5-0.8,1.3-1.3,2.2-1.6c0.9,0,1.8,0.3,2.5,0.9c0.5,0.4,1.1,0.7,1.8,0.8c0.7-0.1,1.3-0.4,1.8-0.8
		c1.1-1.2,2.9-1.3,4.1-0.2c0.3,0.2,0.5,0.5,0.6,0.8c0.4,0.5,0.9,0.9,1.5,1.2c0.7,0,1.3-0.1,1.9-0.3c1.4-0.9,3.2-0.5,4,0.9
		c0.2,0.3,0.3,0.6,0.4,0.9c0.3,1.3,1.5,2.1,2.8,1.8c0.1,0,0.2,0,0.2-0.1c0.9-0.1,1.9,0,2.7,0.5c0.6,0.7,1.1,1.5,1.1,2.5
		c0.1,0.6,0.3,1.3,0.7,1.8c0.5,0.4,1.2,0.6,1.8,0.7c1.6-0.1,3,1.2,3.1,2.8c0,0.3,0,0.7-0.1,1c-0.4,1.2,0.3,2.5,1.5,2.9
		c0.1,0,0.2,0,0.2,0.1c1.6,0.3,2.6,1.9,2.2,3.5c-0.1,0.3-0.2,0.7-0.4,1c-0.3,0.6-0.4,1.3-0.3,1.9c0.3,0.6,0.7,1.1,1.2,1.5
		c1.4,0.7,2,2.5,1.3,3.9c-0.2,0.3-0.4,0.6-0.6,0.8c-1,0.9-1.1,2.4-0.2,3.4c0.1,0.1,0.1,0.1,0.2,0.2c0.6,0.7,0.9,1.6,0.9,2.5
		c-0.3,0.9-0.8,1.7-1.6,2.2c-0.5,0.4-0.9,0.9-1.2,1.5c-0.1,0.7,0.1,1.3,0.3,1.9c0.9,1.4,0.5,3.2-0.9,4c-0.3,0.2-0.6,0.3-1,0.4
		c-0.6,0.2-1.1,0.6-1.6,1.1c-0.2,0.6-0.3,1.3-0.2,1.9c0.5,1.5-0.4,3.2-1.9,3.7c-0.3,0.1-0.7,0.2-1,0.1c-1.3-0.1-2.4,0.9-2.5,2.2
		c0,0.1,0,0.2,0,0.3c0.1,1.6-1.2,3-2.8,3.1c-0.3,0-0.7,0-1-0.1c-1.2-0.4-2.5,0.3-2.9,1.5c0,0.1,0,0.2-0.1,0.2
		c-0.3,1.6-1.9,2.6-3.5,2.2c-0.3-0.1-0.7-0.2-0.9-0.4c-0.6-0.3-1.3-0.4-1.9-0.3c-0.6,0.3-1.1,0.7-1.5,1.2c-0.7,1.4-2.5,2-3.9,1.3
		c-0.3-0.2-0.6-0.4-0.8-0.6c-0.5-0.4-1.1-0.7-1.8-0.8c-0.6,0.1-1.3,0.4-1.8,0.8C195.5,183.9,194.7,184.2,193.9,184.3z M189.6,180.5
		c0.2,0,0.4,0,0.6,0.1c0.8,0.3,1.5,0.8,2,1.5c0.5,0.6,1.1,1.2,1.6,1.2c0.7-0.1,1.3-0.3,1.9-0.8c1.3-1.3,3.4-1.3,4.6,0c0,0,0,0,0,0
		c0.5,0.4,1.2,0.7,1.9,0.8c0.5-0.1,1.1-0.7,1.6-1.2c0.5-0.7,1.2-1.2,1.9-1.5c0.8-0.1,1.7,0,2.5,0.3c0.6,0.3,1.3,0.4,2,0.3
		c0.5-0.2,0.9-0.9,1.2-1.6c0.5-1.7,2.2-2.8,4-2.3c0,0,0,0,0,0c0.7,0.1,1.4,0,2-0.3c0.4-0.5,0.7-1.2,0.8-1.9c0.1-0.8,0.4-1.6,0.9-2.3
		c0.7-0.5,1.5-0.9,2.3-0.9c1.1,0.2,2.1-0.6,2.3-1.7c0.1-0.4,0-0.8-0.1-1.1c-0.1-0.8,0-1.7,0.3-2.5c0.5-0.7,1.2-1.2,2-1.5
		c0.7-0.4,1.4-0.7,1.6-1.2c0.1-0.7,0-1.4-0.3-2c-0.3-0.8-0.4-1.6-0.3-2.5c0.3-0.8,0.8-1.5,1.5-2c0.6-0.5,1.2-1.1,1.2-1.6
		c-0.1-0.7-0.3-1.3-0.8-1.8c-0.5-0.7-0.9-1.5-0.9-2.3c0.1-0.8,0.4-1.6,0.9-2.3c0.4-0.5,0.7-1.2,0.8-1.9c-0.1-0.5-0.7-1.1-1.2-1.6
		c-0.7-0.5-1.2-1.2-1.5-2c-0.1-0.8,0-1.7,0.3-2.5c0.3-0.6,0.4-1.3,0.3-2c-0.2-0.5-0.9-0.9-1.6-1.2c-0.8-0.3-1.5-0.8-2-1.5
		c-0.3-0.8-0.4-1.6-0.3-2.5c0.4-1,0-2.2-1-2.6c-0.4-0.2-0.7-0.2-1.1-0.1c-0.8-0.1-1.6-0.4-2.3-0.9c-0.5-0.7-0.8-1.5-0.9-2.3
		c-0.1-0.7-0.3-1.3-0.8-1.9c-0.6-0.3-1.3-0.4-2-0.3c-0.8,0.1-1.7,0-2.5-0.3c-0.7-0.5-1.2-1.2-1.5-1.9c-0.4-0.7-0.7-1.4-1.2-1.6
		c-0.7-0.1-1.4,0-2,0.3c-0.8,0.3-1.6,0.4-2.5,0.3c-0.8-0.3-1.5-0.8-1.9-1.5c-0.5-0.6-1.1-1.2-1.6-1.2c-0.7,0.1-1.3,0.3-1.9,0.8
		c-1.3,1.3-3.4,1.3-4.6,0c-0.5-0.4-1.2-0.7-1.9-0.8c-0.5,0.1-1.1,0.7-1.6,1.2c-0.9,1.5-2.9,2.1-4.4,1.2c-0.6-0.3-1.3-0.4-2-0.3
		c-0.5,0.2-0.9,0.9-1.2,1.6c-0.3,0.8-0.8,1.5-1.5,1.9c-0.8,0.3-1.6,0.5-2.5,0.3c-1-0.4-2.2,0-2.6,1c-0.2,0.4-0.2,0.7-0.1,1.1
		c-0.1,0.8-0.5,1.6-1,2.3c-0.7,0.5-1.5,0.9-2.3,0.9c-0.7,0.1-1.3,0.3-1.9,0.8c-0.3,0.6-0.4,1.3-0.3,2c0.1,0.8,0,1.7-0.3,2.5
		c-0.5,0.7-1.2,1.2-2,1.5c-0.7,0.4-1.4,0.7-1.6,1.2c-0.1,0.7,0,1.4,0.3,2c0.9,1.5,0.4,3.5-1.2,4.4c-0.6,0.5-1.2,1.1-1.2,1.6
		c0.1,0.7,0.3,1.3,0.8,1.9c0.5,0.7,0.9,1.5,1,2.3c-0.1,0.9-0.5,1.7-1,2.3c-0.4,0.5-0.7,1.2-0.8,1.8c0.1,0.5,0.7,1.1,1.2,1.6
		c0.7,0.5,1.2,1.2,1.5,2c0.1,0.8,0,1.7-0.3,2.5c-0.3,0.6-0.4,1.3-0.3,2c0.2,0.5,0.9,0.9,1.6,1.2c0.8,0.3,1.5,0.8,2,1.5
		c0.3,0.8,0.4,1.6,0.3,2.5c-0.4,1,0,2.2,1,2.6c0.3,0.2,0.7,0.2,1.1,0.1c0.8,0.1,1.6,0.4,2.3,0.9c0.5,0.7,0.9,1.4,1,2.3
		c-0.2,1.1,0.6,2.1,1.7,2.3c0.4,0.1,0.8,0,1.1-0.1c1.7-0.5,3.5,0.6,4,2.3c0.4,0.7,0.7,1.4,1.2,1.6c0.7,0.1,1.4,0,2-0.3
		C188.4,180.6,189,180.5,189.6,180.5z"></path>
	<path id="elgdhuaaasq7l" class="st6 wwikMrsc_51" d="M181.2,161.4c-0.4,0-0.8-0.2-0.9-0.6c-0.7-1.7-1.3-3.5-1.6-5.3c-2-11.3,4.9-21.9,15.2-23.7
		s20.4,6,22.3,17.2c0.1,0.7,0.2,1.3,0.2,2c0,0.6-0.4,1-0.9,1.1c-0.6,0-1-0.4-1.1-0.9l0,0c0-0.6-0.1-1.2-0.2-1.8
		c-1.8-10.2-10.7-17.2-20-15.6s-15.4,11.2-13.6,21.4c0.3,1.6,0.8,3.2,1.4,4.8c0.2,0.5,0,1.1-0.5,1.3c0,0,0,0,0,0
		C181.5,161.4,181.3,161.4,181.2,161.4z"></path>
	<path id="el3kj3ff5bsvy" class="st5 wwikMrsc_52" d="M181.2,161.9c-0.6,0-1.1-0.3-1.4-0.9c-0.8-1.7-1.3-3.5-1.6-5.4c-1-5.5,0.1-11.1,3.1-15.8
		c5.3-8.7,16.7-11.4,25.4-6c0.7,0.4,1.3,0.9,1.9,1.3c4.4,3.4,7.3,8.4,8.2,13.9c0.1,0.7,0.2,1.3,0.3,2c0.1,0.8-0.5,1.6-1.4,1.6
		c0,0,0,0,0,0c-0.8,0.1-1.5-0.5-1.6-1.3c0,0,0,0,0,0c0-0.6-0.1-1.2-0.2-1.7c-1.7-9.9-10.4-16.7-19.4-15.2s-14.9,10.9-13.2,20.8
		c0.3,1.6,0.8,3.2,1.4,4.7c0.3,0.8,0,1.6-0.7,2c0,0,0,0,0,0C181.6,161.9,181.4,161.9,181.2,161.9z M196.9,132.1c-1,0-2,0.1-2.9,0.2
		c-4.9,0.9-9.3,3.8-11.9,8.1c-2.8,4.5-3.9,9.8-2.9,15.1c0.3,1.8,0.8,3.5,1.6,5.2c0.1,0.2,0.4,0.4,0.7,0.2c0.3-0.1,0.4-0.4,0.2-0.7
		c-0.7-1.6-1.2-3.2-1.5-4.9c-1.8-10.5,4.5-20.3,14-22s18.8,5.5,20.6,16c0.1,0.6,0.2,1.2,0.2,1.8c0,0.3,0.3,0.5,0.5,0.5c0,0,0,0,0,0
		c0.1,0,0.3-0.1,0.3-0.2c0.1-0.1,0.1-0.2,0.1-0.4c-0.1-0.6-0.1-1.3-0.2-1.9c-0.9-5.2-3.6-9.9-7.8-13.2
		C204.8,133.4,200.9,132.1,196.9,132.1z"></path>
	<path id="elvp8ga9frip" class="st5 wwikMrsc_53" d="M248.2,305.4c0,0,40.6-10,53.3-22c0,0-3.7,19,3,29s33.3,36.5,37.9,41.8s13.4,17.9,16.1,17.5
		s10-12.3,12.3-15.7s6.4-5.5,7-11.1s-2.7-6-4-4.3s-8.2,6.9-12.5,8.2s-9,2.9-9,2.9c-7-9.8-13.2-20.2-18.5-31c-8-16.7-16.3-48-19-54.3
		s-6.7-8.3-11.7-8.3s-21,0-49,12.3s-27,24.3-24.3,28.7S239.2,307.1,248.2,305.4z"></path>
	<path id="els6dse1pi7nc" class="st5 wwikMrsc_54" d="M358.4,372.2c-2.1,0-6-4.7-11.6-11.9c-1.7-2.2-3.4-4.3-4.7-5.8s-4.4-4.7-8.3-8.8
		c-9.9-10.3-24.9-25.9-29.7-33.1c-5.7-8.6-4-23.3-3.3-28c-13.6,11.5-50.8,20.7-52.4,21.1l0,0c-9.2,1.7-16.1-2-18.9-6.5
		c-1.5-2.6-1.8-5.8-0.8-8.6c1.6-5.1,7.3-12.8,25.3-20.8c28.1-12.4,44-12.4,49.2-12.4c5.8,0,9.6,2.7,12.1,8.6c0.9,2.1,2.4,7,4.3,13.2
		c3.9,12.7,9.3,30,14.6,41.1c5.3,10.7,11.4,20.9,18.2,30.6c1.2-0.4,5.1-1.7,8.7-2.8c4.3-1.3,11.1-6.5,12.3-8c0.7-0.9,2-1.3,3-0.9
		c0.7,0.3,2.3,1.4,1.8,5.6s-2.7,6.4-4.8,8.6c-0.9,0.8-1.6,1.8-2.4,2.7c-0.5,0.6-1.1,1.6-1.8,2.7c-4.5,6.8-8.7,12.9-10.9,13.2
		L358.4,372.2z M301.5,282.9c0.1,0,0.2,0,0.2,0.1c0.2,0.1,0.3,0.3,0.3,0.5c0,0.2-3.6,18.9,2.9,28.6c4.8,7.1,19.7,22.7,29.6,33
		c3.9,4.1,7,7.3,8.3,8.8s3,3.6,4.7,5.8c3.7,4.7,9.3,11.7,10.9,11.5c1.9-0.2,7.5-8.7,10.2-12.7c0.7-1.1,1.4-2.1,1.8-2.7
		c0.7-1,1.6-2,2.5-2.9c2-2.1,4.1-4.2,4.5-8c0.3-2.4-0.2-4.1-1.2-4.5c-0.7-0.2-1.4,0-1.9,0.6c-1.3,1.7-8.3,7-12.8,8.4
		c-4.3,1.3-9,2.9-9,2.9c-0.2,0-0.4-0.1-0.5-0.3c-7-9.8-13.2-20.2-18.5-31.1c-5.4-11.2-10.8-28.5-14.7-41.2c-1.9-6.1-3.4-11-4.3-13.1
		c-2.3-5.5-5.8-8-11.2-8c-5.2,0-20.9,0-48.8,12.3c-17.7,7.8-23.2,15.2-24.8,20.1c-0.9,2.6-0.7,5.4,0.6,7.8c2.6,4.2,9.1,7.7,17.8,6.1
		c0.9-0.2,40.7-10.1,53.1-21.8C301.3,283,301.4,282.9,301.5,282.9z M248.2,305.4L248.2,305.4z"></path>
	<path id="elat6d5eyfbqv" class="st7 wwikMrsc_55" d="M377.9,345c0.7-5.7-2.7-6-4-4.3s-8.2,6.9-12.5,8.2s-9,2.9-9,2.9
		c-5.7-8.1-11-16.5-15.6-25.2c-2.7,4.3-6.7,7.7-11.3,9.8c7.6,8.1,14.8,15.4,17.1,17.9c4.7,5.3,13.4,17.9,16.1,17.5
		s10-12.3,12.3-15.7S377.3,350.6,377.9,345z"></path>
	<path id="elq80vk13994i" class="st5 wwikMrsc_56" d="M358.4,372.2c-2.1,0-6-4.7-11.6-11.9c-1.7-2.2-3.4-4.3-4.7-5.8s-4.4-4.7-8.3-8.8
		c-2.6-2.7-5.7-5.9-8.8-9.1c-0.2-0.2-0.2-0.5,0-0.7c0,0,0.1-0.1,0.2-0.1c4.6-2,8.5-5.4,11.1-9.6c0.1-0.1,0.3-0.2,0.5-0.2
		c0.2,0,0.3,0.1,0.4,0.3c4.6,8.6,9.7,16.9,15.3,24.9c1.2-0.4,5.1-1.7,8.7-2.8c4.3-1.3,11.1-6.5,12.3-8c0.7-0.9,2-1.3,3-0.9
		c0.7,0.3,2.3,1.4,1.8,5.6l0,0c-0.5,4.1-2.7,6.4-4.8,8.6c-0.9,0.8-1.6,1.8-2.4,2.7c-0.5,0.6-1.1,1.6-1.8,2.7
		c-4.5,6.8-8.7,12.9-10.9,13.2L358.4,372.2z M326.3,336.4c2.9,3.1,5.8,6,8.3,8.6c3.9,4.1,7,7.3,8.3,8.8s3,3.6,4.7,5.8
		c3.7,4.7,9.3,11.7,10.9,11.5c1.9-0.2,7.5-8.7,10.2-12.7c0.7-1.1,1.4-2.1,1.8-2.7c0.7-1,1.6-2,2.5-2.9c2-2.1,4.1-4.2,4.5-8
		c0.3-2.4-0.2-4.1-1.2-4.5c-0.7-0.2-1.4,0-1.9,0.6c-1.3,1.7-8.3,7-12.8,8.4c-4.3,1.3-9,2.9-9,2.9c-0.2,0-0.4-0.1-0.5-0.2
		c-5.6-7.9-10.7-16.1-15.2-24.6C334.1,331.3,330.5,334.4,326.3,336.4z M377.9,345L377.9,345z"></path>
	<path id="elw0x9vmql9w" class="st8 wwikMrsc_57" d="M197.2,177.9c0,0,4.4,9,4.9,12s-2.9,4.6-6.4,5.4s-8.8-1.3-14.1,4.8S163,232.8,161.1,237
		s0,7.6,5.4,6.6s19.8-20,19.8-20s17.8,21.7,20,26.4s1.5,12.5,1,20.5s-1.7,19.8,5.6,29.3s22.7,12.2,35.4,5.6s26.4-29.3,20.3-38.6
		s-19.8-13.9-23.9-22.7s-2.7-13.6-2.7-22.7c-0.2-6.9-0.9-13.8-2-20.7c0,0,21-5,45.3-8.3c8.5-1.2,3.2-10.7-1.7-12.7
		c-6.1-2.4-33.2,0.4-40.6-0.3c-10.7-1-16.1,1.2-18.6,2.9s-5.6,4.1-8.3,3.9s-5.6-13.4-5.6-13.4S203.3,178.7,197.2,177.9z"></path>
	<path id="elg379gwtfqns" class="st5 wwikMrsc_58" d="M233.5,309.5c-8.4,0-16.3-3.3-21-9.4c-7-9.1-6.3-20.2-5.8-28.2l0.2-3.5
		c0.5-7.2,0.9-14-1.1-18.2s-16.9-22.5-19.6-25.8c-2.4,3.1-14.6,18.8-19.7,19.7c-2.7,0.5-4.8-0.1-5.9-1.5s-1.1-3.5,0-5.8
		c1.7-3.6,15.1-30.8,20.6-37c4.2-4.7,8.3-4.8,11.6-4.8c0.9,0,1.9,0,2.8-0.2c1.5-0.3,6.5-1.6,6-4.8c-0.5-2.8-4.8-11.7-4.8-11.8
		c-0.1-0.2-0.1-0.3,0-0.5c0.1-0.1,0.3-0.2,0.5-0.2c5.8,0.7,12.7-5,12.8-5c0.1-0.1,0.3-0.1,0.5-0.1c0.2,0.1,0.3,0.2,0.3,0.4
		c1.4,6.3,3.7,12.9,5.2,13c2.3,0.2,5.1-1.8,7.3-3.4l0.6-0.4c2.2-1.6,7.7-4,18.9-3c2.8,0.3,8.5,0,14.6-0.2c10.4-0.5,22.2-1,26.1,0.6
		c3.3,1.3,6.9,6,6.5,9.6c-0.2,1.6-1.2,3.5-4.9,4c-22.1,3-41.6,7.5-44.8,8.2c1.1,6.7,1.8,13.5,1.9,20.3c0,2-0.1,3.7-0.1,5.4
		c-0.2,6-0.4,10.3,2.8,17.1c2.1,4.5,6.8,7.8,11.7,11.4c4.5,3.3,9.2,6.7,12.2,11.2c1.8,2.7,2.1,6.7,0.8,11.5
		c-2.8,10.7-12.4,23.2-21.3,27.9C243.9,308.2,238.7,309.4,233.5,309.5z M186.2,223.1c0.2,0,0.3,0.1,0.4,0.2
		c0.7,0.9,17.9,21.8,20.1,26.5c2.1,4.4,1.6,11.3,1.2,18.7l-0.2,3.5c-0.5,7.9-1.2,18.7,5.6,27.6c7.2,9.4,22.5,11.8,34.8,5.5
		c8.6-4.5,18.1-16.9,20.8-27.2c1.2-4.5,0.9-8.2-0.7-10.6c-2.9-4.4-7.5-7.7-12-10.9c-5-3.6-9.8-7.1-12-11.8c-3.3-7-3.1-11.6-2.9-17.5
		c0.1-1.7,0.1-3.4,0.1-5.4c-0.2-6.9-0.9-13.8-2-20.6c0-0.3,0.1-0.5,0.4-0.6c0.2-0.1,21.3-5.1,45.4-8.4c2.5-0.3,3.8-1.4,4-3.1
		c0.4-3.2-2.9-7.4-5.8-8.6c-3.7-1.5-15.9-0.9-25.7-0.5c-6.4,0.3-11.9,0.5-14.8,0.2c-10.9-1-16.1,1.3-18.2,2.8l-0.6,0.4
		c-2.4,1.7-5.4,3.8-8,3.6s-5.1-9.7-5.9-13c-1.8,1.4-7,5-12.1,4.8c1.1,2.3,4.1,8.8,4.6,11.3c0.5,2.7-2.1,4.9-6.7,5.9
		c-1,0.2-2,0.2-3,0.2c-3.1,0.1-7,0.1-10.9,4.5c-5.4,6.1-18.7,33.1-20.4,36.8c-0.9,1.9-0.9,3.6-0.1,4.8s2.6,1.5,4.9,1.1
		c4.1-0.7,14.5-13.3,19.5-19.8C185.9,223.2,186.1,223.1,186.2,223.1L186.2,223.1z"></path>
	<path id="elevogt889p1f" class="st5 wwikMrsc_59" d="M254.4,179.3l-2,0.1c-0.3,6.2,1.2,12.4,4.4,17.8l2.1-0.4
		C255.6,191.5,254.1,185.4,254.4,179.3z"></path>
	<path id="eltssdojfzcg9" class="st5 wwikMrsc_60" d="M243.1,240.3c-0.2-0.6-0.4-1.3-0.6-1.9c-15.1,3.4-27.9,13.2-34.8,19.3c0,0.9,0,1.8,0,2.7
		C214,254.5,227.2,243.7,243.1,240.3z"></path>
	<path id="el562tpxncple" class="st5 wwikMrsc_61" d="M204.4,246.9c0.4,0.6,0.8,1.2,1.1,1.7c4.5-4.4,16-14,36.1-19.8c0-0.7,0.1-1.4,0.1-2.1
		C221,232.5,209.3,242.1,204.4,246.9z"></path>
	<path id="el5fbwomz66fm" class="st5 wwikMrsc_62" d="M189.5,213.6c3.6-0.4,20.7-3,45.6-19c1.2,2.3,2.5,4.5,3.9,6.7c0.2,0.3,0.5,0.4,0.8,0.4h0.2
		l-0.2-1l1-0.2c0-0.1-0.1-0.2-0.1-0.3c-0.1-0.1-7.7-11.3-8.4-20.6c-0.7,0.1-1.4,0.2-2,0.4c0.2,1.9,0.6,3.7,1.1,5.5
		c-12.5,9.2-27,15-42.4,17c-0.4-2.1-1-4.2-1.8-6.2c-0.6,0.2-1.3,0.5-1.9,0.8c0.6,1.8,1.1,3.6,1.5,5.4c-1.2-1.4-2.6-2.5-4.1-3.5
		c-0.4,0.4-0.8,0.8-1.2,1.2l-0.2,0.3c2.8,1.7,5.5,4.1,6.2,7.8c0.1,2,0,3.9-0.2,5.9c-2-4-5.5-7-9.7-8.4c-0.3,0.6-0.7,1.1-1.1,1.7
		c4.9,1.5,8.7,5.4,10,10.4c0,0.1,0,0.2,0.1,0.2c-0.2,1.1-0.5,2.2-0.9,3.3c-3-4.2-7.4-7.2-12.4-8.4l-1,1.8c5.3,1,9.9,4.3,12.6,9
		c-0.3,0.8-0.6,1.6-0.8,2.4c1.2-1.5,1.9-2.5,1.9-2.5l0.7,0.9l0.2-0.6C188.4,220.6,189.2,217.1,189.5,213.6z M232,187.4
		c0.6,1.8,1.4,3.6,2.2,5.3c-23.7,15.3-40.5,18.3-44.6,18.8c0-0.9,0-1.9,0-2.8c0-0.1,0-0.3,0-0.4v-0.2c-0.1-1.4-0.2-2.6-0.4-3.8
		C204.7,202.4,219.4,196.6,232,187.4z"></path>
	<path id="elhus3gubp865" class="st5 wwikMrsc_63" d="M248.2,249c-0.5-0.5-1-1.1-1.5-1.6c-17.4,5-31.1,14.9-39.4,22.1l-0.1,1
		c0,0.6-0.1,1.2-0.1,1.9C215.2,265,229.6,254.1,248.2,249z"></path>
	<path id="elifr4754hedc" class="st5 wwikMrsc_64" d="M241.8,219.3c0-0.7,0-1.3-0.1-2c-25.7,1.4-38.3,14.5-43.3,21.6l1.3,1.6
		C204.1,234,216.2,220.7,241.8,219.3z"></path>
	<path id="elwwdwv7o85h" class="st5 wwikMrsc_65" d="M267.7,178.8l-2.1,0.1c-0.8,5.5-0.2,11.1,1.8,16.3l2-0.4
		C267.5,189.7,266.9,184.2,267.7,178.8z"></path>
	<path id="elupgw17ona18" class="st5 wwikMrsc_66" d="M240.2,179.2c1,7,3.1,13.8,6.4,20l2.1-0.4c-3.3-6-5.5-12.6-6.4-19.4
		C241.6,179.3,240.9,179.2,240.2,179.2z"></path>
	<path id="eldzh3t20lwsm" class="st5 wwikMrsc_67" d="M241,208.4c-0.1-0.7-0.2-1.4-0.2-2c-29.1,3.5-43.6,15.8-49.8,22.9c0.4,0.5,0.9,1.1,1.3,1.6
		C198,224.3,212.4,211.9,241,208.4z"></path>
	<path id="elrbs5pvm5nd" class="st5 wwikMrsc_68" d="M248.2,305.4c10.5-5.5,21.7-22,21.8-32.8c0-1.9-0.5-3.7-1.5-5.4c-0.8-1.3-1.7-2.6-2.7-3.9
		c-3.3-3.5-7.7-6.4-11.6-9.3c-22.1,8.3-39.7,25-46.9,31.5c0.6,5.1,2.5,10,5.6,14.2C220.2,309.3,235.6,312,248.2,305.4z"></path>
	<path id="el7cta79uxytx" class="st5 wwikMrsc_69" d="M233.5,309.5c-8.4,0-16.3-3.3-21-9.4c-3.2-4.2-5.1-9.2-5.7-14.4c0-0.2,0-0.3,0.2-0.4
		l1.4-1.2c8.1-7.3,24.9-22.5,45.8-30.4c0.2-0.1,0.3,0,0.5,0.1c0.7,0.5,1.5,1.1,2.2,1.6c3.4,2.3,6.6,4.9,9.5,7.8c1.1,1.5,2,2.8,2.7,4
		c1,1.7,1.6,3.6,1.6,5.6c-0.1,10.9-11.2,27.6-22,33.2l0,0C243.9,308.2,238.7,309.5,233.5,309.5z M207.8,285.8
		c0.6,5,2.5,9.7,5.5,13.7c7.2,9.4,22.5,11.8,34.8,5.5c10.6-5.5,21.4-21.8,21.5-32.3c0-1.8-0.5-3.5-1.4-5.1c-0.8-1.1-1.6-2.4-2.7-3.9
		c-2.9-2.8-6-5.3-9.3-7.6l-2-1.5c-20.6,7.8-37.2,22.9-45.2,30.1L207.8,285.8z M248.2,305.4L248.2,305.4z"></path>
	<path id="elpcdchmwvt19" class="st6 wwikMrsc_70" d="M182.5,157.7c-0.4,0-0.9,0.1-1.3,0.2c-3.3,1.2-4.6,6-2.9,10.9s5.8,7.8,9.1,6.6
		c0.7-0.2,1.3-0.7,1.8-1.2L182.5,157.7z"></path>
	<path id="elcoh90ouq3tn" class="st5 wwikMrsc_71" d="M185.9,176.2c-1.4,0-2.8-0.5-3.9-1.4c-3.8-3.1-5.6-8.1-4.6-12.9c0.4-2,1.8-3.6,3.6-4.4
		c0.5-0.2,0.9-0.2,1.4-0.3c0.2,0,0.4,0.1,0.5,0.3l6.7,16.5c0.1,0.2,0,0.4-0.1,0.5c-0.6,0.6-1.2,1.1-2,1.3
		C187,176.1,186.4,176.2,185.9,176.2z M182.1,158.2c-0.3,0-0.5,0.1-0.8,0.2c-1.6,0.6-2.7,2-3,3.7c-1,4.4,0.6,9,4.2,11.9
		c1.3,1.1,3.1,1.5,4.7,1c0.5-0.2,1-0.5,1.4-0.9L182.1,158.2z"></path>
	<path id="el7ywgc8fgq7f" class="st6 wwikMrsc_72" d="M182.5,157.7c-0.4,0-0.9,0.1-1.3,0.2c-0.4,0.1-0.7,0.3-1.1,0.5l7,17c0.1,0,0.1,0,0.2-0.1
		c0.7-0.2,1.3-0.7,1.8-1.2L182.5,157.7z"></path>
	<path id="ellhklqxnlthd" class="st5 wwikMrsc_73" d="M187.2,176c-0.2,0-0.4-0.1-0.5-0.3l-7-17c-0.1-0.2,0-0.5,0.2-0.6c0.4-0.2,0.8-0.5,1.2-0.6
		c0.5-0.2,0.9-0.2,1.4-0.3c0.2,0,0.4,0.1,0.5,0.3l6.7,16.5c0.1,0.2,0,0.4-0.1,0.5c-0.6,0.6-1.2,1.1-2,1.3h-0.2L187.2,176z
		 M180.8,158.7l6.7,16.2c0.4-0.2,0.8-0.4,1.1-0.8l-6.4-15.9c-0.3,0-0.5,0.1-0.8,0.2C181.2,158.5,181,158.6,180.8,158.7L180.8,158.7z
		"></path>
	<path id="el5sxyq4js2ci" class="st6 wwikMrsc_74" d="M212.6,147.7c0.3-0.3,0.7-0.5,1.1-0.6c3.3-1.2,7.4,1.8,9.1,6.6s0.4,9.7-2.9,10.9
		c-0.7,0.2-1.4,0.3-2.2,0.2L212.6,147.7z"></path>
	<path id="el4628ongpfor" class="st5 wwikMrsc_75" d="M218.4,165.3c-0.3,0-0.5,0-0.8-0.1c-0.2,0-0.4-0.2-0.4-0.4l-5.1-17.1
		c-0.1-0.2,0-0.4,0.2-0.6c0.4-0.3,0.8-0.5,1.3-0.7c3.6-1.2,7.9,1.9,9.7,6.9c0.9,2.3,1,4.7,0.4,7.1c-0.4,2-1.8,3.6-3.6,4.4
		C219.5,165.2,219,165.3,218.4,165.3z M218.1,164.3c0.5,0,1.1,0,1.6-0.2c1.6-0.7,2.7-2.1,3-3.7c0.5-2.2,0.4-4.4-0.4-6.5
		c-1.6-4.6-5.4-7.4-8.4-6.3c-0.3,0.1-0.5,0.2-0.7,0.4L218.1,164.3z"></path>
	<path id="elvhyepvx4xq" class="st5 wwikMrsc_76" d="M218.4,165.3c-0.3,0-0.5,0-0.8-0.1c-0.2,0-0.4-0.2-0.4-0.4l-5.1-17.1
		c-0.1-0.2,0-0.4,0.2-0.6c0.4-0.3,0.8-0.5,1.3-0.7c0.4-0.1,0.9-0.2,1.3-0.3c0.2,0,0.5,0.1,0.5,0.4l5.2,17.6c0.1,0.2-0.1,0.5-0.3,0.6
		l-0.2,0.1C219.5,165.2,219,165.3,218.4,165.3z M218.1,164.3c0.5,0,0.9,0,1.4-0.1l-5-16.8c-0.5,0.1-0.9,0.2-1.4,0.5L218.1,164.3z"></path>
	<path id="eltwqbb0pd0rf" class="st7 wwikMrsc_77" d="M221.2,184.4c-1.7,1.1-3.6,1.9-5.2,1.8c-2.7-0.2-5.6-13.4-5.6-13.4s-7.1,5.9-13.2,5.1
		c0,0,4.4,9,4.9,12c0.4,2.4-1.8,3.9-4.4,4.8c1.3,3.7,5.4,12.3,16.2,9.7C223.3,202.1,222.6,191.1,221.2,184.4z"></path>
	<path id="elfvsfapvoj7d" class="st5 wwikMrsc_78" d="M210,205.4c-8.2,0-11.6-7.1-12.8-10.5c-0.1-0.1-0.1-0.3,0-0.4c0.1-0.1,0.2-0.2,0.3-0.2
		c1.7-0.6,4.5-1.9,4.1-4.3c-0.5-2.8-4.8-11.7-4.8-11.8c-0.1-0.2-0.1-0.3,0-0.5c0.1-0.1,0.3-0.2,0.5-0.2c5.8,0.7,12.7-5,12.8-5
		c0.1-0.1,0.3-0.1,0.5-0.1c0.2,0.1,0.3,0.2,0.3,0.4c1.4,6.3,3.7,12.9,5.2,13c1.3,0.1,2.8-0.4,4.9-1.7c0.2-0.1,0.5-0.1,0.7,0.1
		c0,0.1,0.1,0.1,0.1,0.2c1.4,6.6,2.2,18.1-7.7,20.6C212.7,205.2,211.3,205.4,210,205.4z M198.3,195c1.4,3.8,5.5,11.3,15.4,8.9
		c8.8-2.1,8.3-12.3,7.1-18.7c-1.4,1-3.1,1.5-4.9,1.5c-2.6-0.2-5.1-9.7-5.9-13c-1.8,1.4-7,5-12.1,4.8c1.1,2.3,4.1,8.8,4.6,11.3
		C203,192,201.4,193.8,198.3,195z"></path>
	<path id="elmf38sjfweh" class="st5 wwikMrsc_79" d="M212.5,180.4c-0.6-1.7-1.1-3.5-1.5-4.9c-0.3-0.8-0.6-1.7-0.9-2.5c-1.2,0.9-7.5,5.6-13,5
		c0,0,1.5,3,2.8,6.2c2.4,0.7,5.7,1.2,8.3-0.1C209.9,183.1,211.4,181.9,212.5,180.4z"></path>
	<path id="elsxay4p4a3ff" class="st5 wwikMrsc_80" d="M204.5,185.3c-1.6,0-3.1-0.3-4.6-0.7c-0.1,0-0.3-0.1-0.3-0.3c-1.3-3.1-2.8-6.1-2.8-6.2
		c-0.1-0.2-0.1-0.3,0-0.5c0.1-0.1,0.3-0.2,0.5-0.2c5.3,0.6,11.4-3.9,12.6-4.9c0.1-0.1,0.3-0.1,0.4-0.1c0.2,0,0.3,0.2,0.3,0.3
		c0.3,0.9,0.6,1.7,0.9,2.5c0.5,1.8,1,3.5,1.5,4.9c0.1,0.2,0,0.3-0.1,0.5c-1.2,1.5-2.7,2.8-4.4,3.8
		C207.3,185,205.9,185.4,204.5,185.3z M200.4,183.7c2.2,0.6,5.3,1.1,7.7-0.1c1.5-0.8,2.8-2,3.9-3.3c-0.6-1.7-1.1-3.5-1.4-4.7
		c-0.2-0.5-0.4-1.1-0.6-1.8c-1.9,1.4-7,4.8-11.9,4.7C198.6,179.6,199.5,181.6,200.4,183.7z"></path>
	<path id="eltwh40pfklll" class="st7 wwikMrsc_81" d="M183.1,154.5c0,0,3.4,14.6,5.9,18.6s11.2,8.6,15.4,9s7.1-4.6,9.5-8.8s3.2-7.6,2.2-12.9
		c-1.4-6.4-3.6-12.7-6.6-18.6c-1.6-3-9-6.1-15.9-4.4S181.8,146.7,183.1,154.5z"></path>
	<path id="eld6qvejrxymj" class="st5 wwikMrsc_82" d="M204.9,182.6c-0.2,0-0.4,0-0.6,0c-4.5-0.5-13.3-5.3-15.7-9.3s-5.8-18.1-5.9-18.7l0,0
		c-1.2-7.9,3.6-15.8,10.9-17.6s14.8,1.5,16.4,4.6c3,5.9,5.2,12.2,6.6,18.7c1,5.3,0.3,8.9-2.3,13.3l-0.1,0.2
		C211.8,177.7,208.9,182.6,204.9,182.6z M183.6,154.4c0.1,0.6,3.5,14.6,5.8,18.4s10.8,8.3,15,8.8c3.7,0.4,6.6-4.4,8.9-8.3l0.1-0.2
		c2.5-4.2,3.1-7.5,2.1-12.6c-1.4-6.4-3.6-12.6-6.5-18.4c-1.5-2.8-8.7-5.8-15.3-4.1S182.4,147,183.6,154.4z"></path>
	<path id="eldnp6pnqqlnr" class="st5 wwikMrsc_83" d="M198.4,163.3L198.4,163.3c-0.4,0-0.5-0.3-0.5-0.6c0,0,0,0,0,0c0.2-0.8,0.6-1.6,1.4-2
		c1.1-0.6,2.5-0.6,3.7-0.1c0.3,0.1,0.4,0.4,0.3,0.6c-0.1,0.3-0.4,0.4-0.6,0.4c-0.9-0.4-1.9-0.4-2.9,0c-0.5,0.3-0.8,0.8-0.9,1.3
		C198.9,163.1,198.7,163.3,198.4,163.3z"></path>
	<path id="eldf08pabkced" class="st5 wwikMrsc_84" d="M199.9,169.1c-1.5,0-2.9-0.3-4.2-1c-0.2-0.1-0.3-0.4-0.2-0.7s0.4-0.3,0.7-0.2
		c0.3,0.1,6.5,3.6,11-4c0.1-0.2,0.5-0.3,0.7-0.2c0,0,0,0,0,0c0.2,0.1,0.3,0.4,0.2,0.7c0,0,0,0,0,0
		C205.6,168,202.4,169.1,199.9,169.1z"></path>
	<path id="el0i3dhvf67ts" class="st5 wwikMrsc_85" d="M191.1,162.9c-0.7,0-1.3-0.1-1.9-0.4c-0.5-0.3-0.7-0.9-0.4-1.4c0.3-0.5,0.9-0.7,1.4-0.4
		c0.1,0.1,2.1,1,4.9-2c0.4-0.4,1-0.4,1.4-0.1s0.4,1,0.1,1.4C194.4,162.3,192.4,162.9,191.1,162.9z"></path>
	<path id="elmkvfzwna9gn" class="st5 wwikMrsc_86" d="M205.7,157.8c-0.9,0-1.8-0.1-2.7-0.4c-0.5-0.2-0.8-0.7-0.6-1.3c0.2-0.5,0.7-0.8,1.3-0.6
		c0,0,0,0,0,0l0,0c0.2,0.1,4.2,1.4,5.3-1.6c0.2-0.5,0.7-0.8,1.3-0.7c0.5,0.2,0.8,0.7,0.7,1.3c0,0,0,0.1,0,0.1
		C210,156.7,208,158,205.7,157.8z"></path>
	<path id="eljrx9odb8l3" class="st5 wwikMrsc_87" d="M187.9,157.4c-0.3,0-0.5-0.2-0.5-0.5c-0.1-1.8,0.5-3.5,1.6-4.8c1.3-1.1,3.1-1.6,4.8-1.3
		c0.3,0,0.5,0.3,0.4,0.6c0,0.3-0.3,0.5-0.6,0.4c0,0,0,0,0,0c-1.4-0.3-2.9,0.1-4,1c-0.9,1.1-1.4,2.5-1.3,4
		C188.4,157.2,188.2,157.4,187.9,157.4C188,157.4,188,157.4,187.9,157.4L187.9,157.4z"></path>
	<path id="elx37iza2xu7h" class="st5 wwikMrsc_88" d="M200.6,149.6c-0.1,0-0.2,0-0.3-0.1c-0.2-0.2-0.2-0.5,0-0.7c0,0,0,0,0,0
		c0,0,3.3-3.4,7.9-0.6c0.2,0.1,0.3,0.4,0.2,0.7c0,0,0,0,0,0c-0.1,0.2-0.4,0.3-0.7,0.2c0,0,0,0,0,0c-4-2.4-6.7,0.4-6.7,0.4
		C200.9,149.6,200.8,149.6,200.6,149.6z"></path>
	<path id="elx6qw3s4tuee" class="st7 wwikMrsc_89" d="M174.5,161.3c0,0-0.7,7.6,0,9.5s7.3,9.3,8.5,11s1.5,1.9-1,6.6s-22.7,34.7-23.4,42.2
		s-0.2,14.4,7.8,12.9s12.7-21.7,16.1-33.2s7.1-26.4,7.1-29.5s-10.3-11.1-11.4-12s-1.6-5.1-1.6-7.3S175.5,159.4,174.5,161.3z"></path>
	<path id="elu7kvbai27z9" class="st5 wwikMrsc_90" d="M164.4,244.3c-1.5,0.1-3-0.4-4.2-1.4c-2.7-2.4-2.6-7.6-2.1-12.2c0.6-5.8,12-23.9,18.8-34.7
		c2.3-3.6,4.1-6.5,4.7-7.7c2.3-4.3,2.1-4.5,1.1-6c-0.4-0.6-1.4-1.8-2.6-3.1c-2.5-3-5.6-6.6-6.1-8c-0.8-2-0.1-9,0-9.7
		c0-0.1,0-0.1,0-0.2c0.6-1.2,1.4-1.9,2.1-1.7c0.4,0.1,1,0.5,1,2.1c0,2.6,0.6,6.2,1.4,6.9l0.6,0.5c7.4,6,10.9,9.8,10.9,11.9
		c0,3.3-3.8,18.4-7.1,29.7c-0.4,1.4-0.9,3.1-1.4,4.7c-3.3,11.6-7.8,27.5-15.1,28.8C165.8,244.2,165.1,244.3,164.4,244.3z M175,161.5
		c-0.2,2.1-0.6,7.7,0,9.2c0.5,1.2,3.8,5.1,5.9,7.7c1.2,1.4,2.1,2.6,2.6,3.1c1.4,2,1.4,2.6-0.9,7.1c-0.6,1.2-2.5,4.1-4.8,7.8
		c-6.8,10.8-18.1,28.8-18.6,34.3c-0.4,4.2-0.6,9.2,1.8,11.4c1.2,1.1,3,1.4,5.4,1c6.7-1.2,11.1-16.8,14.4-28.1
		c0.5-1.7,0.9-3.3,1.4-4.8c3.6-12.2,7.1-26.5,7.1-29.4c0-1.2-1.8-4.1-10.5-11.1l-0.6-0.5c-1.3-1.1-1.8-5.6-1.8-7.7
		c0-0.9-0.2-1.2-0.3-1.2S175.5,160.5,175,161.5z"></path>
	<path id="elhoheezfjfym" class="st8 wwikMrsc_91" d="M182.6,210.4c0.3-1.1,0.7-2.3,1-3.5l-10.4-4.1c-6.5,10.4-14.1,23.3-14.5,27.9
		c-0.7,7.6-0.2,14.4,7.8,12.9S179.1,221.9,182.6,210.4z"></path>
	<path id="eli57wgnjxm7s" class="st5 wwikMrsc_92" d="M164.4,244.3c-1.5,0.1-3-0.4-4.2-1.4c-2.7-2.4-2.6-7.6-2.1-12.2s8.6-18.3,14.6-28.1
		c0.1-0.2,0.4-0.3,0.6-0.2l10.4,4.1c0.2,0.1,0.4,0.4,0.3,0.6c-0.3,1.2-0.7,2.4-1,3.5c-0.4,1.4-0.9,3.1-1.4,4.7
		c-3.3,11.6-7.8,27.5-15.1,28.8C165.9,244.2,165.2,244.3,164.4,244.3z M173.4,203.4c-6,9.6-13.8,22.7-14.2,27.3
		c-0.4,4.2-0.6,9.2,1.8,11.4c1.2,1.1,3,1.4,5.4,1c6.7-1.2,11.1-16.8,14.4-28.1c0.5-1.7,0.9-3.3,1.4-4.8l0,0c0.3-1,0.6-2,0.9-3.1
		L173.4,203.4z"></path>
	<path id="elushiqic9kaf" class="st5 wwikMrsc_93" d="M168.5,210.5l-0.1,0.2l-0.3,0.5c-0.2,0.4-0.4,0.7-0.6,1.1c4.5,1.1,9,2.5,13.4,4.3l0.6-1.9
		C177.2,213,172.9,211.6,168.5,210.5z"></path>
	<path id="elt95mjcyqxhs" class="st5 wwikMrsc_94" d="M172,239.2c0.4-0.6,0.9-1.3,1.3-2c-5.1,0.2-10.1-0.6-14.9-2.3c0,0.8,0,1.5,0.1,2.2
		C162.8,238.6,167.4,239.3,172,239.2z"></path>
	<path id="elophyj9756i" class="st5 wwikMrsc_95" d="M162.2,221.7c-0.1,0.2-0.2,0.3-0.3,0.5s-0.2,0.4-0.3,0.6l-0.4,0.9c5.6,0.5,11,2,16,4.4
		c0.2-0.6,0.4-1.3,0.6-1.9C173,223.8,167.6,222.3,162.2,221.7z"></path>
	<path id="elzxc07ayrlzo" class="st7 wwikMrsc_96" d="M219.9,144.1c0,0,6.2,4.4,7.2,6.2s2.3,11.6,2.8,13.6s0.5,2.4,5.6,3.6s41.1,5.4,47.3,9.8
		s11.1,9.2,4.7,14.4s-24.8-4.5-35.7-9.4s-24.6-11.8-27-13.9s-1.7-15-1.7-16.4s-2.8-4.5-4.5-5.9S217.8,143.6,219.9,144.1z"></path>
	<path id="elh2ijhiow4bq" class="st5 wwikMrsc_97" d="M282.5,193.6c-7.2,0-17.9-5-26.3-8.9c-1.6-0.7-3.1-1.4-4.5-2.1
		c-10.7-4.8-24.6-11.8-27.1-14c-1.6-1.4-2.2-6.5-1.9-16c0-0.4,0-0.6,0-0.8c0-1-2.3-3.8-4.3-5.6c-1.3-1.1-1.1-1.8-0.9-2.2
		c0.3-0.7,1.3-0.8,2.6-0.5c0.1,0,0.1,0,0.2,0.1c0.6,0.4,6.3,4.5,7.4,6.4c0.7,1.3,1.5,6,2.1,9.9c0.3,1.7,0.5,3.2,0.7,3.9
		c0.5,1.9,0.5,2.1,5.3,3.2c1.3,0.3,4.6,0.8,8.9,1.4c12.7,1.9,33.8,5.1,38.6,8.4c3.8,2.7,7.8,6,7.9,9.6c0.1,1.9-1,3.8-3.2,5.6
		C286.3,193.1,284.4,193.7,282.5,193.6z M218.8,144.5c-0.2,0-0.4,0-0.6,0.1c0,0.1,0,0.4,0.7,1c1.5,1.3,4.7,4.6,4.7,6.3
		c0,0.2,0,0.4,0,0.8c-0.3,11.2,0.7,14.5,1.6,15.2c2.2,1.9,15.3,8.6,26.9,13.8c1.4,0.6,2.9,1.3,4.5,2.1c10.7,5,25.4,11.7,30.7,7.4
		c1.9-1.6,2.9-3.1,2.8-4.8c-0.1-3.2-4.1-6.4-7.5-8.8c-4.5-3.2-25.6-6.3-38.1-8.2c-4.3-0.6-7.7-1.1-9-1.4c-5-1.1-5.4-1.6-6-3.9
		c-0.2-0.8-0.4-2.2-0.7-4c-0.6-3.3-1.4-8.4-2-9.5c-0.8-1.4-5.2-4.7-7-6C219.4,144.6,219.1,144.5,218.8,144.5L218.8,144.5z"></path>
	<path id="el8c2hkfghact" class="st8 wwikMrsc_98" d="M251.9,182.2l-3.3-1.5l3.7-10.6c12.1,1.9,26.8,4.5,30.6,7.1c6.2,4.4,11.1,9.2,4.7,14.4
		S262.8,187.1,251.9,182.2z"></path>
	<path id="elmmnd67zz8vk" class="st5 wwikMrsc_99" d="M282.5,193.6c-7.2,0-17.9-5-26.3-8.9c-1.6-0.7-3.1-1.4-4.5-2.1l0,0l-3.3-1.5
		c-0.2-0.1-0.4-0.4-0.3-0.6l3.7-10.5c0.1-0.2,0.3-0.4,0.6-0.3c11.3,1.8,26.9,4.4,30.8,7.2s7.8,6,7.9,9.6c0.1,1.9-1,3.8-3.2,5.6
		C286.3,193.2,284.4,193.7,282.5,193.6z M252.1,181.8c1.4,0.6,2.9,1.3,4.5,2.1c10.7,5,25.4,11.7,30.7,7.4c1.9-1.6,2.9-3.1,2.8-4.8
		c-0.1-3.2-4.1-6.4-7.5-8.8c-3.7-2.6-18.8-5.2-30-7l-3.4,9.7L252.1,181.8L252.1,181.8z"></path>
	<path id="el5roa3psxezx" class="st5 wwikMrsc_100" d="M268.6,189.6c0.6,0.2,1.2,0.5,1.9,0.7l6.1-15.5l-1.3-0.4l-0.3-0.1l-0.4-0.1L268.6,189.6z"></path>
	<path id="ele7pxs4vi84m" class="st5 wwikMrsc_101" d="M264.8,172.3l-0.5-0.1l-1.4-0.2l-5.3,13l1.4,0.6l0.4,0.2l5.5-13.4L264.8,172.3z"></path>
	<path id="elh3ruxp6wkgp" class="st5 wwikMrsc_102" d="M285.9,179.6c-1.4,3-3.8,8.6-6.1,13.2c0.7,0.1,1.4,0.2,2.1,0.2c2.1-4.3,4.2-9,5.6-12
		C287,180.6,286.5,180.1,285.9,179.6z"></path>
	<path id="ely74by85j7g9" class="st6 wwikMrsc_103" d="M353,355.1c1.4,0.8,2.6,1.8,3.7,3c0,0-0.9,2.4-6.3,6.6c3.6,3.5,6.8,7.2,8.1,7.1
		c2.7-0.3,10-12.3,12.3-15.7s6.4-5.5,7-11.1s-2.7-6-4-4.3s-9.5,7.1-13.8,8.5s-7.8,2.6-7.8,2.6S351,354.1,353,355.1z"></path>
	<path id="elw3v68y9qwqs" class="st5 wwikMrsc_104" d="M358.4,372.2c-1.3,0-3.1-1.9-6.3-5c-0.7-0.7-1.4-1.4-2.1-2.2c-0.1-0.1-0.2-0.2-0.1-0.4
		c0-0.1,0.1-0.3,0.2-0.4c4.2-3.2,5.6-5.4,6-6.1c-0.9-1.1-2.1-1.9-3.3-2.6c-0.6-0.3-1.1-0.8-1.3-1.4c-0.2-0.9,0-1.8,0.4-2.6
		c0.1-0.1,0.1-0.2,0.2-0.2c0,0,3.5-1.3,7.8-2.6s12.3-6.7,13.6-8.3c0.7-0.9,2-1.3,3-0.9c0.7,0.3,2.3,1.4,1.8,5.6s-2.7,6.4-4.8,8.6
		c-0.9,0.8-1.6,1.8-2.4,2.7c-0.5,0.6-1.1,1.6-1.8,2.7c-4.5,6.8-8.7,12.9-10.9,13.2L358.4,372.2z M351.1,364.7
		c0.6,0.6,1.2,1.2,1.8,1.8c2.2,2.3,4.7,4.8,5.6,4.8c1.9-0.2,7.5-8.7,10.2-12.7c0.7-1.1,1.4-2.1,1.8-2.7c0.7-1,1.6-2,2.5-2.9
		c2-2.1,4.1-4.2,4.5-8c0.3-2.4-0.2-4.1-1.2-4.5c-0.7-0.2-1.4,0-1.9,0.6c-1.4,1.7-9.5,7.2-14.1,8.6c-3.7,1.1-6.8,2.3-7.5,2.6
		c-0.3,0.5-0.3,1.1-0.2,1.7c0.1,0.4,0.4,0.7,0.8,0.8c1.5,0.8,2.8,1.9,3.8,3.1c0.1,0.1,0.1,0.3,0.1,0.5
		C357.1,358.3,356.2,360.7,351.1,364.7z"></path>
	<path id="elqzvt5tc7ssd" class="st6 wwikMrsc_105" d="M377,340.4c-0.9,6.9-3,9.1-11,17.7c-6.2,6.7-8.6,10.9-9.5,12.9c0.6,0.5,1.3,0.7,2,0.8
		c2.7-0.3,10-12.3,12.3-15.7s6.4-5.5,7-11.1C378.2,342.5,377.8,341.1,377,340.4z"></path>
	<path id="elj1to2777qum" class="st5 wwikMrsc_106" d="M358.4,372.2c-0.8-0.1-1.6-0.4-2.2-0.9c-0.2-0.1-0.3-0.4-0.2-0.6c1.1-2.4,3.6-6.5,9.6-13
		l0.5-0.5c7.6-8.1,9.6-10.3,10.4-16.9c0-0.2,0.2-0.4,0.3-0.4c0.2-0.1,0.4,0,0.5,0.1c0.7,0.7,1.4,2.1,1,5c-0.5,4.1-2.7,6.4-4.8,8.6
		c-0.9,0.8-1.6,1.8-2.4,2.7c-0.5,0.6-1.1,1.6-1.8,2.7c-4.5,6.8-8.7,12.9-10.9,13.2L358.4,372.2z M357.1,370.7
		c0.4,0.3,0.9,0.5,1.3,0.5c1.9-0.2,7.5-8.7,10.2-12.7c0.7-1.1,1.4-2.1,1.8-2.7c0.7-1,1.6-2,2.5-2.9c2-2.1,4.1-4.2,4.5-8
		c0.2-1,0.1-2-0.1-3c-1,5.8-3.5,8.5-10.5,16l-0.5,0.5C360.5,364.7,358.1,368.7,357.1,370.7L357.1,370.7z"></path>
	<path id="elk2gis4ax14j" class="st6 wwikMrsc_107" d="M226.6,280.9c-0.3,0-0.5-0.2-0.5-0.5c0-0.2,0.1-0.3,0.2-0.4c0,0,1.1-0.8,2.9-2.1
		c0.2-0.2,0.5-0.1,0.7,0.1c0.2,0.2,0.1,0.5-0.1,0.7l-2.9,2.1C226.8,280.9,226.7,280.9,226.6,280.9z"></path>
	<path id="elpski2comkp9" class="st5 wwikMrsc_108" d="M222.9,282.7c0,0,33-25.3,58.7-34.7c25.7-9.3,34.3-3,32.7,6c-1.7,9-13.3,38-22.3,54
		s-24.3,42.3-24.3,42.3s14.7,20.3,16,22.7s-8.3,2.7-12.3,0.3c-3.4-1.8-6.8-3.8-10-6c-11.7-7.7-12.3-10.7-10.7-13.3
		c5.3-8.5,11.8-15.7,14.3-26c4.7-18.7,13.4-43,14.3-40.3c-8.4,8-18.4,14.1-29.3,18c-17.7,6-29.2,4.5-37-6"></path>
	<path id="elkmsowg60qah" class="st5 wwikMrsc_109" d="M278.9,375.5c-2.8,0-6.1-0.6-7.9-1.6c-0.9-0.5-1.6-0.9-2.2-1.2c-2.7-1.5-5.3-3.1-7.8-4.8
		c-11.6-7.6-12.8-10.9-10.8-14c1.4-2.2,2.8-4.3,4.2-6.4c4.2-6.1,8.2-11.9,10.1-19.5c2.9-11.7,8.5-29.2,12-37
		c-7.8,6.7-16.7,11.8-26.4,15.2c-18.2,6.2-29.8,4.3-37.6-6.2c-0.2-0.2-0.1-0.5,0.1-0.7c0.2-0.2,0.5-0.1,0.7,0.1
		c7.5,10,18.8,11.8,36.5,5.8c10.3-3.7,19.8-9.3,27.9-16.7c0.6-1,1-1.5,1.4-1.6c0.3,0,0.6,0.2,0.7,0.5c0.1,0.2,0,0.4-0.1,0.5
		c0,0-0.5,0.5-1.4,1.3c-2.6,5-8.8,22.7-12.8,38.8c-1.9,7.8-6,13.6-10.2,19.8c-1.4,2-2.8,4.1-4.2,6.3s-1.5,4.7,10.5,12.6
		c2.5,1.7,5.1,3.3,7.7,4.7c0.6,0.3,1.3,0.7,2.2,1.2c3.3,1.9,10.4,1.9,11.6,0.7c0.1-0.1,0.1-0.2,0-0.4c-1.3-2.3-15.8-22.4-16-22.6
		c-0.1-0.2-0.1-0.4,0-0.5c0.2-0.3,15.4-26.5,24.3-42.3c9.1-16.2,20.6-45,22.3-53.8c0.6-3.2-0.2-5.8-2.2-7.5
		c-2.7-2.3-10.2-5.1-29.8,2.1c-25.3,9.2-58.2,34.3-58.5,34.6c-0.2,0.2-0.5,0.2-0.7,0s-0.2-0.5,0-0.7c0,0,0,0,0,0
		c0.3-0.3,33.4-25.5,58.8-34.7c14.9-5.4,25.8-6.1,30.8-1.9c2.3,2,3.2,4.9,2.6,8.4c-1.6,8.9-13.2,37.9-22.4,54.2
		c-8.4,14.9-22.5,39.2-24.2,42.1c1.8,2.5,14.6,20.2,15.8,22.5c0.3,0.5,0.2,1.1-0.2,1.5C283,375.1,281.1,375.5,278.9,375.5z"></path>
	<path id="el2zl9wn4mc57" class="st6 wwikMrsc_110" d="M233.9,275.8c-0.2,0-0.3-0.1-0.4-0.2c-0.2-0.2-0.1-0.5,0.1-0.7c0,0,0,0,0,0
		c6.7-4.7,16.1-11,23-14.5c0.2-0.2,0.5-0.1,0.7,0.1c0.2,0.2,0.1,0.5-0.1,0.7c0,0-0.1,0-0.1,0.1c-6.8,3.5-16.2,9.8-22.9,14.5
		C234.1,275.8,234,275.8,233.9,275.8z"></path>
	<path id="elbsverrskdfq" class="st6 wwikMrsc_111" d="M267.3,296.9c-0.1,0-0.3-0.1-0.4-0.2c-0.2-0.2-0.1-0.5,0.1-0.7l8.6-7.2
		c0.5-1.9,6.2-21.2,18.9-31.2c0.2-0.2,0.5-0.1,0.7,0.1c0,0,0,0,0,0c0.2,0.2,0.1,0.5-0.1,0.7c-13,10.3-18.5,30.6-18.6,30.8
		c0,0.1-0.1,0.2-0.2,0.3l-8.7,7.3C267.5,296.9,267.4,296.9,267.3,296.9z"></path>
	<path id="elp5rpmcqmpwd" class="st6 wwikMrsc_112" d="M301.1,290.1c-0.1,0-0.1,0-0.2,0c-0.3-0.1-0.4-0.4-0.3-0.6c0,0,0,0,0,0l1.8-4.6
		c0.1-0.3,0.4-0.4,0.6-0.3c0,0,0,0,0,0c0.3,0.1,0.4,0.4,0.3,0.6l-1.8,4.6C301.5,290,301.3,290.1,301.1,290.1z"></path>
	<path id="elrawek6d3eq" class="st6 wwikMrsc_113" d="M304.5,281.5c-0.1,0-0.1,0-0.2,0c-0.3-0.1-0.4-0.4-0.3-0.6l6.6-16.5
		c0.1-0.3,0.4-0.4,0.6-0.3c0,0,0,0,0,0c0.3,0.1,0.4,0.4,0.3,0.6c0,0,0,0,0,0l-6.6,16.5C304.9,281.4,304.7,281.5,304.5,281.5z"></path>
	<path id="elntnwfwia24j" class="st7 wwikMrsc_114" d="M271.2,373.4c4,2.3,13.7,2,12.3-0.3s-16-22.7-16-22.7s4.1-7,9.2-15.9
		c-6.4-0.8-10.1-3.6-12-5.9c-2.7,10-9,17.1-14.2,25.5c-1.7,2.7-1,5.7,10.7,13.3C264.4,369.6,267.8,371.6,271.2,373.4z"></path>
	<path id="elf0lwmgotjde" class="st5 wwikMrsc_115" d="M278.9,375.5c-2.8,0-6.1-0.6-7.9-1.6l0,0c-0.9-0.5-1.6-0.9-2.2-1.2
		c-2.7-1.5-5.3-3.1-7.8-4.8c-11.6-7.6-12.8-10.9-10.8-14c1.4-2.2,2.8-4.3,4.2-6.3c4.1-6,8-11.7,9.9-19c0-0.2,0.2-0.3,0.4-0.4
		c0.2,0,0.4,0,0.5,0.2c1.8,2.2,5.3,4.9,11.7,5.7c0.2,0,0.3,0.1,0.4,0.3c0.1,0.1,0.1,0.3,0,0.5c-4.6,7.9-8.2,14.3-9.1,15.6
		c1.8,2.5,14.6,20.2,15.8,22.5c0.3,0.5,0.2,1.1-0.2,1.5C283,375.1,281.1,375.5,278.9,375.5z M265,329.6c-2.1,7.1-5.8,12.6-9.8,18.5
		c-1.4,2-2.8,4.1-4.2,6.3s-1.5,4.7,10.5,12.6c2.5,1.7,5.1,3.3,7.7,4.7c0.6,0.3,1.3,0.7,2.2,1.2l0,0c3.3,1.9,10.4,1.9,11.6,0.7
		c0.1-0.1,0.1-0.2,0-0.4c-1.3-2.3-15.8-22.4-16-22.6c-0.1-0.2-0.1-0.4,0-0.5c0,0,3.9-6.6,8.9-15.3C270.3,334,267,331.6,265,329.6z"></path>
	<path id="elbefrv3e1s16" class="st6 wwikMrsc_116" d="M267.5,350.4c0,0-1.3-1-3,1.7c-1,1.7-1.9,3.5-2.7,5.3l-7.7-8.8c-1.2,1.8-2.4,3.6-3.6,5.5
		c-1.7,2.7-1,5.7,10.7,13.3c3.2,2.2,6.6,4.2,10,6c4,2.3,13.7,2,12.3-0.3S267.5,350.4,267.5,350.4z"></path>
	<path id="els8da1mi6x8i" class="st5 wwikMrsc_117" d="M278.9,375.5c-2.8,0-6.1-0.6-7.9-1.6c-0.9-0.5-1.6-0.9-2.2-1.2c-2.7-1.5-5.3-3.1-7.8-4.8
		c-11.6-7.6-12.8-10.9-10.8-14c1.2-1.9,2.5-3.8,3.6-5.5c0.1-0.1,0.2-0.2,0.4-0.2c0.2,0,0.3,0.1,0.4,0.2l7.2,8.2
		c0.7-1.6,1.5-3.2,2.4-4.7c0.5-1,1.4-1.7,2.4-2c0.5-0.1,0.9,0,1.3,0.2c0,0,0.1,0.1,0.1,0.1c0.6,0.8,14.7,20.4,16,22.7
		c0.3,0.5,0.2,1.1-0.2,1.5C283,375.1,281.1,375.5,278.9,375.5z M254.2,349.4c-1,1.5-2.1,3.2-3.2,4.9c-1.3,2-1.5,4.7,10.5,12.6
		c2.5,1.7,5.1,3.3,7.7,4.7c0.6,0.3,1.3,0.7,2.2,1.2c3.3,1.9,10.4,1.9,11.6,0.7c0.1-0.1,0.1-0.2,0-0.4c-1.3-2.2-14.9-21.1-15.9-22.5
		c-0.2-0.1-0.4-0.1-0.5,0c-0.4,0.1-1,0.4-1.7,1.6c-1,1.7-1.9,3.4-2.6,5.2c-0.1,0.2-0.2,0.3-0.4,0.3c-0.2,0-0.4,0-0.5-0.2
		L254.2,349.4z"></path>
	<path id="elnba5ul82xdh" class="st6 wwikMrsc_118" d="M261.2,367.4c3.2,2.2,6.6,4.2,10,6c3.6,2.1,11.8,2,12.4,0.3c-15.2-0.8-27.8-12.9-33.3-19.2
		C249,357.1,250.2,360.1,261.2,367.4z"></path>
	<path id="elvzby1n6yn7l" class="st5 wwikMrsc_119" d="M278.8,375.5c-2.7,0.1-5.4-0.5-7.8-1.7c-0.9-0.5-1.6-0.9-2.2-1.2c-2.7-1.5-5.3-3.1-7.8-4.8
		l0,0c-11.2-7.4-12.6-10.6-11.1-13.5c0.1-0.2,0.4-0.3,0.7-0.2c0.1,0,0.1,0.1,0.1,0.1c6,6.8,18.2,18.3,33,19c0.2,0,0.3,0.1,0.4,0.2
		c0.1,0.1,0.1,0.3,0.1,0.5c-0.3,0.5-0.8,0.9-1.4,1.1C281.5,375.3,280.1,375.5,278.8,375.5z M250.5,355.4c-0.5,1.9,0.7,4.7,11,11.5
		l0,0c2.5,1.7,5.1,3.3,7.7,4.7c0.6,0.3,1.3,0.7,2.2,1.2c2.7,1.5,8.2,1.9,10.7,1.1C268.1,372.7,256.5,362.2,250.5,355.4L250.5,355.4z
		"></path>
</g>
<style data-made-with="vivus-instant">.wwikMrsc_0{stroke-dasharray:1108 1110;stroke-dashoffset:1109;animation:wwikMrsc_draw_0 5200ms ease 0ms infinite,wwikMrsc_fade 5200ms linear 0ms infinite;}.wwikMrsc_1{stroke-dasharray:1108 1110;stroke-dashoffset:1109;animation:wwikMrsc_draw_1 5200ms ease 0ms infinite,wwikMrsc_fade 5200ms linear 0ms infinite;}.wwikMrsc_2{stroke-dasharray:1114 1116;stroke-dashoffset:1115;animation:wwikMrsc_draw_2 5200ms ease 0ms infinite,wwikMrsc_fade 5200ms linear 0ms infinite;}.wwikMrsc_3{stroke-dasharray:1115 1117;stroke-dashoffset:1116;animation:wwikMrsc_draw_3 5200ms ease 0ms infinite,wwikMrsc_fade 5200ms linear 0ms infinite;}.wwikMrsc_4{stroke-dasharray:1115 1117;stroke-dashoffset:1116;animation:wwikMrsc_draw_4 5200ms ease 0ms infinite,wwikMrsc_fade 5200ms linear 0ms infinite;}.wwikMrsc_5{stroke-dasharray:28 30;stroke-dashoffset:29;animation:wwikMrsc_draw_5 5200ms ease 0ms infinite,wwikMrsc_fade 5200ms linear 0ms infinite;}.wwikMrsc_6{stroke-dasharray:22 24;stroke-dashoffset:23;animation:wwikMrsc_draw_6 5200ms ease 0ms infinite,wwikMrsc_fade 5200ms linear 0ms infinite;}.wwikMrsc_7{stroke-dasharray:28 30;stroke-dashoffset:29;animation:wwikMrsc_draw_7 5200ms ease 0ms infinite,wwikMrsc_fade 5200ms linear 0ms infinite;}.wwikMrsc_8{stroke-dasharray:22 24;stroke-dashoffset:23;animation:wwikMrsc_draw_8 5200ms ease 0ms infinite,wwikMrsc_fade 5200ms linear 0ms infinite;}.wwikMrsc_9{stroke-dasharray:145 147;stroke-dashoffset:146;animation:wwikMrsc_draw_9 5200ms ease 0ms infinite,wwikMrsc_fade 5200ms linear 0ms infinite;}.wwikMrsc_10{stroke-dasharray:32 34;stroke-dashoffset:33;animation:wwikMrsc_draw_10 5200ms ease 0ms infinite,wwikMrsc_fade 5200ms linear 0ms infinite;}.wwikMrsc_11{stroke-dasharray:32 34;stroke-dashoffset:33;animation:wwikMrsc_draw_11 5200ms ease 0ms infinite,wwikMrsc_fade 5200ms linear 0ms infinite;}.wwikMrsc_12{stroke-dasharray:32 34;stroke-dashoffset:33;animation:wwikMrsc_draw_12 5200ms ease 0ms infinite,wwikMrsc_fade 5200ms linear 0ms infinite;}.wwikMrsc_13{stroke-dasharray:32 34;stroke-dashoffset:33;animation:wwikMrsc_draw_13 5200ms ease 0ms infinite,wwikMrsc_fade 5200ms linear 0ms infinite;}.wwikMrsc_14{stroke-dasharray:32 34;stroke-dashoffset:33;animation:wwikMrsc_draw_14 5200ms ease 0ms infinite,wwikMrsc_fade 5200ms linear 0ms infinite;}.wwikMrsc_15{stroke-dasharray:32 34;stroke-dashoffset:33;animation:wwikMrsc_draw_15 5200ms ease 0ms infinite,wwikMrsc_fade 5200ms linear 0ms infinite;}.wwikMrsc_16{stroke-dasharray:32 34;stroke-dashoffset:33;animation:wwikMrsc_draw_16 5200ms ease 0ms infinite,wwikMrsc_fade 5200ms linear 0ms infinite;}.wwikMrsc_17{stroke-dasharray:32 34;stroke-dashoffset:33;animation:wwikMrsc_draw_17 5200ms ease 0ms infinite,wwikMrsc_fade 5200ms linear 0ms infinite;}.wwikMrsc_18{stroke-dasharray:32 34;stroke-dashoffset:33;animation:wwikMrsc_draw_18 5200ms ease 0ms infinite,wwikMrsc_fade 5200ms linear 0ms infinite;}.wwikMrsc_19{stroke-dasharray:32 34;stroke-dashoffset:33;animation:wwikMrsc_draw_19 5200ms ease 0ms infinite,wwikMrsc_fade 5200ms linear 0ms infinite;}.wwikMrsc_20{stroke-dasharray:32 34;stroke-dashoffset:33;animation:wwikMrsc_draw_20 5200ms ease 0ms infinite,wwikMrsc_fade 5200ms linear 0ms infinite;}.wwikMrsc_21{stroke-dasharray:32 34;stroke-dashoffset:33;animation:wwikMrsc_draw_21 5200ms ease 0ms infinite,wwikMrsc_fade 5200ms linear 0ms infinite;}.wwikMrsc_22{stroke-dasharray:32 34;stroke-dashoffset:33;animation:wwikMrsc_draw_22 5200ms ease 0ms infinite,wwikMrsc_fade 5200ms linear 0ms infinite;}.wwikMrsc_23{stroke-dasharray:32 34;stroke-dashoffset:33;animation:wwikMrsc_draw_23 5200ms ease 0ms infinite,wwikMrsc_fade 5200ms linear 0ms infinite;}.wwikMrsc_24{stroke-dasharray:32 34;stroke-dashoffset:33;animation:wwikMrsc_draw_24 5200ms ease 0ms infinite,wwikMrsc_fade 5200ms linear 0ms infinite;}.wwikMrsc_25{stroke-dasharray:32 34;stroke-dashoffset:33;animation:wwikMrsc_draw_25 5200ms ease 0ms infinite,wwikMrsc_fade 5200ms linear 0ms infinite;}.wwikMrsc_26{stroke-dasharray:32 34;stroke-dashoffset:33;animation:wwikMrsc_draw_26 5200ms ease 0ms infinite,wwikMrsc_fade 5200ms linear 0ms infinite;}.wwikMrsc_27{stroke-dasharray:32 34;stroke-dashoffset:33;animation:wwikMrsc_draw_27 5200ms ease 0ms infinite,wwikMrsc_fade 5200ms linear 0ms infinite;}.wwikMrsc_28{stroke-dasharray:32 34;stroke-dashoffset:33;animation:wwikMrsc_draw_28 5200ms ease 0ms infinite,wwikMrsc_fade 5200ms linear 0ms infinite;}.wwikMrsc_29{stroke-dasharray:32 34;stroke-dashoffset:33;animation:wwikMrsc_draw_29 5200ms ease 0ms infinite,wwikMrsc_fade 5200ms linear 0ms infinite;}.wwikMrsc_30{stroke-dasharray:32 34;stroke-dashoffset:33;animation:wwikMrsc_draw_30 5200ms ease 0ms infinite,wwikMrsc_fade 5200ms linear 0ms infinite;}.wwikMrsc_31{stroke-dasharray:37 39;stroke-dashoffset:38;animation:wwikMrsc_draw_31 5200ms ease 0ms infinite,wwikMrsc_fade 5200ms linear 0ms infinite;}.wwikMrsc_32{stroke-dasharray:30 32;stroke-dashoffset:31;animation:wwikMrsc_draw_32 5200ms ease 0ms infinite,wwikMrsc_fade 5200ms linear 0ms infinite;}.wwikMrsc_33{stroke-dasharray:30 32;stroke-dashoffset:31;animation:wwikMrsc_draw_33 5200ms ease 0ms infinite,wwikMrsc_fade 5200ms linear 0ms infinite;}.wwikMrsc_34{stroke-dasharray:30 32;stroke-dashoffset:31;animation:wwikMrsc_draw_34 5200ms ease 0ms infinite,wwikMrsc_fade 5200ms linear 0ms infinite;}.wwikMrsc_35{stroke-dasharray:30 32;stroke-dashoffset:31;animation:wwikMrsc_draw_35 5200ms ease 0ms infinite,wwikMrsc_fade 5200ms linear 0ms infinite;}.wwikMrsc_36{stroke-dasharray:37 39;stroke-dashoffset:38;animation:wwikMrsc_draw_36 5200ms ease 0ms infinite,wwikMrsc_fade 5200ms linear 0ms infinite;}.wwikMrsc_37{stroke-dasharray:46 48;stroke-dashoffset:47;animation:wwikMrsc_draw_37 5200ms ease 0ms infinite,wwikMrsc_fade 5200ms linear 0ms infinite;}.wwikMrsc_38{stroke-dasharray:61 63;stroke-dashoffset:62;animation:wwikMrsc_draw_38 5200ms ease 0ms infinite,wwikMrsc_fade 5200ms linear 0ms infinite;}.wwikMrsc_39{stroke-dasharray:37 39;stroke-dashoffset:38;animation:wwikMrsc_draw_39 5200ms ease 0ms infinite,wwikMrsc_fade 5200ms linear 0ms infinite;}.wwikMrsc_40{stroke-dasharray:37 39;stroke-dashoffset:38;animation:wwikMrsc_draw_40 5200ms ease 0ms infinite,wwikMrsc_fade 5200ms linear 0ms infinite;}.wwikMrsc_41{stroke-dasharray:46 48;stroke-dashoffset:47;animation:wwikMrsc_draw_41 5200ms ease 0ms infinite,wwikMrsc_fade 5200ms linear 0ms infinite;}.wwikMrsc_42{stroke-dasharray:62 64;stroke-dashoffset:63;animation:wwikMrsc_draw_42 5200ms ease 0ms infinite,wwikMrsc_fade 5200ms linear 0ms infinite;}.wwikMrsc_43{stroke-dasharray:81 83;stroke-dashoffset:82;animation:wwikMrsc_draw_43 5200ms ease 0ms infinite,wwikMrsc_fade 5200ms linear 0ms infinite;}.wwikMrsc_44{stroke-dasharray:203 205;stroke-dashoffset:204;animation:wwikMrsc_draw_44 5200ms ease 0ms infinite,wwikMrsc_fade 5200ms linear 0ms infinite;}.wwikMrsc_45{stroke-dasharray:147 149;stroke-dashoffset:148;animation:wwikMrsc_draw_45 5200ms ease 0ms infinite,wwikMrsc_fade 5200ms linear 0ms infinite;}.wwikMrsc_46{stroke-dasharray:137 139;stroke-dashoffset:138;animation:wwikMrsc_draw_46 5200ms ease 0ms infinite,wwikMrsc_fade 5200ms linear 0ms infinite;}.wwikMrsc_47{stroke-dasharray:85 87;stroke-dashoffset:86;animation:wwikMrsc_draw_47 5200ms ease 0ms infinite,wwikMrsc_fade 5200ms linear 0ms infinite;}.wwikMrsc_48{stroke-dasharray:419 421;stroke-dashoffset:420;animation:wwikMrsc_draw_48 5200ms ease 0ms infinite,wwikMrsc_fade 5200ms linear 0ms infinite;}.wwikMrsc_49{stroke-dasharray:223 225;stroke-dashoffset:224;animation:wwikMrsc_draw_49 5200ms ease 0ms infinite,wwikMrsc_fade 5200ms linear 0ms infinite;}.wwikMrsc_50{stroke-dasharray:449 451;stroke-dashoffset:450;animation:wwikMrsc_draw_50 5200ms ease 0ms infinite,wwikMrsc_fade 5200ms linear 0ms infinite;}.wwikMrsc_51{stroke-dasharray:140 142;stroke-dashoffset:141;animation:wwikMrsc_draw_51 5200ms ease 0ms infinite,wwikMrsc_fade 5200ms linear 0ms infinite;}.wwikMrsc_52{stroke-dasharray:280 282;stroke-dashoffset:281;animation:wwikMrsc_draw_52 5200ms ease 0ms infinite,wwikMrsc_fade 5200ms linear 0ms infinite;}.wwikMrsc_53{stroke-dasharray:458 460;stroke-dashoffset:459;animation:wwikMrsc_draw_53 5200ms ease 0ms infinite,wwikMrsc_fade 5200ms linear 0ms infinite;}.wwikMrsc_54{stroke-dasharray:913 915;stroke-dashoffset:914;animation:wwikMrsc_draw_54 5200ms ease 0ms infinite,wwikMrsc_fade 5200ms linear 0ms infinite;}.wwikMrsc_55{stroke-dasharray:161 163;stroke-dashoffset:162;animation:wwikMrsc_draw_55 5200ms ease 0ms infinite,wwikMrsc_fade 5200ms linear 0ms infinite;}.wwikMrsc_56{stroke-dasharray:320 322;stroke-dashoffset:321;animation:wwikMrsc_draw_56 5200ms ease 0ms infinite,wwikMrsc_fade 5200ms linear 0ms infinite;}.wwikMrsc_57{stroke-dasharray:530 532;stroke-dashoffset:531;animation:wwikMrsc_draw_57 5200ms ease 0ms infinite,wwikMrsc_fade 5200ms linear 0ms infinite;}.wwikMrsc_58{stroke-dasharray:1057 1059;stroke-dashoffset:1058;animation:wwikMrsc_draw_58 5200ms ease 0ms infinite,wwikMrsc_fade 5200ms linear 0ms infinite;}.wwikMrsc_59{stroke-dasharray:42 44;stroke-dashoffset:43;animation:wwikMrsc_draw_59 5200ms ease 0ms infinite,wwikMrsc_fade 5200ms linear 0ms infinite;}.wwikMrsc_60{stroke-dasharray:87 89;stroke-dashoffset:88;animation:wwikMrsc_draw_60 5200ms ease 0ms infinite,wwikMrsc_fade 5200ms linear 0ms infinite;}.wwikMrsc_61{stroke-dasharray:89 91;stroke-dashoffset:90;animation:wwikMrsc_draw_61 5200ms ease 0ms infinite,wwikMrsc_fade 5200ms linear 0ms infinite;}.wwikMrsc_62{stroke-dasharray:369 371;stroke-dashoffset:370;animation:wwikMrsc_draw_62 5200ms ease 0ms infinite,wwikMrsc_fade 5200ms linear 0ms infinite;}.wwikMrsc_63{stroke-dasharray:99 101;stroke-dashoffset:100;animation:wwikMrsc_draw_63 5200ms ease 0ms infinite,wwikMrsc_fade 5200ms linear 0ms infinite;}.wwikMrsc_64{stroke-dasharray:104 106;stroke-dashoffset:105;animation:wwikMrsc_draw_64 5200ms ease 0ms infinite,wwikMrsc_fade 5200ms linear 0ms infinite;}.wwikMrsc_65{stroke-dasharray:37 39;stroke-dashoffset:38;animation:wwikMrsc_draw_65 5200ms ease 0ms infinite,wwikMrsc_fade 5200ms linear 0ms infinite;}.wwikMrsc_66{stroke-dasharray:46 48;stroke-dashoffset:47;animation:wwikMrsc_draw_66 5200ms ease 0ms infinite,wwikMrsc_fade 5200ms linear 0ms infinite;}.wwikMrsc_67{stroke-dasharray:115 117;stroke-dashoffset:116;animation:wwikMrsc_draw_67 5200ms ease 0ms infinite,wwikMrsc_fade 5200ms linear 0ms infinite;}.wwikMrsc_68{stroke-dasharray:178 180;stroke-dashoffset:179;animation:wwikMrsc_draw_68 5200ms ease 0ms infinite,wwikMrsc_fade 5200ms linear 0ms infinite;}.wwikMrsc_69{stroke-dasharray:355 357;stroke-dashoffset:356;animation:wwikMrsc_draw_69 5200ms ease 0ms infinite,wwikMrsc_fade 5200ms linear 0ms infinite;}.wwikMrsc_70{stroke-dasharray:47 49;stroke-dashoffset:48;animation:wwikMrsc_draw_70 5200ms ease 0ms infinite,wwikMrsc_fade 5200ms linear 0ms infinite;}.wwikMrsc_71{stroke-dasharray:92 94;stroke-dashoffset:93;animation:wwikMrsc_draw_71 5200ms ease 0ms infinite,wwikMrsc_fade 5200ms linear 0ms infinite;}.wwikMrsc_72{stroke-dasharray:42 44;stroke-dashoffset:43;animation:wwikMrsc_draw_72 5200ms ease 0ms infinite,wwikMrsc_fade 5200ms linear 0ms infinite;}.wwikMrsc_73{stroke-dasharray:82 84;stroke-dashoffset:83;animation:wwikMrsc_draw_73 5200ms ease 0ms infinite,wwikMrsc_fade 5200ms linear 0ms infinite;}.wwikMrsc_74{stroke-dasharray:47 49;stroke-dashoffset:48;animation:wwikMrsc_draw_74 5200ms ease 0ms infinite,wwikMrsc_fade 5200ms linear 0ms infinite;}.wwikMrsc_75{stroke-dasharray:93 95;stroke-dashoffset:94;animation:wwikMrsc_draw_75 5200ms ease 0ms infinite,wwikMrsc_fade 5200ms linear 0ms infinite;}.wwikMrsc_76{stroke-dasharray:83 85;stroke-dashoffset:84;animation:wwikMrsc_draw_76 5200ms ease 0ms infinite,wwikMrsc_fade 5200ms linear 0ms infinite;}.wwikMrsc_77{stroke-dasharray:100 102;stroke-dashoffset:101;animation:wwikMrsc_draw_77 5200ms ease 0ms infinite,wwikMrsc_fade 5200ms linear 0ms infinite;}.wwikMrsc_78{stroke-dasharray:198 200;stroke-dashoffset:199;animation:wwikMrsc_draw_78 5200ms ease 0ms infinite,wwikMrsc_fade 5200ms linear 0ms infinite;}.wwikMrsc_79{stroke-dasharray:44 46;stroke-dashoffset:45;animation:wwikMrsc_draw_79 5200ms ease 0ms infinite,wwikMrsc_fade 5200ms linear 0ms infinite;}.wwikMrsc_80{stroke-dasharray:85 87;stroke-dashoffset:86;animation:wwikMrsc_draw_80 5200ms ease 0ms infinite,wwikMrsc_fade 5200ms linear 0ms infinite;}.wwikMrsc_81{stroke-dasharray:125 127;stroke-dashoffset:126;animation:wwikMrsc_draw_81 5200ms ease 0ms infinite,wwikMrsc_fade 5200ms linear 0ms infinite;}.wwikMrsc_82{stroke-dasharray:248 250;stroke-dashoffset:249;animation:wwikMrsc_draw_82 5200ms ease 0ms infinite,wwikMrsc_fade 5200ms linear 0ms infinite;}.wwikMrsc_83{stroke-dasharray:15 17;stroke-dashoffset:16;animation:wwikMrsc_draw_83 5200ms ease 0ms infinite,wwikMrsc_fade 5200ms linear 0ms infinite;}.wwikMrsc_84{stroke-dasharray:31 33;stroke-dashoffset:32;animation:wwikMrsc_draw_84 5200ms ease 0ms infinite,wwikMrsc_fade 5200ms linear 0ms infinite;}.wwikMrsc_85{stroke-dasharray:21 23;stroke-dashoffset:22;animation:wwikMrsc_draw_85 5200ms ease 0ms infinite,wwikMrsc_fade 5200ms linear 0ms infinite;}.wwikMrsc_86{stroke-dasharray:23 25;stroke-dashoffset:24;animation:wwikMrsc_draw_86 5200ms ease 0ms infinite,wwikMrsc_fade 5200ms linear 0ms infinite;}.wwikMrsc_87{stroke-dasharray:23 25;stroke-dashoffset:24;animation:wwikMrsc_draw_87 5200ms ease 0ms infinite,wwikMrsc_fade 5200ms linear 0ms infinite;}.wwikMrsc_88{stroke-dasharray:19 21;stroke-dashoffset:20;animation:wwikMrsc_draw_88 5200ms ease 0ms infinite,wwikMrsc_fade 5200ms linear 0ms infinite;}.wwikMrsc_89{stroke-dasharray:195 197;stroke-dashoffset:196;animation:wwikMrsc_draw_89 5200ms ease 0ms infinite,wwikMrsc_fade 5200ms linear 0ms infinite;}.wwikMrsc_90{stroke-dasharray:390 392;stroke-dashoffset:391;animation:wwikMrsc_draw_90 5200ms ease 0ms infinite,wwikMrsc_fade 5200ms linear 0ms infinite;}.wwikMrsc_91{stroke-dasharray:103 105;stroke-dashoffset:104;animation:wwikMrsc_draw_91 5200ms ease 0ms infinite,wwikMrsc_fade 5200ms linear 0ms infinite;}.wwikMrsc_92{stroke-dasharray:206 208;stroke-dashoffset:207;animation:wwikMrsc_draw_92 5200ms ease 0ms infinite,wwikMrsc_fade 5200ms linear 0ms infinite;}.wwikMrsc_93{stroke-dasharray:32 34;stroke-dashoffset:33;animation:wwikMrsc_draw_93 5200ms ease 0ms infinite,wwikMrsc_fade 5200ms linear 0ms infinite;}.wwikMrsc_94{stroke-dasharray:34 36;stroke-dashoffset:35;animation:wwikMrsc_draw_94 5200ms ease 0ms infinite,wwikMrsc_fade 5200ms linear 0ms infinite;}.wwikMrsc_95{stroke-dasharray:38 40;stroke-dashoffset:39;animation:wwikMrsc_draw_95 5200ms ease 0ms infinite,wwikMrsc_fade 5200ms linear 0ms infinite;}.wwikMrsc_96{stroke-dasharray:195 197;stroke-dashoffset:196;animation:wwikMrsc_draw_96 5200ms ease 0ms infinite,wwikMrsc_fade 5200ms linear 0ms infinite;}.wwikMrsc_97{stroke-dasharray:390 392;stroke-dashoffset:391;animation:wwikMrsc_draw_97 5200ms ease 0ms infinite,wwikMrsc_fade 5200ms linear 0ms infinite;}.wwikMrsc_98{stroke-dasharray:104 106;stroke-dashoffset:105;animation:wwikMrsc_draw_98 5200ms ease 0ms infinite,wwikMrsc_fade 5200ms linear 0ms infinite;}.wwikMrsc_99{stroke-dasharray:206 208;stroke-dashoffset:207;animation:wwikMrsc_draw_99 5200ms ease 0ms infinite,wwikMrsc_fade 5200ms linear 0ms infinite;}.wwikMrsc_100{stroke-dasharray:38 40;stroke-dashoffset:39;animation:wwikMrsc_draw_100 5200ms ease 0ms infinite,wwikMrsc_fade 5200ms linear 0ms infinite;}.wwikMrsc_101{stroke-dasharray:33 35;stroke-dashoffset:34;animation:wwikMrsc_draw_101 5200ms ease 0ms infinite,wwikMrsc_fade 5200ms linear 0ms infinite;}.wwikMrsc_102{stroke-dasharray:33 35;stroke-dashoffset:34;animation:wwikMrsc_draw_102 5200ms ease 0ms infinite,wwikMrsc_fade 5200ms linear 0ms infinite;}.wwikMrsc_103{stroke-dasharray:96 98;stroke-dashoffset:97;animation:wwikMrsc_draw_103 5200ms ease 0ms infinite,wwikMrsc_fade 5200ms linear 0ms infinite;}.wwikMrsc_104{stroke-dasharray:190 192;stroke-dashoffset:191;animation:wwikMrsc_draw_104 5200ms ease 0ms infinite,wwikMrsc_fade 5200ms linear 0ms infinite;}.wwikMrsc_105{stroke-dasharray:78 80;stroke-dashoffset:79;animation:wwikMrsc_draw_105 5200ms ease 0ms infinite,wwikMrsc_fade 5200ms linear 0ms infinite;}.wwikMrsc_106{stroke-dasharray:154 156;stroke-dashoffset:155;animation:wwikMrsc_draw_106 5200ms ease 0ms infinite,wwikMrsc_fade 5200ms linear 0ms infinite;}.wwikMrsc_107{stroke-dasharray:11 13;stroke-dashoffset:12;animation:wwikMrsc_draw_107 5200ms ease 0ms infinite,wwikMrsc_fade 5200ms linear 0ms infinite;}.wwikMrsc_108{stroke-dasharray:437 439;stroke-dashoffset:438;animation:wwikMrsc_draw_108 5200ms ease 0ms infinite,wwikMrsc_fade 5200ms linear 0ms infinite;}.wwikMrsc_109{stroke-dasharray:868 870;stroke-dashoffset:869;animation:wwikMrsc_draw_109 5200ms ease 0ms infinite,wwikMrsc_fade 5200ms linear 0ms infinite;}.wwikMrsc_110{stroke-dasharray:58 60;stroke-dashoffset:59;animation:wwikMrsc_draw_110 5200ms ease 0ms infinite,wwikMrsc_fade 5200ms linear 0ms infinite;}.wwikMrsc_111{stroke-dasharray:100 102;stroke-dashoffset:101;animation:wwikMrsc_draw_111 5200ms ease 0ms infinite,wwikMrsc_fade 5200ms linear 0ms infinite;}.wwikMrsc_112{stroke-dasharray:13 15;stroke-dashoffset:14;animation:wwikMrsc_draw_112 5200ms ease 0ms infinite,wwikMrsc_fade 5200ms linear 0ms infinite;}.wwikMrsc_113{stroke-dasharray:39 41;stroke-dashoffset:40;animation:wwikMrsc_draw_113 5200ms ease 0ms infinite,wwikMrsc_fade 5200ms linear 0ms infinite;}.wwikMrsc_114{stroke-dasharray:134 136;stroke-dashoffset:135;animation:wwikMrsc_draw_114 5200ms ease 0ms infinite,wwikMrsc_fade 5200ms linear 0ms infinite;}.wwikMrsc_115{stroke-dasharray:265 267;stroke-dashoffset:266;animation:wwikMrsc_draw_115 5200ms ease 0ms infinite,wwikMrsc_fade 5200ms linear 0ms infinite;}.wwikMrsc_116{stroke-dasharray:100 102;stroke-dashoffset:101;animation:wwikMrsc_draw_116 5200ms ease 0ms infinite,wwikMrsc_fade 5200ms linear 0ms infinite;}.wwikMrsc_117{stroke-dasharray:198 200;stroke-dashoffset:199;animation:wwikMrsc_draw_117 5200ms ease 0ms infinite,wwikMrsc_fade 5200ms linear 0ms infinite;}.wwikMrsc_118{stroke-dasharray:83 85;stroke-dashoffset:84;animation:wwikMrsc_draw_118 5200ms ease 0ms infinite,wwikMrsc_fade 5200ms linear 0ms infinite;}.wwikMrsc_119{stroke-dasharray:162 164;stroke-dashoffset:163;animation:wwikMrsc_draw_119 5200ms ease 0ms infinite,wwikMrsc_fade 5200ms linear 0ms infinite;}@keyframes wwikMrsc_draw{100%{stroke-dashoffset:0;}}@keyframes wwikMrsc_fade{0%{stroke-opacity:1;}92.3076923076923%{stroke-opacity:1;}100%{stroke-opacity:0;}}@keyframes wwikMrsc_draw_0{15.384615384615385%{stroke-dashoffset: 1109}53.84615384615385%{ stroke-dashoffset: 0;}100%{ stroke-dashoffset: 0;}}@keyframes wwikMrsc_draw_1{15.546218487394958%{stroke-dashoffset: 1109}54.00775694893343%{ stroke-dashoffset: 0;}100%{ stroke-dashoffset: 0;}}@keyframes wwikMrsc_draw_2{15.70782159017453%{stroke-dashoffset: 1115}54.169360051713%{ stroke-dashoffset: 0;}100%{ stroke-dashoffset: 0;}}@keyframes wwikMrsc_draw_3{15.869424692954107%{stroke-dashoffset: 1116}54.330963154492565%{ stroke-dashoffset: 0;}100%{ stroke-dashoffset: 0;}}@keyframes wwikMrsc_draw_4{16.031027795733678%{stroke-dashoffset: 1116}54.492566257272145%{ stroke-dashoffset: 0;}100%{ stroke-dashoffset: 0;}}@keyframes wwikMrsc_draw_5{16.19263089851325%{stroke-dashoffset: 29}54.65416936005172%{ stroke-dashoffset: 0;}100%{ stroke-dashoffset: 0;}}@keyframes wwikMrsc_draw_6{16.354234001292824%{stroke-dashoffset: 23}54.81577246283128%{ stroke-dashoffset: 0;}100%{ stroke-dashoffset: 0;}}@keyframes wwikMrsc_draw_7{16.515837104072396%{stroke-dashoffset: 29}54.97737556561086%{ stroke-dashoffset: 0;}100%{ stroke-dashoffset: 0;}}@keyframes wwikMrsc_draw_8{16.67744020685197%{stroke-dashoffset: 23}55.138978668390436%{ stroke-dashoffset: 0;}100%{ stroke-dashoffset: 0;}}@keyframes wwikMrsc_draw_9{16.839043309631545%{stroke-dashoffset: 146}55.30058177117%{ stroke-dashoffset: 0;}100%{ stroke-dashoffset: 0;}}@keyframes wwikMrsc_draw_10{17.00064641241112%{stroke-dashoffset: 33}55.46218487394958%{ stroke-dashoffset: 0;}100%{ stroke-dashoffset: 0;}}@keyframes wwikMrsc_draw_11{17.16224951519069%{stroke-dashoffset: 33}55.623787976729155%{ stroke-dashoffset: 0;}100%{ stroke-dashoffset: 0;}}@keyframes wwikMrsc_draw_12{17.323852617970264%{stroke-dashoffset: 33}55.78539107950872%{ stroke-dashoffset: 0;}100%{ stroke-dashoffset: 0;}}@keyframes wwikMrsc_draw_13{17.48545572074984%{stroke-dashoffset: 33}55.9469941822883%{ stroke-dashoffset: 0;}100%{ stroke-dashoffset: 0;}}@keyframes wwikMrsc_draw_14{17.64705882352941%{stroke-dashoffset: 33}56.10859728506787%{ stroke-dashoffset: 0;}100%{ stroke-dashoffset: 0;}}@keyframes wwikMrsc_draw_15{17.808661926308986%{stroke-dashoffset: 33}56.270200387847446%{ stroke-dashoffset: 0;}100%{ stroke-dashoffset: 0;}}@keyframes wwikMrsc_draw_16{17.97026502908856%{stroke-dashoffset: 33}56.43180349062702%{ stroke-dashoffset: 0;}100%{ stroke-dashoffset: 0;}}@keyframes wwikMrsc_draw_17{18.13186813186813%{stroke-dashoffset: 33}56.593406593406606%{ stroke-dashoffset: 0;}100%{ stroke-dashoffset: 0;}}@keyframes wwikMrsc_draw_18{18.293471234647704%{stroke-dashoffset: 33}56.755009696186164%{ stroke-dashoffset: 0;}100%{ stroke-dashoffset: 0;}}@keyframes wwikMrsc_draw_19{18.45507433742728%{stroke-dashoffset: 33}56.91661279896574%{ stroke-dashoffset: 0;}100%{ stroke-dashoffset: 0;}}@keyframes wwikMrsc_draw_20{18.616677440206853%{stroke-dashoffset: 33}57.078215901745324%{ stroke-dashoffset: 0;}100%{ stroke-dashoffset: 0;}}@keyframes wwikMrsc_draw_21{18.778280542986426%{stroke-dashoffset: 33}57.23981900452488%{ stroke-dashoffset: 0;}100%{ stroke-dashoffset: 0;}}@keyframes wwikMrsc_draw_22{18.939883645766%{stroke-dashoffset: 33}57.401422107304455%{ stroke-dashoffset: 0;}100%{ stroke-dashoffset: 0;}}@keyframes wwikMrsc_draw_23{19.101486748545575%{stroke-dashoffset: 33}57.56302521008404%{ stroke-dashoffset: 0;}100%{ stroke-dashoffset: 0;}}@keyframes wwikMrsc_draw_24{19.263089851325145%{stroke-dashoffset: 33}57.7246283128636%{ stroke-dashoffset: 0;}100%{ stroke-dashoffset: 0;}}@keyframes wwikMrsc_draw_25{19.42469295410472%{stroke-dashoffset: 33}57.886231415643174%{ stroke-dashoffset: 0;}100%{ stroke-dashoffset: 0;}}@keyframes wwikMrsc_draw_26{19.586296056884294%{stroke-dashoffset: 33}58.04783451842276%{ stroke-dashoffset: 0;}100%{ stroke-dashoffset: 0;}}@keyframes wwikMrsc_draw_27{19.747899159663866%{stroke-dashoffset: 33}58.20943762120232%{ stroke-dashoffset: 0;}100%{ stroke-dashoffset: 0;}}@keyframes wwikMrsc_draw_28{19.90950226244344%{stroke-dashoffset: 33}58.37104072398189%{ stroke-dashoffset: 0;}100%{ stroke-dashoffset: 0;}}@keyframes wwikMrsc_draw_29{20.071105365223012%{stroke-dashoffset: 33}58.53264382676148%{ stroke-dashoffset: 0;}100%{ stroke-dashoffset: 0;}}@keyframes wwikMrsc_draw_30{20.232708468002585%{stroke-dashoffset: 33}58.69424692954105%{ stroke-dashoffset: 0;}100%{ stroke-dashoffset: 0;}}@keyframes wwikMrsc_draw_31{20.39431157078216%{stroke-dashoffset: 38}58.855850032320625%{ stroke-dashoffset: 0;}100%{ stroke-dashoffset: 0;}}@keyframes wwikMrsc_draw_32{20.55591467356173%{stroke-dashoffset: 31}59.0174531351002%{ stroke-dashoffset: 0;}100%{ stroke-dashoffset: 0;}}@keyframes wwikMrsc_draw_33{20.717517776341307%{stroke-dashoffset: 31}59.17905623787977%{ stroke-dashoffset: 0;}100%{ stroke-dashoffset: 0;}}@keyframes wwikMrsc_draw_34{20.87912087912088%{stroke-dashoffset: 31}59.34065934065934%{ stroke-dashoffset: 0;}100%{ stroke-dashoffset: 0;}}@keyframes wwikMrsc_draw_35{21.04072398190045%{stroke-dashoffset: 31}59.502262443438916%{ stroke-dashoffset: 0;}100%{ stroke-dashoffset: 0;}}@keyframes wwikMrsc_draw_36{21.202327084680025%{stroke-dashoffset: 38}59.66386554621849%{ stroke-dashoffset: 0;}100%{ stroke-dashoffset: 0;}}@keyframes wwikMrsc_draw_37{21.363930187459598%{stroke-dashoffset: 47}59.82546864899806%{ stroke-dashoffset: 0;}100%{ stroke-dashoffset: 0;}}@keyframes wwikMrsc_draw_38{21.525533290239174%{stroke-dashoffset: 62}59.987071751777634%{ stroke-dashoffset: 0;}100%{ stroke-dashoffset: 0;}}@keyframes wwikMrsc_draw_39{21.68713639301875%{stroke-dashoffset: 38}60.14867485455721%{ stroke-dashoffset: 0;}100%{ stroke-dashoffset: 0;}}@keyframes wwikMrsc_draw_40{21.84873949579832%{stroke-dashoffset: 38}60.31027795733678%{ stroke-dashoffset: 0;}100%{ stroke-dashoffset: 0;}}@keyframes wwikMrsc_draw_41{22.010342598577893%{stroke-dashoffset: 47}60.47188106011635%{ stroke-dashoffset: 0;}100%{ stroke-dashoffset: 0;}}@keyframes wwikMrsc_draw_42{22.17194570135747%{stroke-dashoffset: 63}60.633484162895925%{ stroke-dashoffset: 0;}100%{ stroke-dashoffset: 0;}}@keyframes wwikMrsc_draw_43{22.33354880413704%{stroke-dashoffset: 82}60.7950872656755%{ stroke-dashoffset: 0;}100%{ stroke-dashoffset: 0;}}@keyframes wwikMrsc_draw_44{22.49515190691661%{stroke-dashoffset: 204}60.95669036845507%{ stroke-dashoffset: 0;}100%{ stroke-dashoffset: 0;}}@keyframes wwikMrsc_draw_45{22.656755009696187%{stroke-dashoffset: 148}61.11829347123465%{ stroke-dashoffset: 0;}100%{ stroke-dashoffset: 0;}}@keyframes wwikMrsc_draw_46{22.81835811247576%{stroke-dashoffset: 138}61.279896574014224%{ stroke-dashoffset: 0;}100%{ stroke-dashoffset: 0;}}@keyframes wwikMrsc_draw_47{22.979961215255333%{stroke-dashoffset: 86}61.441499676793796%{ stroke-dashoffset: 0;}100%{ stroke-dashoffset: 0;}}@keyframes wwikMrsc_draw_48{23.141564318034906%{stroke-dashoffset: 420}61.60310277957337%{ stroke-dashoffset: 0;}100%{ stroke-dashoffset: 0;}}@keyframes wwikMrsc_draw_49{23.30316742081448%{stroke-dashoffset: 224}61.76470588235294%{ stroke-dashoffset: 0;}100%{ stroke-dashoffset: 0;}}@keyframes wwikMrsc_draw_50{23.46477052359405%{stroke-dashoffset: 450}61.926308985132515%{ stroke-dashoffset: 0;}100%{ stroke-dashoffset: 0;}}@keyframes wwikMrsc_draw_51{23.626373626373628%{stroke-dashoffset: 141}62.08791208791209%{ stroke-dashoffset: 0;}100%{ stroke-dashoffset: 0;}}@keyframes wwikMrsc_draw_52{23.787976729153204%{stroke-dashoffset: 281}62.24951519069166%{ stroke-dashoffset: 0;}100%{ stroke-dashoffset: 0;}}@keyframes wwikMrsc_draw_53{23.949579831932773%{stroke-dashoffset: 459}62.41111829347123%{ stroke-dashoffset: 0;}100%{ stroke-dashoffset: 0;}}@keyframes wwikMrsc_draw_54{24.111182934712346%{stroke-dashoffset: 914}62.572721396250806%{ stroke-dashoffset: 0;}100%{ stroke-dashoffset: 0;}}@keyframes wwikMrsc_draw_55{24.272786037491922%{stroke-dashoffset: 162}62.73432449903038%{ stroke-dashoffset: 0;}100%{ stroke-dashoffset: 0;}}@keyframes wwikMrsc_draw_56{24.43438914027149%{stroke-dashoffset: 321}62.89592760180995%{ stroke-dashoffset: 0;}100%{ stroke-dashoffset: 0;}}@keyframes wwikMrsc_draw_57{24.595992243051064%{stroke-dashoffset: 531}63.057530704589524%{ stroke-dashoffset: 0;}100%{ stroke-dashoffset: 0;}}@keyframes wwikMrsc_draw_58{24.75759534583064%{stroke-dashoffset: 1058}63.2191338073691%{ stroke-dashoffset: 0;}100%{ stroke-dashoffset: 0;}}@keyframes wwikMrsc_draw_59{24.919198448610214%{stroke-dashoffset: 43}63.380736910148684%{ stroke-dashoffset: 0;}100%{ stroke-dashoffset: 0;}}@keyframes wwikMrsc_draw_60{25.080801551389794%{stroke-dashoffset: 88}63.54234001292826%{ stroke-dashoffset: 0;}100%{ stroke-dashoffset: 0;}}@keyframes wwikMrsc_draw_61{25.24240465416936%{stroke-dashoffset: 90}63.703943115707816%{ stroke-dashoffset: 0;}100%{ stroke-dashoffset: 0;}}@keyframes wwikMrsc_draw_62{25.404007756948932%{stroke-dashoffset: 370}63.8655462184874%{ stroke-dashoffset: 0;}100%{ stroke-dashoffset: 0;}}@keyframes wwikMrsc_draw_63{25.565610859728512%{stroke-dashoffset: 100}64.02714932126698%{ stroke-dashoffset: 0;}100%{ stroke-dashoffset: 0;}}@keyframes wwikMrsc_draw_64{25.727213962508078%{stroke-dashoffset: 105}64.18875242404654%{ stroke-dashoffset: 0;}100%{ stroke-dashoffset: 0;}}@keyframes wwikMrsc_draw_65{25.888817065287657%{stroke-dashoffset: 38}64.35035552682612%{ stroke-dashoffset: 0;}100%{ stroke-dashoffset: 0;}}@keyframes wwikMrsc_draw_66{26.05042016806723%{stroke-dashoffset: 47}64.51195862960569%{ stroke-dashoffset: 0;}100%{ stroke-dashoffset: 0;}}@keyframes wwikMrsc_draw_67{26.212023270846803%{stroke-dashoffset: 116}64.67356173238525%{ stroke-dashoffset: 0;}100%{ stroke-dashoffset: 0;}}@keyframes wwikMrsc_draw_68{26.373626373626376%{stroke-dashoffset: 179}64.83516483516483%{ stroke-dashoffset: 0;}100%{ stroke-dashoffset: 0;}}@keyframes wwikMrsc_draw_69{26.53522947640595%{stroke-dashoffset: 356}64.99676793794441%{ stroke-dashoffset: 0;}100%{ stroke-dashoffset: 0;}}@keyframes wwikMrsc_draw_70{26.69683257918552%{stroke-dashoffset: 48}65.15837104072398%{ stroke-dashoffset: 0;}100%{ stroke-dashoffset: 0;}}@keyframes wwikMrsc_draw_71{26.858435681965094%{stroke-dashoffset: 93}65.31997414350356%{ stroke-dashoffset: 0;}100%{ stroke-dashoffset: 0;}}@keyframes wwikMrsc_draw_72{27.020038784744667%{stroke-dashoffset: 43}65.48157724628312%{ stroke-dashoffset: 0;}100%{ stroke-dashoffset: 0;}}@keyframes wwikMrsc_draw_73{27.181641887524243%{stroke-dashoffset: 83}65.6431803490627%{ stroke-dashoffset: 0;}100%{ stroke-dashoffset: 0;}}@keyframes wwikMrsc_draw_74{27.343244990303816%{stroke-dashoffset: 48}65.80478345184227%{ stroke-dashoffset: 0;}100%{ stroke-dashoffset: 0;}}@keyframes wwikMrsc_draw_75{27.50484809308339%{stroke-dashoffset: 94}65.96638655462186%{ stroke-dashoffset: 0;}100%{ stroke-dashoffset: 0;}}@keyframes wwikMrsc_draw_76{27.66645119586296%{stroke-dashoffset: 84}66.12798965740141%{ stroke-dashoffset: 0;}100%{ stroke-dashoffset: 0;}}@keyframes wwikMrsc_draw_77{27.828054298642535%{stroke-dashoffset: 101}66.289592760181%{ stroke-dashoffset: 0;}100%{ stroke-dashoffset: 0;}}@keyframes wwikMrsc_draw_78{27.989657401422107%{stroke-dashoffset: 199}66.45119586296057%{ stroke-dashoffset: 0;}100%{ stroke-dashoffset: 0;}}@keyframes wwikMrsc_draw_79{28.15126050420168%{stroke-dashoffset: 45}66.61279896574014%{ stroke-dashoffset: 0;}100%{ stroke-dashoffset: 0;}}@keyframes wwikMrsc_draw_80{28.312863606981253%{stroke-dashoffset: 86}66.7744020685197%{ stroke-dashoffset: 0;}100%{ stroke-dashoffset: 0;}}@keyframes wwikMrsc_draw_81{28.474466709760833%{stroke-dashoffset: 126}66.9360051712993%{ stroke-dashoffset: 0;}100%{ stroke-dashoffset: 0;}}@keyframes wwikMrsc_draw_82{28.6360698125404%{stroke-dashoffset: 249}67.09760827407885%{ stroke-dashoffset: 0;}100%{ stroke-dashoffset: 0;}}@keyframes wwikMrsc_draw_83{28.79767291531998%{stroke-dashoffset: 16}67.25921137685843%{ stroke-dashoffset: 0;}100%{ stroke-dashoffset: 0;}}@keyframes wwikMrsc_draw_84{28.95927601809955%{stroke-dashoffset: 32}67.42081447963801%{ stroke-dashoffset: 0;}100%{ stroke-dashoffset: 0;}}@keyframes wwikMrsc_draw_85{29.120879120879117%{stroke-dashoffset: 22}67.58241758241759%{ stroke-dashoffset: 0;}100%{ stroke-dashoffset: 0;}}@keyframes wwikMrsc_draw_86{29.282482223658697%{stroke-dashoffset: 24}67.74402068519714%{ stroke-dashoffset: 0;}100%{ stroke-dashoffset: 0;}}@keyframes wwikMrsc_draw_87{29.44408532643827%{stroke-dashoffset: 24}67.90562378797674%{ stroke-dashoffset: 0;}100%{ stroke-dashoffset: 0;}}@keyframes wwikMrsc_draw_88{29.605688429217842%{stroke-dashoffset: 20}68.0672268907563%{ stroke-dashoffset: 0;}100%{ stroke-dashoffset: 0;}}@keyframes wwikMrsc_draw_89{29.76729153199742%{stroke-dashoffset: 196}68.22882999353588%{ stroke-dashoffset: 0;}100%{ stroke-dashoffset: 0;}}@keyframes wwikMrsc_draw_90{29.928894634776988%{stroke-dashoffset: 391}68.39043309631545%{ stroke-dashoffset: 0;}100%{ stroke-dashoffset: 0;}}@keyframes wwikMrsc_draw_91{30.09049773755656%{stroke-dashoffset: 104}68.55203619909503%{ stroke-dashoffset: 0;}100%{ stroke-dashoffset: 0;}}@keyframes wwikMrsc_draw_92{30.252100840336137%{stroke-dashoffset: 207}68.7136393018746%{ stroke-dashoffset: 0;}100%{ stroke-dashoffset: 0;}}@keyframes wwikMrsc_draw_93{30.413703943115706%{stroke-dashoffset: 33}68.87524240465417%{ stroke-dashoffset: 0;}100%{ stroke-dashoffset: 0;}}@keyframes wwikMrsc_draw_94{30.57530704589528%{stroke-dashoffset: 35}69.03684550743374%{ stroke-dashoffset: 0;}100%{ stroke-dashoffset: 0;}}@keyframes wwikMrsc_draw_95{30.736910148674855%{stroke-dashoffset: 39}69.19844861021332%{ stroke-dashoffset: 0;}100%{ stroke-dashoffset: 0;}}@keyframes wwikMrsc_draw_96{30.89851325145443%{stroke-dashoffset: 196}69.36005171299288%{ stroke-dashoffset: 0;}100%{ stroke-dashoffset: 0;}}@keyframes wwikMrsc_draw_97{31.060116354234%{stroke-dashoffset: 391}69.52165481577246%{ stroke-dashoffset: 0;}100%{ stroke-dashoffset: 0;}}@keyframes wwikMrsc_draw_98{31.221719457013574%{stroke-dashoffset: 105}69.68325791855203%{ stroke-dashoffset: 0;}100%{ stroke-dashoffset: 0;}}@keyframes wwikMrsc_draw_99{31.383322559793147%{stroke-dashoffset: 207}69.84486102133161%{ stroke-dashoffset: 0;}100%{ stroke-dashoffset: 0;}}@keyframes wwikMrsc_draw_100{31.54492566257272%{stroke-dashoffset: 39}70.00646412411119%{ stroke-dashoffset: 0;}100%{ stroke-dashoffset: 0;}}@keyframes wwikMrsc_draw_101{31.706528765352292%{stroke-dashoffset: 34}70.16806722689076%{ stroke-dashoffset: 0;}100%{ stroke-dashoffset: 0;}}@keyframes wwikMrsc_draw_102{31.868131868131872%{stroke-dashoffset: 34}70.32967032967034%{ stroke-dashoffset: 0;}100%{ stroke-dashoffset: 0;}}@keyframes wwikMrsc_draw_103{32.02973497091144%{stroke-dashoffset: 97}70.4912734324499%{ stroke-dashoffset: 0;}100%{ stroke-dashoffset: 0;}}@keyframes wwikMrsc_draw_104{32.191338073691014%{stroke-dashoffset: 191}70.65287653522948%{ stroke-dashoffset: 0;}100%{ stroke-dashoffset: 0;}}@keyframes wwikMrsc_draw_105{32.35294117647059%{stroke-dashoffset: 79}70.81447963800905%{ stroke-dashoffset: 0;}100%{ stroke-dashoffset: 0;}}@keyframes wwikMrsc_draw_106{32.51454427925016%{stroke-dashoffset: 155}70.97608274078863%{ stroke-dashoffset: 0;}100%{ stroke-dashoffset: 0;}}@keyframes wwikMrsc_draw_107{32.67614738202973%{stroke-dashoffset: 12}71.13768584356819%{ stroke-dashoffset: 0;}100%{ stroke-dashoffset: 0;}}@keyframes wwikMrsc_draw_108{32.837750484809305%{stroke-dashoffset: 438}71.29928894634777%{ stroke-dashoffset: 0;}100%{ stroke-dashoffset: 0;}}@keyframes wwikMrsc_draw_109{32.99935358758888%{stroke-dashoffset: 869}71.46089204912734%{ stroke-dashoffset: 0;}100%{ stroke-dashoffset: 0;}}@keyframes wwikMrsc_draw_110{33.16095669036846%{stroke-dashoffset: 59}71.62249515190692%{ stroke-dashoffset: 0;}100%{ stroke-dashoffset: 0;}}@keyframes wwikMrsc_draw_111{33.322559793148024%{stroke-dashoffset: 101}71.78409825468648%{ stroke-dashoffset: 0;}100%{ stroke-dashoffset: 0;}}@keyframes wwikMrsc_draw_112{33.484162895927604%{stroke-dashoffset: 14}71.94570135746606%{ stroke-dashoffset: 0;}100%{ stroke-dashoffset: 0;}}@keyframes wwikMrsc_draw_113{33.645765998707176%{stroke-dashoffset: 40}72.10730446024563%{ stroke-dashoffset: 0;}100%{ stroke-dashoffset: 0;}}@keyframes wwikMrsc_draw_114{33.80736910148674%{stroke-dashoffset: 135}72.26890756302521%{ stroke-dashoffset: 0;}100%{ stroke-dashoffset: 0;}}@keyframes wwikMrsc_draw_115{33.96897220426632%{stroke-dashoffset: 266}72.43051066580477%{ stroke-dashoffset: 0;}100%{ stroke-dashoffset: 0;}}@keyframes wwikMrsc_draw_116{34.130575307045895%{stroke-dashoffset: 101}72.59211376858435%{ stroke-dashoffset: 0;}100%{ stroke-dashoffset: 0;}}@keyframes wwikMrsc_draw_117{34.29217840982547%{stroke-dashoffset: 199}72.75371687136392%{ stroke-dashoffset: 0;}100%{ stroke-dashoffset: 0;}}@keyframes wwikMrsc_draw_118{34.45378151260505%{stroke-dashoffset: 84}72.91531997414351%{ stroke-dashoffset: 0;}100%{ stroke-dashoffset: 0;}}@keyframes wwikMrsc_draw_119{34.61538461538461%{stroke-dashoffset: 163}73.07692307692307%{ stroke-dashoffset: 0;}100%{ stroke-dashoffset: 0;}}</style></svg>
