<svg id="Capa_1" data-name="Capa 1" xmlns="http://www.w3.org/2000/svg" viewBox="0 0 228.18 274.4" style=""><defs><style>.cls-1{fill:#949494;}.cls-1,.cls-2,.cls-3,.cls-5,.cls-6{stroke:#263238;}.cls-1,.cls-2,.cls-3,.cls-4,.cls-5,.cls-6{stroke-linecap:round;stroke-linejoin:round;}.cls-2{fill:#263238;}.cls-3{fill:#fff;}.cls-4,.cls-5{fill:none;}.cls-4{stroke:#b2b2b2;}.cls-6{fill:#92e3a9;}</style></defs><g id="freepik--Character--inject-51"><path class="cls-1 KFLvXJGe_0" d="M453.41,280.16H338.17a5.67,5.67,0,0,0-5.7,4.3L301,433.91H428.1l31-147.45C459.8,283.19,457.06,280.16,453.41,280.16Z" transform="translate(-231.53 -161.03)"></path><path class="cls-2 KFLvXJGe_1" d="M309.53,177.82s-14.84,10-14,17.53,8.9,13.76,8.9,13.76,11.06-26.7,11.87-27S309.53,177.82,309.53,177.82Z" transform="translate(-231.53 -161.03)"></path><path class="cls-2 KFLvXJGe_2" d="M302.72,241.13s2.56,11.72.73,17.58l-1.83,5.86s16.84,5.12,22.34,2.19,6.22-4.76,6.22-4.76S308.94,238.2,302.72,241.13Z" transform="translate(-231.53 -161.03)"></path><path class="cls-2 KFLvXJGe_3" d="M299.9,298.62s29.06-2,43.59,0S359.77,301,359.77,301,347,345.46,338.84,362.9s-26.73,32.25-26.73,32.25S283.33,345.7,299.9,298.62Z" transform="translate(-231.53 -161.03)"></path><path class="cls-3 KFLvXJGe_4" d="M312.76,180.25s-8.9,19.42-9.71,23.73-.27,12.68-.27,15.92-2.69,14.83-2.69,17.8,11.32,26.43,14.29,27.5,6.74-.53,6.74-.53,1.35,10,1.08,12.19-7,5.13-7,5.13-8.9,17.53-7,23.73,8.9,12.14,21.57,10.52,18.61-5.67,22.12-16.18,6.2-21,6.2-21-4,.48-4-4.11.27-26.43.27-26.43,3.77-37.75-7.83-53.13S316.81,173,312.76,180.25Z" transform="translate(-231.53 -161.03)"></path><path class="cls-2 KFLvXJGe_5" d="M307.64,177.28s22.92,23.47,30.74,36.95.81,51.51,3.78,51.51,13-.29,36.23-11.35,22.66-32.63,17-48.27-19.51-34-31.91-40.16S316.81,157.33,307.64,177.28Z" transform="translate(-231.53 -161.03)"></path><path class="cls-4 KFLvXJGe_6" d="M344.71,221.39c4.3,8.79,12.71,27.74,11.26,38.79" transform="translate(-231.53 -161.03)"></path><path class="cls-4 KFLvXJGe_7" d="M342.3,216.66l1,1.85" transform="translate(-231.53 -161.03)"></path><path class="cls-4 KFLvXJGe_8" d="M381.14,241.08a20.47,20.47,0,0,1,.36,7.95" transform="translate(-231.53 -161.03)"></path><path class="cls-4 KFLvXJGe_9" d="M317.48,178.18s-5,2.87,32,27.33c19.14,12.63,27,23.44,30.22,31.14" transform="translate(-231.53 -161.03)"></path><path class="cls-5 KFLvXJGe_10" d="M322.47,221a9.19,9.19,0,0,0,10,1.08" transform="translate(-231.53 -161.03)"></path><path class="cls-5 KFLvXJGe_11" d="M304.94,220.43s2.16,2.7,5.93.27" transform="translate(-231.53 -161.03)"></path><path class="cls-5 KFLvXJGe_12" d="M310.34,210.73s2.69,6.47,2.69,9.44a10.55,10.55,0,0,1-1.35,5.12" transform="translate(-231.53 -161.03)"></path><path class="cls-5 KFLvXJGe_13" d="M308.72,238.23a14.57,14.57,0,0,0,4.31,2.43" transform="translate(-231.53 -161.03)"></path><path class="cls-5 KFLvXJGe_14" d="M311.41,245s8.9,4,15.11-.81" transform="translate(-231.53 -161.03)"></path><path class="cls-5 KFLvXJGe_15" d="M319.24,210.73s11.32-3.51,15.64,3.23" transform="translate(-231.53 -161.03)"></path><path class="cls-5 KFLvXJGe_16" d="M304.4,209.11s2.7-2.16,4.32-.27" transform="translate(-231.53 -161.03)"></path><path class="cls-2 KFLvXJGe_17" d="M89.59,103.64L102.27,100.94L90.4,111.45L89.59,103.64Z"></path><path class="cls-3 KFLvXJGe_18" d="M322.07,278.35a2,2,0,1,1-2-2A2,2,0,0,1,322.07,278.35Z" transform="translate(-231.53 -161.03)"></path><path class="cls-3 KFLvXJGe_19" d="M321.53,281.72a2,2,0,1,1-2-2A2,2,0,0,1,321.53,281.72Z" transform="translate(-231.53 -161.03)"></path><path class="cls-3 KFLvXJGe_20" d="M321,285.09a2,2,0,1,1-2-2A2,2,0,0,1,321,285.09Z" transform="translate(-231.53 -161.03)"></path><path class="cls-3 KFLvXJGe_21" d="M357.91,277a2,2,0,1,1-2-2A2,2,0,0,1,357.91,277Z" transform="translate(-231.53 -161.03)"></path><path class="cls-3 KFLvXJGe_22" d="M356,279a2,2,0,1,1-2-2A2,2,0,0,1,356,279Z" transform="translate(-231.53 -161.03)"></path><path class="cls-3 KFLvXJGe_23" d="M118.27000000000001,120.19A2.02,2.02 0,1,1 122.31,120.19A2.02,2.02 0,1,1 118.27000000000001,120.19"></path><path class="cls-3 KFLvXJGe_24" d="M351.44,283.4a2,2,0,1,1-2-2A2,2,0,0,1,351.44,283.4Z" transform="translate(-231.53 -161.03)"></path><path class="cls-3 KFLvXJGe_25" d="M348.91,285.47a2,2,0,1,1-2-2A2,2,0,0,1,348.91,285.47Z" transform="translate(-231.53 -161.03)"></path><path class="cls-3 KFLvXJGe_26" d="M110.36,126.85A2.02,2.02 0,1,1 114.39999999999999,126.85A2.02,2.02 0,1,1 110.36,126.85"></path><path class="cls-3 KFLvXJGe_27" d="M343.52,289.76a2,2,0,1,1-2-2A2,2,0,0,1,343.52,289.76Z" transform="translate(-231.53 -161.03)"></path><path class="cls-3 KFLvXJGe_28" d="M340.65,292.47a2,2,0,1,1-2-2A2,2,0,0,1,340.65,292.47Z" transform="translate(-231.53 -161.03)"></path><path class="cls-3 KFLvXJGe_29" d="M337.71,294.19a2,2,0,1,1-2-2A2,2,0,0,1,337.71,294.19Z" transform="translate(-231.53 -161.03)"></path><path class="cls-3 KFLvXJGe_30" d="M334.5,296a2,2,0,1,1-2-2A2,2,0,0,1,334.5,296Z" transform="translate(-231.53 -161.03)"></path><path class="cls-3 KFLvXJGe_31" d="M320.69,289a2,2,0,1,1-2-2A2,2,0,0,1,320.69,289Z" transform="translate(-231.53 -161.03)"></path><path class="cls-3 KFLvXJGe_32" d="M85.46000000000001,131.32A2.02,2.02 0,1,1 89.5,131.32A2.02,2.02 0,1,1 85.46000000000001,131.32"></path><path class="cls-3 KFLvXJGe_33" d="M321.78,295.55a2,2,0,1,1-2-2A2,2,0,0,1,321.78,295.55Z" transform="translate(-231.53 -161.03)"></path><path class="cls-3 KFLvXJGe_34" d="M88.79,136.6A2.02,2.02 0,1,1 92.83,136.6A2.02,2.02 0,1,1 88.79,136.6"></path><path class="cls-3 KFLvXJGe_35" d="M331.13,297.29a2,2,0,1,1-2-2A2,2,0,0,1,331.13,297.29Z" transform="translate(-231.53 -161.03)"></path><path class="cls-3 KFLvXJGe_36" d="M328,298.32a2,2,0,1,1-2-2A2,2,0,0,1,328,298.32Z" transform="translate(-231.53 -161.03)"></path><path class="cls-6 KFLvXJGe_37" d="M357.91,277s-9.2,30.46-14.59,44.41-19.65,44.69-19.65,44.69-13.31-18.38-15.53-40.89,7.05-43.2,7.05-43.2-24.46,8.41-30.48,10.63-12.87,5.41-15.4,11.43S238.49,390,237.22,393.13s-3.8,3.49-.31,8.88,20.28,5.7,23.45,2.85S281.83,375,281.83,375l6.66,13,2.85,39.3-.63,6.66H376l-1-23.14s31.72-79.86,34.26-93.49-1.27-20.92-7-25S357.91,277,357.91,277Z" transform="translate(-231.53 -161.03)"></path><path class="cls-3 KFLvXJGe_38" d="M303.84,301.1a2.9,2.9,0,0,0-3.52,1.87c-.93,2.58-1.64,4.93-1.64,4.93s-3.28,4.7-4,7-2.58,21.12-3.05,22.77-2.11,10.09-2.11,10.09l-2.58,4,6.8,11.73s3.76-.23,7.28-5.63,3.52-4.93,4.22-11.73,1.41-43.89,1.41-43.89S305.25,300.63,303.84,301.1Z" transform="translate(-231.53 -161.03)"></path><path class="cls-3 KFLvXJGe_39" d="M317.69,360s-.7-4.93.47-6.57,3.52-1.88,4-7.27-1.17-10.57-.23-16.43,3.52-4.7,3.28-7.28-4-3.05-5.16-1.17-2.35,4.22-2.35,4.22-.94-15-1.41-19.95-3.75-6.33-3.75-6.33-1.41-4-3.29-3.05-2.11,2.11-2.11,2.11a9.05,9.05,0,0,0-3.29,2.82,8.74,8.74,0,0,0-.7,4.22,11.43,11.43,0,0,0-3,4.69c-.7,2.59-3.52,19.25-3.76,25.82s0,18.07,1.18,20.18,4.22,6.57,4.22,6.57l1.88,5.64S312.53,360.94,317.69,360Z" transform="translate(-231.53 -161.03)"></path><path class="cls-3 KFLvXJGe_40" d="M303.14,305.32s1.41.7,1.17,4-1.87,18.31-1.87,18.31" transform="translate(-231.53 -161.03)"></path><path class="cls-3 KFLvXJGe_41" d="M307.13,298.28s1.87-1.1,1.4,3-.46,24.49-.46,24.49" transform="translate(-231.53 -161.03)"></path><path class="cls-3 KFLvXJGe_42" d="M312.53,299.22s.94,19,.47,24.41" transform="translate(-231.53 -161.03)"></path><path class="cls-3 KFLvXJGe_43" d="M317.69,325.5s1.14,6.9,1.6,8.54" transform="translate(-231.53 -161.03)"></path><path class="cls-6 KFLvXJGe_44" d="M287.55,348.78l10.14,13.71s-21.82,33.22-25.23,38.64-14.45,18.1-20.67,19.7-9.63,0-13-4.81-8.43-13-6.22-18.47,18.86-21.11,24.08-23.92S287.55,348.78,287.55,348.78Z" transform="translate(-231.53 -161.03)"></path><path class="cls-6 KFLvXJGe_45" d="M395.36,291.54s5,.4,6.94.7,5.51,5.12,6.91,8.13,1.41,14.45.8,20.87-13.82,54.43-16.63,69.28-12.46,37-14.26,39.59-5.22,5-8.63,4.81-24.57-14.93-32.4-22.55-37.74-47-37.74-47,3.82-6,7.23-8,10.64-3.21,10.64-3.21S331.46,365.6,341.7,374A155.94,155.94,0,0,0,362,388.08s4.42-25.58,5-28.59,5.35-28.89,5.35-28.89" transform="translate(-231.53 -161.03)"></path><path class="cls-5 KFLvXJGe_46" d="M362,388.08s7.23,2.81,9,13.45" transform="translate(-231.53 -161.03)"></path><path class="cls-5 KFLvXJGe_47" d="M362.37,390.69s4.22,3,3.22,9.63" transform="translate(-231.53 -161.03)"></path><path class="cls-5 KFLvXJGe_48" d="M276.87,356.77a26.25,26.25,0,0,1,1-14.45c2.81-7.63,9-28.91,9-28.91" transform="translate(-231.53 -161.03)"></path></g><style data-made-with="vivus-instant">.KFLvXJGe_0{stroke-dasharray:564 566;stroke-dashoffset:565;animation:KFLvXJGe_draw_0 5200ms ease 0ms infinite,KFLvXJGe_fade 5200ms linear 0ms infinite;}.KFLvXJGe_1{stroke-dasharray:78 80;stroke-dashoffset:79;animation:KFLvXJGe_draw_1 5200ms ease 0ms infinite,KFLvXJGe_fade 5200ms linear 0ms infinite;}.KFLvXJGe_2{stroke-dasharray:90 92;stroke-dashoffset:91;animation:KFLvXJGe_draw_2 5200ms ease 0ms infinite,KFLvXJGe_fade 5200ms linear 0ms infinite;}.KFLvXJGe_3{stroke-dasharray:268 270;stroke-dashoffset:269;animation:KFLvXJGe_draw_3 5200ms ease 0ms infinite,KFLvXJGe_fade 5200ms linear 0ms infinite;}.KFLvXJGe_4{stroke-dasharray:351 353;stroke-dashoffset:352;animation:KFLvXJGe_draw_4 5200ms ease 0ms infinite,KFLvXJGe_fade 5200ms linear 0ms infinite;}.KFLvXJGe_5{stroke-dasharray:311 313;stroke-dashoffset:312;animation:KFLvXJGe_draw_5 5200ms ease 0ms infinite,KFLvXJGe_fade 5200ms linear 0ms infinite;}.KFLvXJGe_6{stroke-dasharray:41 43;stroke-dashoffset:42;animation:KFLvXJGe_draw_6 5200ms ease 0ms infinite,KFLvXJGe_fade 5200ms linear 0ms infinite;}.KFLvXJGe_7{stroke-dasharray:3 5;stroke-dashoffset:4;animation:KFLvXJGe_draw_7 5200ms ease 0ms infinite,KFLvXJGe_fade 5200ms linear 0ms infinite;}.KFLvXJGe_8{stroke-dasharray:9 11;stroke-dashoffset:10;animation:KFLvXJGe_draw_8 5200ms ease 0ms infinite,KFLvXJGe_fade 5200ms linear 0ms infinite;}.KFLvXJGe_9{stroke-dasharray:87 89;stroke-dashoffset:88;animation:KFLvXJGe_draw_9 5200ms ease 0ms infinite,KFLvXJGe_fade 5200ms linear 0ms infinite;}.KFLvXJGe_10{stroke-dasharray:11 13;stroke-dashoffset:12;animation:KFLvXJGe_draw_10 5200ms ease 0ms infinite,KFLvXJGe_fade 5200ms linear 0ms infinite;}.KFLvXJGe_11{stroke-dasharray:7 9;stroke-dashoffset:8;animation:KFLvXJGe_draw_11 5200ms ease 0ms infinite,KFLvXJGe_fade 5200ms linear 0ms infinite;}.KFLvXJGe_12{stroke-dasharray:16 18;stroke-dashoffset:17;animation:KFLvXJGe_draw_12 5200ms ease 0ms infinite,KFLvXJGe_fade 5200ms linear 0ms infinite;}.KFLvXJGe_13{stroke-dasharray:5 7;stroke-dashoffset:6;animation:KFLvXJGe_draw_13 5200ms ease 0ms infinite,KFLvXJGe_fade 5200ms linear 0ms infinite;}.KFLvXJGe_14{stroke-dasharray:16 18;stroke-dashoffset:17;animation:KFLvXJGe_draw_14 5200ms ease 0ms infinite,KFLvXJGe_fade 5200ms linear 0ms infinite;}.KFLvXJGe_15{stroke-dasharray:18 20;stroke-dashoffset:19;animation:KFLvXJGe_draw_15 5200ms ease 0ms infinite,KFLvXJGe_fade 5200ms linear 0ms infinite;}.KFLvXJGe_16{stroke-dasharray:5 7;stroke-dashoffset:6;animation:KFLvXJGe_draw_16 5200ms ease 0ms infinite,KFLvXJGe_fade 5200ms linear 0ms infinite;}.KFLvXJGe_17{stroke-dasharray:37 39;stroke-dashoffset:38;animation:KFLvXJGe_draw_17 5200ms ease 0ms infinite,KFLvXJGe_fade 5200ms linear 0ms infinite;}.KFLvXJGe_18{stroke-dasharray:13 15;stroke-dashoffset:14;animation:KFLvXJGe_draw_18 5200ms ease 0ms infinite,KFLvXJGe_fade 5200ms linear 0ms infinite;}.KFLvXJGe_19{stroke-dasharray:13 15;stroke-dashoffset:14;animation:KFLvXJGe_draw_19 5200ms ease 0ms infinite,KFLvXJGe_fade 5200ms linear 0ms infinite;}.KFLvXJGe_20{stroke-dasharray:13 15;stroke-dashoffset:14;animation:KFLvXJGe_draw_20 5200ms ease 0ms infinite,KFLvXJGe_fade 5200ms linear 0ms infinite;}.KFLvXJGe_21{stroke-dasharray:13 15;stroke-dashoffset:14;animation:KFLvXJGe_draw_21 5200ms ease 0ms infinite,KFLvXJGe_fade 5200ms linear 0ms infinite;}.KFLvXJGe_22{stroke-dasharray:13 15;stroke-dashoffset:14;animation:KFLvXJGe_draw_22 5200ms ease 0ms infinite,KFLvXJGe_fade 5200ms linear 0ms infinite;}.KFLvXJGe_23{stroke-dasharray:13 15;stroke-dashoffset:14;animation:KFLvXJGe_draw_23 5200ms ease 0ms infinite,KFLvXJGe_fade 5200ms linear 0ms infinite;}.KFLvXJGe_24{stroke-dasharray:13 15;stroke-dashoffset:14;animation:KFLvXJGe_draw_24 5200ms ease 0ms infinite,KFLvXJGe_fade 5200ms linear 0ms infinite;}.KFLvXJGe_25{stroke-dasharray:13 15;stroke-dashoffset:14;animation:KFLvXJGe_draw_25 5200ms ease 0ms infinite,KFLvXJGe_fade 5200ms linear 0ms infinite;}.KFLvXJGe_26{stroke-dasharray:13 15;stroke-dashoffset:14;animation:KFLvXJGe_draw_26 5200ms ease 0ms infinite,KFLvXJGe_fade 5200ms linear 0ms infinite;}.KFLvXJGe_27{stroke-dasharray:13 15;stroke-dashoffset:14;animation:KFLvXJGe_draw_27 5200ms ease 0ms infinite,KFLvXJGe_fade 5200ms linear 0ms infinite;}.KFLvXJGe_28{stroke-dasharray:13 15;stroke-dashoffset:14;animation:KFLvXJGe_draw_28 5200ms ease 0ms infinite,KFLvXJGe_fade 5200ms linear 0ms infinite;}.KFLvXJGe_29{stroke-dasharray:13 15;stroke-dashoffset:14;animation:KFLvXJGe_draw_29 5200ms ease 0ms infinite,KFLvXJGe_fade 5200ms linear 0ms infinite;}.KFLvXJGe_30{stroke-dasharray:13 15;stroke-dashoffset:14;animation:KFLvXJGe_draw_30 5200ms ease 0ms infinite,KFLvXJGe_fade 5200ms linear 0ms infinite;}.KFLvXJGe_31{stroke-dasharray:13 15;stroke-dashoffset:14;animation:KFLvXJGe_draw_31 5200ms ease 0ms infinite,KFLvXJGe_fade 5200ms linear 0ms infinite;}.KFLvXJGe_32{stroke-dasharray:13 15;stroke-dashoffset:14;animation:KFLvXJGe_draw_32 5200ms ease 0ms infinite,KFLvXJGe_fade 5200ms linear 0ms infinite;}.KFLvXJGe_33{stroke-dasharray:13 15;stroke-dashoffset:14;animation:KFLvXJGe_draw_33 5200ms ease 0ms infinite,KFLvXJGe_fade 5200ms linear 0ms infinite;}.KFLvXJGe_34{stroke-dasharray:13 15;stroke-dashoffset:14;animation:KFLvXJGe_draw_34 5200ms ease 0ms infinite,KFLvXJGe_fade 5200ms linear 0ms infinite;}.KFLvXJGe_35{stroke-dasharray:13 15;stroke-dashoffset:14;animation:KFLvXJGe_draw_35 5200ms ease 0ms infinite,KFLvXJGe_fade 5200ms linear 0ms infinite;}.KFLvXJGe_36{stroke-dasharray:13 15;stroke-dashoffset:14;animation:KFLvXJGe_draw_36 5200ms ease 0ms infinite,KFLvXJGe_fade 5200ms linear 0ms infinite;}.KFLvXJGe_37{stroke-dasharray:746 748;stroke-dashoffset:747;animation:KFLvXJGe_draw_37 5200ms ease 0ms infinite,KFLvXJGe_fade 5200ms linear 0ms infinite;}.KFLvXJGe_38{stroke-dasharray:139 141;stroke-dashoffset:140;animation:KFLvXJGe_draw_38 5200ms ease 0ms infinite,KFLvXJGe_fade 5200ms linear 0ms infinite;}.KFLvXJGe_39{stroke-dasharray:179 181;stroke-dashoffset:180;animation:KFLvXJGe_draw_39 5200ms ease 0ms infinite,KFLvXJGe_fade 5200ms linear 0ms infinite;}.KFLvXJGe_40{stroke-dasharray:23 25;stroke-dashoffset:24;animation:KFLvXJGe_draw_40 5200ms ease 0ms infinite,KFLvXJGe_fade 5200ms linear 0ms infinite;}.KFLvXJGe_41{stroke-dasharray:29 31;stroke-dashoffset:30;animation:KFLvXJGe_draw_41 5200ms ease 0ms infinite,KFLvXJGe_fade 5200ms linear 0ms infinite;}.KFLvXJGe_42{stroke-dasharray:25 27;stroke-dashoffset:26;animation:KFLvXJGe_draw_42 5200ms ease 0ms infinite,KFLvXJGe_fade 5200ms linear 0ms infinite;}.KFLvXJGe_43{stroke-dasharray:9 11;stroke-dashoffset:10;animation:KFLvXJGe_draw_43 5200ms ease 0ms infinite,KFLvXJGe_fade 5200ms linear 0ms infinite;}.KFLvXJGe_44{stroke-dasharray:202 204;stroke-dashoffset:203;animation:KFLvXJGe_draw_44 5200ms ease 0ms infinite,KFLvXJGe_fade 5200ms linear 0ms infinite;}.KFLvXJGe_45{stroke-dasharray:399 401;stroke-dashoffset:400;animation:KFLvXJGe_draw_45 5200ms ease 0ms infinite,KFLvXJGe_fade 5200ms linear 0ms infinite;}.KFLvXJGe_46{stroke-dasharray:17 19;stroke-dashoffset:18;animation:KFLvXJGe_draw_46 5200ms ease 0ms infinite,KFLvXJGe_fade 5200ms linear 0ms infinite;}.KFLvXJGe_47{stroke-dasharray:11 13;stroke-dashoffset:12;animation:KFLvXJGe_draw_47 5200ms ease 0ms infinite,KFLvXJGe_fade 5200ms linear 0ms infinite;}.KFLvXJGe_48{stroke-dasharray:45 47;stroke-dashoffset:46;animation:KFLvXJGe_draw_48 5200ms ease 0ms infinite,KFLvXJGe_fade 5200ms linear 0ms infinite;}@keyframes KFLvXJGe_draw{100%{stroke-dashoffset:0;}}@keyframes KFLvXJGe_fade{0%{stroke-opacity:1;}92.3076923076923%{stroke-opacity:1;}100%{stroke-opacity:0;}}@keyframes KFLvXJGe_draw_0{15.384615384615385%{stroke-dashoffset: 565}53.84615384615385%{ stroke-dashoffset: 0;}100%{ stroke-dashoffset: 0;}}@keyframes KFLvXJGe_draw_1{15.785256410256409%{stroke-dashoffset: 79}54.246794871794876%{ stroke-dashoffset: 0;}100%{ stroke-dashoffset: 0;}}@keyframes KFLvXJGe_draw_2{16.185897435897434%{stroke-dashoffset: 91}54.64743589743589%{ stroke-dashoffset: 0;}100%{ stroke-dashoffset: 0;}}@keyframes KFLvXJGe_draw_3{16.58653846153846%{stroke-dashoffset: 269}55.04807692307693%{ stroke-dashoffset: 0;}100%{ stroke-dashoffset: 0;}}@keyframes KFLvXJGe_draw_4{16.98717948717949%{stroke-dashoffset: 352}55.44871794871795%{ stroke-dashoffset: 0;}100%{ stroke-dashoffset: 0;}}@keyframes KFLvXJGe_draw_5{17.38782051282051%{stroke-dashoffset: 312}55.84935897435898%{ stroke-dashoffset: 0;}100%{ stroke-dashoffset: 0;}}@keyframes KFLvXJGe_draw_6{17.78846153846154%{stroke-dashoffset: 42}56.25%{ stroke-dashoffset: 0;}100%{ stroke-dashoffset: 0;}}@keyframes KFLvXJGe_draw_7{18.189102564102562%{stroke-dashoffset: 4}56.65064102564102%{ stroke-dashoffset: 0;}100%{ stroke-dashoffset: 0;}}@keyframes KFLvXJGe_draw_8{18.58974358974359%{stroke-dashoffset: 10}57.05128205128205%{ stroke-dashoffset: 0;}100%{ stroke-dashoffset: 0;}}@keyframes KFLvXJGe_draw_9{18.990384615384613%{stroke-dashoffset: 88}57.45192307692307%{ stroke-dashoffset: 0;}100%{ stroke-dashoffset: 0;}}@keyframes KFLvXJGe_draw_10{19.39102564102564%{stroke-dashoffset: 12}57.852564102564095%{ stroke-dashoffset: 0;}100%{ stroke-dashoffset: 0;}}@keyframes KFLvXJGe_draw_11{19.791666666666668%{stroke-dashoffset: 8}58.25320512820513%{ stroke-dashoffset: 0;}100%{ stroke-dashoffset: 0;}}@keyframes KFLvXJGe_draw_12{20.192307692307693%{stroke-dashoffset: 17}58.65384615384615%{ stroke-dashoffset: 0;}100%{ stroke-dashoffset: 0;}}@keyframes KFLvXJGe_draw_13{20.592948717948715%{stroke-dashoffset: 6}59.05448717948717%{ stroke-dashoffset: 0;}100%{ stroke-dashoffset: 0;}}@keyframes KFLvXJGe_draw_14{20.99358974358974%{stroke-dashoffset: 17}59.455128205128204%{ stroke-dashoffset: 0;}100%{ stroke-dashoffset: 0;}}@keyframes KFLvXJGe_draw_15{21.394230769230766%{stroke-dashoffset: 19}59.855769230769226%{ stroke-dashoffset: 0;}100%{ stroke-dashoffset: 0;}}@keyframes KFLvXJGe_draw_16{21.794871794871792%{stroke-dashoffset: 6}60.256410256410255%{ stroke-dashoffset: 0;}100%{ stroke-dashoffset: 0;}}@keyframes KFLvXJGe_draw_17{22.195512820512818%{stroke-dashoffset: 38}60.65705128205128%{ stroke-dashoffset: 0;}100%{ stroke-dashoffset: 0;}}@keyframes KFLvXJGe_draw_18{22.596153846153847%{stroke-dashoffset: 14}61.057692307692314%{ stroke-dashoffset: 0;}100%{ stroke-dashoffset: 0;}}@keyframes KFLvXJGe_draw_19{22.996794871794872%{stroke-dashoffset: 14}61.45833333333333%{ stroke-dashoffset: 0;}100%{ stroke-dashoffset: 0;}}@keyframes KFLvXJGe_draw_20{23.397435897435894%{stroke-dashoffset: 14}61.858974358974365%{ stroke-dashoffset: 0;}100%{ stroke-dashoffset: 0;}}@keyframes KFLvXJGe_draw_21{23.798076923076923%{stroke-dashoffset: 14}62.25961538461539%{ stroke-dashoffset: 0;}100%{ stroke-dashoffset: 0;}}@keyframes KFLvXJGe_draw_22{24.198717948717945%{stroke-dashoffset: 14}62.66025641025641%{ stroke-dashoffset: 0;}100%{ stroke-dashoffset: 0;}}@keyframes KFLvXJGe_draw_23{24.59935897435897%{stroke-dashoffset: 14}63.06089743589743%{ stroke-dashoffset: 0;}100%{ stroke-dashoffset: 0;}}@keyframes KFLvXJGe_draw_24{25%{stroke-dashoffset: 14}63.46153846153846%{ stroke-dashoffset: 0;}100%{ stroke-dashoffset: 0;}}@keyframes KFLvXJGe_draw_25{25.400641025641026%{stroke-dashoffset: 14}63.86217948717948%{ stroke-dashoffset: 0;}100%{ stroke-dashoffset: 0;}}@keyframes KFLvXJGe_draw_26{25.801282051282048%{stroke-dashoffset: 14}64.26282051282051%{ stroke-dashoffset: 0;}100%{ stroke-dashoffset: 0;}}@keyframes KFLvXJGe_draw_27{26.201923076923077%{stroke-dashoffset: 14}64.66346153846155%{ stroke-dashoffset: 0;}100%{ stroke-dashoffset: 0;}}@keyframes KFLvXJGe_draw_28{26.602564102564102%{stroke-dashoffset: 14}65.06410256410255%{ stroke-dashoffset: 0;}100%{ stroke-dashoffset: 0;}}@keyframes KFLvXJGe_draw_29{27.003205128205128%{stroke-dashoffset: 14}65.46474358974359%{ stroke-dashoffset: 0;}100%{ stroke-dashoffset: 0;}}@keyframes KFLvXJGe_draw_30{27.403846153846157%{stroke-dashoffset: 14}65.86538461538461%{ stroke-dashoffset: 0;}100%{ stroke-dashoffset: 0;}}@keyframes KFLvXJGe_draw_31{27.804487179487182%{stroke-dashoffset: 14}66.26602564102564%{ stroke-dashoffset: 0;}100%{ stroke-dashoffset: 0;}}@keyframes KFLvXJGe_draw_32{28.205128205128204%{stroke-dashoffset: 14}66.66666666666666%{ stroke-dashoffset: 0;}100%{ stroke-dashoffset: 0;}}@keyframes KFLvXJGe_draw_33{28.60576923076923%{stroke-dashoffset: 14}67.0673076923077%{ stroke-dashoffset: 0;}100%{ stroke-dashoffset: 0;}}@keyframes KFLvXJGe_draw_34{29.006410256410252%{stroke-dashoffset: 14}67.46794871794872%{ stroke-dashoffset: 0;}100%{ stroke-dashoffset: 0;}}@keyframes KFLvXJGe_draw_35{29.407051282051277%{stroke-dashoffset: 14}67.86858974358974%{ stroke-dashoffset: 0;}100%{ stroke-dashoffset: 0;}}@keyframes KFLvXJGe_draw_36{29.807692307692307%{stroke-dashoffset: 14}68.26923076923077%{ stroke-dashoffset: 0;}100%{ stroke-dashoffset: 0;}}@keyframes KFLvXJGe_draw_37{30.208333333333332%{stroke-dashoffset: 747}68.66987179487178%{ stroke-dashoffset: 0;}100%{ stroke-dashoffset: 0;}}@keyframes KFLvXJGe_draw_38{30.608974358974354%{stroke-dashoffset: 140}69.07051282051282%{ stroke-dashoffset: 0;}100%{ stroke-dashoffset: 0;}}@keyframes KFLvXJGe_draw_39{31.009615384615387%{stroke-dashoffset: 180}69.47115384615384%{ stroke-dashoffset: 0;}100%{ stroke-dashoffset: 0;}}@keyframes KFLvXJGe_draw_40{31.41025641025641%{stroke-dashoffset: 24}69.87179487179486%{ stroke-dashoffset: 0;}100%{ stroke-dashoffset: 0;}}@keyframes KFLvXJGe_draw_41{31.810897435897434%{stroke-dashoffset: 30}70.2724358974359%{ stroke-dashoffset: 0;}100%{ stroke-dashoffset: 0;}}@keyframes KFLvXJGe_draw_42{32.21153846153847%{stroke-dashoffset: 26}70.67307692307693%{ stroke-dashoffset: 0;}100%{ stroke-dashoffset: 0;}}@keyframes KFLvXJGe_draw_43{32.61217948717949%{stroke-dashoffset: 10}71.07371794871794%{ stroke-dashoffset: 0;}100%{ stroke-dashoffset: 0;}}@keyframes KFLvXJGe_draw_44{33.01282051282051%{stroke-dashoffset: 203}71.47435897435898%{ stroke-dashoffset: 0;}100%{ stroke-dashoffset: 0;}}@keyframes KFLvXJGe_draw_45{33.41346153846153%{stroke-dashoffset: 400}71.875%{ stroke-dashoffset: 0;}100%{ stroke-dashoffset: 0;}}@keyframes KFLvXJGe_draw_46{33.81410256410256%{stroke-dashoffset: 18}72.27564102564102%{ stroke-dashoffset: 0;}100%{ stroke-dashoffset: 0;}}@keyframes KFLvXJGe_draw_47{34.214743589743584%{stroke-dashoffset: 12}72.67628205128204%{ stroke-dashoffset: 0;}100%{ stroke-dashoffset: 0;}}@keyframes KFLvXJGe_draw_48{34.61538461538461%{stroke-dashoffset: 46}73.07692307692307%{ stroke-dashoffset: 0;}100%{ stroke-dashoffset: 0;}}</style></svg>