<svg id="Capa_1" data-name="Capa 1" xmlns="http://www.w3.org/2000/svg" viewBox="0 0 304.82 200.65" style=""><defs><style>.cls-1,.cls-7{fill:#263238;}.cls-1,.cls-3,.cls-4,.cls-5,.cls-6{stroke:#263238;}.cls-1,.cls-2,.cls-3,.cls-4,.cls-5,.cls-6{stroke-linecap:round;stroke-linejoin:round;}.cls-2,.cls-4,.cls-6{fill:none;}.cls-2{stroke:#949494;}.cls-3{fill:#92e3a9;}.cls-5{fill:#fff;}.cls-6{stroke-width:2px;}</style></defs><g id="freepik--Character--inject-2"><path class="cls-1 BAOeGlwG_0" d="M268.47,413.55s-35.25,10-40.25,10.88-7-.44-12,1.52-15,4.13-15,4.13-23.06,4.13-35,3.7-16.32-2-16.32-2L146,430.73a23.07,23.07,0,0,0-2.18,7.18c-.22,3.26,1.09,19.58,1.09,19.58s5.22-1.52,18.06,1.09,32.42,6.09,47,3.7,15.67-4.35,20.89-5,23.06,4.57,27.2,4.35,101.83,0,101.83,0a98.42,98.42,0,0,0,18.5-10.44c8.49-6.31,23.72-10.44,28.5-21.76s-7.18-23.28-13.49-24.15-37.64,10.44-38.95,10.66-5.26-3.45-5.26-3.45l-80.69,1.06Z" transform="translate(-103.65 -265.71)"></path><path class="cls-2 BAOeGlwG_1" d="M185.45,155.53L191.45,162.45"></path><path class="cls-2 BAOeGlwG_2" d="M284.26,421.24s10.84,10.15,13.15,15" transform="translate(-103.65 -265.71)"></path><path class="cls-2 BAOeGlwG_3" d="M334.32,421.47s-7.38,5.77-10.61,10.84" transform="translate(-103.65 -265.71)"></path><path class="cls-2 BAOeGlwG_4" d="M327.63,422.39S321.86,430,320,434.15" transform="translate(-103.65 -265.71)"></path><path class="cls-3 BAOeGlwG_5" d="M261.77,326.77s-9.1,6.94-15.8,12.21-13.89,11-21.55,14.37-29.93,3.59-45.73,9.58S144,372.51,144,372.51l1.92,14.13s65.12-3.11,78.53-6.46,13.65-5.75,20.11-2.63,27.3,32.56,27.3,32.56l-5.75,1.2.48,3.59s11.49,5.51,29.93,4.31,32.32-2.15,36.39-2.39,16.28-4.31,16.28-4.31-2.63-14.37-8.38-37.11S335.27,339,335.27,339l31.6,12.45a150.39,150.39,0,0,1-1.2,28.49c-2.15,16.76-4.55,23.7-4.55,23.7l16.28,5.27s8.62-41.66,11.49-53.63-1.92-17.48-5.27-20.35-44.29-27.77-54.11-30.65-22.27-3.11-27.77-1.44S282.35,310,282.35,310l-20.59,16.76Z" transform="translate(-103.65 -265.71)"></path><path class="cls-4 BAOeGlwG_6" d="M282,413.19a48.47,48.47,0,0,0,10.65,1.07c14,0,16-.76,16-.76" transform="translate(-103.65 -265.71)"></path><path class="cls-4 BAOeGlwG_7" d="M273.57,409.69a14.86,14.86,0,0,0,4.55,2.38" transform="translate(-103.65 -265.71)"></path><path class="cls-4 BAOeGlwG_8" d="M319.09,414.5a42.37,42.37,0,0,0,4.5-1.51" transform="translate(-103.65 -265.71)"></path><path class="cls-4 BAOeGlwG_9" d="M284,417.31s16.75,1,30.77-1.79" transform="translate(-103.65 -265.71)"></path><path class="cls-4 BAOeGlwG_10" d="M236.08,372.27c-3.42-3.2-9.45-8.45-14.29-10.54" transform="translate(-103.65 -265.71)"></path><path class="cls-4 BAOeGlwG_11" d="M238.78,374.9s-.42-.43-1.14-1.13" transform="translate(-103.65 -265.71)"></path><path class="cls-4 BAOeGlwG_12" d="M231.6,362s6.7,4.79,8.38,6.94" transform="translate(-103.65 -265.71)"></path><path class="cls-4 BAOeGlwG_13" d="M332.4,338s-6.7-1.2-9.82-6.23" transform="translate(-103.65 -265.71)"></path><path class="cls-4 BAOeGlwG_14" d="M279.57,351.59c8.16,2.54,16.63,4.74,22.42,5.12" transform="translate(-103.65 -265.71)"></path><path class="cls-4 BAOeGlwG_15" d="M254.83,342.82s9.61,3.85,20.76,7.5" transform="translate(-103.65 -265.71)"></path><path class="cls-4 BAOeGlwG_16" d="M301.72,375.35a54.77,54.77,0,0,0,6.74,2.42" transform="translate(-103.65 -265.71)"></path><path class="cls-4 BAOeGlwG_17" d="M257.22,350.24s23.63,15.49,40.91,23.52" transform="translate(-103.65 -265.71)"></path><path class="cls-4 BAOeGlwG_18" d="M256.15,360c1.81,1.31,3.18,2.28,3.46,2.42" transform="translate(-103.65 -265.71)"></path><path class="cls-4 BAOeGlwG_19" d="M244.77,351.68s4.35,3.23,8.35,6.15" transform="translate(-103.65 -265.71)"></path><path class="cls-4 BAOeGlwG_20" d="M296.39,324.08a18.17,18.17,0,0,1-.62,2.93" transform="translate(-103.65 -265.71)"></path><path class="cls-4 BAOeGlwG_21" d="M295.05,311.45a34.5,34.5,0,0,1,1.52,9.87" transform="translate(-103.65 -265.71)"></path><path class="cls-5 BAOeGlwG_22" d="M234,282s.57,11.62,1,14.16-2.75,11.45,2.94,20.33c3.22,5,2.53,12.67,6.24,13.64s13-2.92,13-2.92,2.73,5.07,4.09,8.38,9.35,11.89,17.93,6.43,11.69-23,10.72-26.5a13,13,0,0,0-3.7-6.43c-1-.78-3.31-3.12-3.9-4.68a21.16,21.16,0,0,1-1-8.57c.39-3.31,1.75-16.37-1.17-21s-8.77-8.57-19.68-8.57a56.57,56.57,0,0,0-20.26,4.09s2.14-3.7.39-2.92a10.37,10.37,0,0,0-3.31,2.92S237,264.85,235,268a13,13,0,0,0-1.75,6.82s-1.36-1.56-1.56.78S234,282,234,282Z" transform="translate(-103.65 -265.71)"></path><path class="cls-1 BAOeGlwG_23" d="M281.36,295.82c.39-3.31,1.75-16.37-1.17-21s-8.77-8.57-19.68-8.57a56.57,56.57,0,0,0-20.26,4.09s2.14-3.7.39-2.92a10.37,10.37,0,0,0-3.31,2.92s-.39-5.46-2.34-2.34a13,13,0,0,0-1.75,6.82s-1.36-1.56-1.56.78S234,282,234,282s2.73,1.56,4.29,1,4-2.15,5.46-2.53c5.18-1.35,14.22-1.75,12.28,1s-5.07,4.09-2.73,5.65,9.35,2.92,9.74,5.07.19,6.43,2.34,5.26,3.12-5.07,6.43-4.09,6,5.26,4.87,8.57.39,4.09,3.31,1.75a10.09,10.09,0,0,0,1.67-1.77,20.8,20.8,0,0,1-.3-6Z" transform="translate(-103.65 -265.71)"></path><path class="cls-5 BAOeGlwG_24" d="M267.93,296.61s3.49-5.07,6-5.07,5.65,3.31,2.73,10.33-6.82,7.79-7.79,3.12" transform="translate(-103.65 -265.71)"></path><path class="cls-4 BAOeGlwG_25" d="M238.64,295.38l1.29,3.24s-1.29,10.35-.43,12.08,6.47.65,6.47.65" transform="translate(-103.65 -265.71)"></path><path class="cls-4 BAOeGlwG_26" d="M241.45,316.52s6.47,2.16,12.08-4.31" transform="translate(-103.65 -265.71)"></path><path class="cls-6 BAOeGlwG_27" d="M244.25,292.8s6.26-2.59,9.71-.43" transform="translate(-103.65 -265.71)"></path><path class="cls-6 BAOeGlwG_28" d="M134.35,28.16L132.19,27.09"></path><path class="cls-7 BAOeGlwG_29" d="M250.29,297.86c0,1.13-.58,2.05-1.29,2.05s-1.29-.92-1.29-2.05.58-2.05,1.29-2.05S250.29,296.73,250.29,297.86Z" transform="translate(-103.65 -265.71)"></path><path class="cls-7 BAOeGlwG_30" d="M239,298.6c0,1.06-.52,1.92-1.16,1.92s-1.16-.86-1.16-1.92.52-1.92,1.16-1.92S239,297.54,239,298.6Z" transform="translate(-103.65 -265.71)"></path><path class="cls-1 BAOeGlwG_31" d="M257.2,327.19s8.22-1.75,9.59-3.35.69,2.06-.23,7.55-2.75,7.1-2.75,7.1a13,13,0,0,1-3-4.81,33.13,33.13,0,0,0-3.64-6.49Z" transform="translate(-103.65 -265.71)"></path><path class="cls-3 BAOeGlwG_32" d="M109.79,390.79s-5.82,8.91-5.64,19.64,5.45,40.36,7.82,46.36,6.73,11.45,13.27,8a32.31,32.31,0,0,1,14.54-4c3.27-.18,7.45-.91,7.82-8.18a51.38,51.38,0,0,0-1.82-14.73s3.45-6.73,2.55-10-10-5.27-11.64-7.27-6-16.18-7.45-20a19.54,19.54,0,0,1-1.27-9.82c.36-2.91,2.36-10-3.82-8.73s-9.64,5.09-14.36,8.73Z" transform="translate(-103.65 -265.71)"></path><path class="cls-6 BAOeGlwG_33" d="M132.51,419.73a9.74,9.74,0,0,1,3.2-.8" transform="translate(-103.65 -265.71)"></path><path class="cls-6 BAOeGlwG_34" d="M130.91,415.53a7.53,7.53,0,0,1,2.8-1.2" transform="translate(-103.65 -265.71)"></path><path class="cls-6 BAOeGlwG_35" d="M26.66,144.82L28.26,144.22"></path><path class="cls-5 BAOeGlwG_36" d="M129.6,444.42c-3.64-9.27-7.82-27.09-7.82-41.82s2.65-17.68,4-20.67a6.45,6.45,0,0,0-1.63.12c-6.18,1.27-9.64,5.09-14.36,8.73,0,0-5.82,8.91-5.64,19.64s5.45,40.36,7.82,46.36,6.73,11.45,13.27,8a36,36,0,0,1,6.91-2.82c.13-4-.07-11.22-2.55-17.54Z" transform="translate(-103.65 -265.71)"></path><path class="cls-5 BAOeGlwG_37" d="M123.24,447.51c-3.09-9.64-4.73-23.82-5.27-39.82a51.34,51.34,0,0,1,5.84-25.55c-6,1.34-9.38,5.08-14,8.64,0,0-5.82,8.91-5.64,19.64s5.45,40.36,7.82,46.36,6.73,11.45,13.27,8l.09,0a43.55,43.55,0,0,0-2.09-17.23Z" transform="translate(-103.65 -265.71)"></path><path class="cls-5 BAOeGlwG_38" d="M361.13,403.63S347,404.07,346,404.7,333.71,411,332.13,412s-4.42,5.36-3.63,6.31,2.52.63,3.63.32,3.94-.79,3.94-.79-2.21,1.89-1.26,2.05,5.21-1.1,6.31-1.74,12.15-3.31,13.41-3.31,10.1,1.26,15.46-.63,7.43-5.27,7.43-5.27l-16.28-5.27Z" transform="translate(-103.65 -265.71)"></path><path class="cls-4 BAOeGlwG_39" d="M336.07,417.79s12.64-6.32,13.64-6.73,3.62-1.21,3.62-1.21" transform="translate(-103.65 -265.71)"></path><path class="cls-4 BAOeGlwG_40" d="M328.5,418.27s9.34-5.39,10.35-5.79,10.06-4.83,10.06-4.83" transform="translate(-103.65 -265.71)"></path><path class="cls-4 BAOeGlwG_41" d="M330,414.41s4.95-2.92,5.62-3.22,10.5-5,10.5-5" transform="translate(-103.65 -265.71)"></path><path class="cls-3 BAOeGlwG_42" d="M303.42,441s-7.26-4.26-12.15-5.36-10.1,1.58-13.72,1.58-12.46-3.79-19.24-3.94-14.67,8.05-13.72,14.2,3.47,10.88,10.57,12.78,36.75,1.42,36.75,1.42l13.57-.79a113.7,113.7,0,0,1-1.42-12,67.55,67.55,0,0,0-.63-7.89Z" transform="translate(-103.65 -265.71)"></path><path class="cls-6 BAOeGlwG_43" d="M280.61,444.51s-3.8,4-1.8,11.19" transform="translate(-103.65 -265.71)"></path><path class="cls-6 BAOeGlwG_44" d="M285.21,445.11s-3.8,4-1.8,11.19" transform="translate(-103.65 -265.71)"></path><path class="cls-6 BAOeGlwG_45" d="M289.8,445.71s-3.8,4-1.8,11.19" transform="translate(-103.65 -265.71)"></path><path class="cls-6 BAOeGlwG_46" d="M294.4,446.31s-3.8,4-1.8,11.19" transform="translate(-103.65 -265.71)"></path><path class="cls-5 BAOeGlwG_47" d="M255.15,460.23l.36.08c-1.85-1.1-4.19-2.77-5.09-4.66-1.58-3.31-2-4.42-1.1-6.31s1.74-3,1.74-5.84.16-4.89.16-4.89,3.94-3.94,6.94-4.1c2.36-.12,11,1.32,16.15,2.16-4.34-1-10.77-3.3-16-3.43-6.78-.16-14.67,8.05-13.72,14.2s3.47,10.88,10.57,12.78Z" transform="translate(-103.65 -265.71)"></path><path class="cls-1 BAOeGlwG_48" d="M387.18,409.75s-21.45,6-33.28,11.52-32.5,17.67-32.5,17.67l-18,2.05s0,13.72.16,15.46a13.49,13.49,0,0,0,1.89,4.42s31.86-2.84,45.43-5.05,40.23-12.62,46.69-16.88" transform="translate(-103.65 -265.71)"></path><path class="cls-2 BAOeGlwG_49" d="M306.4,441.81s14.88-1.79,36.74-14.7a83.27,83.27,0,0,1,25.09-10" transform="translate(-103.65 -265.71)"></path><path class="cls-4 BAOeGlwG_50" d="M291.27,435.62c-4.89-1.1-10.1,1.58-13.72,1.58,3.31.47,8.83.63,12.46-.47.84-.26,1.74-.5,2.63-.73-.47-.14-.93-.27-1.36-.37Z" transform="translate(-103.65 -265.71)"></path><path class="cls-5 BAOeGlwG_51" d="M146.88,374.79a9.93,9.93,0,0,0-5.09-2.73c-3.09-.55-14.36-3.27-16.54-2.73s-10.91,9.09-12.18,11.27-4.18,12-3.82,13.27-.55,1.82,2.91-.36,5.09-5.09,7.82-7.82a28.13,28.13,0,0,1,4.18-3.64s4-.91,4.73-.91,3.83-1.49,2.19,2.33-6,8.76-5.1,11.13,1.09,1.09,3.82-1.09a27.81,27.81,0,0,1,5.09-3.27,45.13,45.13,0,0,0,6.18-2c1.27-.73,5.64.36,6.73-6.18s-.91-7.27-.91-7.27Z" transform="translate(-103.65 -265.71)"></path><path class="cls-4 BAOeGlwG_52" d="M112.15,393.52a5.35,5.35,0,0,1,1-4.54,131.08,131.08,0,0,1,9.72-11.83,16.68,16.68,0,0,1,3-1.69" transform="translate(-103.65 -265.71)"></path><path class="cls-4 BAOeGlwG_53" d="M109.24,393.88a72.65,72.65,0,0,1,3.86-9.56c1.69-3,5.92-7.18,6.13-8s2.75-2.54,2.75-2.54" transform="translate(-103.65 -265.71)"></path></g><style data-made-with="vivus-instant">.BAOeGlwG_0{stroke-dasharray:586 588;stroke-dashoffset:587;animation:BAOeGlwG_draw_0 5200ms ease 0ms infinite,BAOeGlwG_fade 5200ms linear 0ms infinite;}.BAOeGlwG_1{stroke-dasharray:10 12;stroke-dashoffset:11;animation:BAOeGlwG_draw_1 5200ms ease 0ms infinite,BAOeGlwG_fade 5200ms linear 0ms infinite;}.BAOeGlwG_2{stroke-dasharray:21 23;stroke-dashoffset:22;animation:BAOeGlwG_draw_2 5200ms ease 0ms infinite,BAOeGlwG_fade 5200ms linear 0ms infinite;}.BAOeGlwG_3{stroke-dasharray:16 18;stroke-dashoffset:17;animation:BAOeGlwG_draw_3 5200ms ease 0ms infinite,BAOeGlwG_fade 5200ms linear 0ms infinite;}.BAOeGlwG_4{stroke-dasharray:15 17;stroke-dashoffset:16;animation:BAOeGlwG_draw_4 5200ms ease 0ms infinite,BAOeGlwG_fade 5200ms linear 0ms infinite;}.BAOeGlwG_5{stroke-dasharray:773 775;stroke-dashoffset:774;animation:BAOeGlwG_draw_5 5200ms ease 0ms infinite,BAOeGlwG_fade 5200ms linear 0ms infinite;}.BAOeGlwG_6{stroke-dasharray:27 29;stroke-dashoffset:28;animation:BAOeGlwG_draw_6 5200ms ease 0ms infinite,BAOeGlwG_fade 5200ms linear 0ms infinite;}.BAOeGlwG_7{stroke-dasharray:6 8;stroke-dashoffset:7;animation:BAOeGlwG_draw_7 5200ms ease 0ms infinite,BAOeGlwG_fade 5200ms linear 0ms infinite;}.BAOeGlwG_8{stroke-dasharray:5 7;stroke-dashoffset:6;animation:BAOeGlwG_draw_8 5200ms ease 0ms infinite,BAOeGlwG_fade 5200ms linear 0ms infinite;}.BAOeGlwG_9{stroke-dasharray:31 33;stroke-dashoffset:32;animation:BAOeGlwG_draw_9 5200ms ease 0ms infinite,BAOeGlwG_fade 5200ms linear 0ms infinite;}.BAOeGlwG_10{stroke-dasharray:18 20;stroke-dashoffset:19;animation:BAOeGlwG_draw_10 5200ms ease 0ms infinite,BAOeGlwG_fade 5200ms linear 0ms infinite;}.BAOeGlwG_11{stroke-dasharray:2 4;stroke-dashoffset:3;animation:BAOeGlwG_draw_11 5200ms ease 0ms infinite,BAOeGlwG_fade 5200ms linear 0ms infinite;}.BAOeGlwG_12{stroke-dasharray:11 13;stroke-dashoffset:12;animation:BAOeGlwG_draw_12 5200ms ease 0ms infinite,BAOeGlwG_fade 5200ms linear 0ms infinite;}.BAOeGlwG_13{stroke-dasharray:12 14;stroke-dashoffset:13;animation:BAOeGlwG_draw_13 5200ms ease 0ms infinite,BAOeGlwG_fade 5200ms linear 0ms infinite;}.BAOeGlwG_14{stroke-dasharray:24 26;stroke-dashoffset:25;animation:BAOeGlwG_draw_14 5200ms ease 0ms infinite,BAOeGlwG_fade 5200ms linear 0ms infinite;}.BAOeGlwG_15{stroke-dasharray:23 25;stroke-dashoffset:24;animation:BAOeGlwG_draw_15 5200ms ease 0ms infinite,BAOeGlwG_fade 5200ms linear 0ms infinite;}.BAOeGlwG_16{stroke-dasharray:8 10;stroke-dashoffset:9;animation:BAOeGlwG_draw_16 5200ms ease 0ms infinite,BAOeGlwG_fade 5200ms linear 0ms infinite;}.BAOeGlwG_17{stroke-dasharray:48 50;stroke-dashoffset:49;animation:BAOeGlwG_draw_17 5200ms ease 0ms infinite,BAOeGlwG_fade 5200ms linear 0ms infinite;}.BAOeGlwG_18{stroke-dasharray:5 7;stroke-dashoffset:6;animation:BAOeGlwG_draw_18 5200ms ease 0ms infinite,BAOeGlwG_fade 5200ms linear 0ms infinite;}.BAOeGlwG_19{stroke-dasharray:11 13;stroke-dashoffset:12;animation:BAOeGlwG_draw_19 5200ms ease 0ms infinite,BAOeGlwG_fade 5200ms linear 0ms infinite;}.BAOeGlwG_20{stroke-dasharray:3 5;stroke-dashoffset:4;animation:BAOeGlwG_draw_20 5200ms ease 0ms infinite,BAOeGlwG_fade 5200ms linear 0ms infinite;}.BAOeGlwG_21{stroke-dasharray:11 13;stroke-dashoffset:12;animation:BAOeGlwG_draw_21 5200ms ease 0ms infinite,BAOeGlwG_fade 5200ms linear 0ms infinite;}.BAOeGlwG_22{stroke-dasharray:242 244;stroke-dashoffset:243;animation:BAOeGlwG_draw_22 5200ms ease 0ms infinite,BAOeGlwG_fade 5200ms linear 0ms infinite;}.BAOeGlwG_23{stroke-dasharray:179 181;stroke-dashoffset:180;animation:BAOeGlwG_draw_23 5200ms ease 0ms infinite,BAOeGlwG_fade 5200ms linear 0ms infinite;}.BAOeGlwG_24{stroke-dasharray:34 36;stroke-dashoffset:35;animation:BAOeGlwG_draw_24 5200ms ease 0ms infinite,BAOeGlwG_fade 5200ms linear 0ms infinite;}.BAOeGlwG_25{stroke-dasharray:23 25;stroke-dashoffset:24;animation:BAOeGlwG_draw_25 5200ms ease 0ms infinite,BAOeGlwG_fade 5200ms linear 0ms infinite;}.BAOeGlwG_26{stroke-dasharray:14 16;stroke-dashoffset:15;animation:BAOeGlwG_draw_26 5200ms ease 0ms infinite,BAOeGlwG_fade 5200ms linear 0ms infinite;}.BAOeGlwG_27{stroke-dasharray:11 13;stroke-dashoffset:12;animation:BAOeGlwG_draw_27 5200ms ease 0ms infinite,BAOeGlwG_fade 5200ms linear 0ms infinite;}.BAOeGlwG_28{stroke-dasharray:3 5;stroke-dashoffset:4;animation:BAOeGlwG_draw_28 5200ms ease 0ms infinite,BAOeGlwG_fade 5200ms linear 0ms infinite;}.BAOeGlwG_29{stroke-dasharray:11 13;stroke-dashoffset:12;animation:BAOeGlwG_draw_29 5200ms ease 0ms infinite,BAOeGlwG_fade 5200ms linear 0ms infinite;}.BAOeGlwG_30{stroke-dasharray:10 12;stroke-dashoffset:11;animation:BAOeGlwG_draw_30 5200ms ease 0ms infinite,BAOeGlwG_fade 5200ms linear 0ms infinite;}.BAOeGlwG_31{stroke-dasharray:40 42;stroke-dashoffset:41;animation:BAOeGlwG_draw_31 5200ms ease 0ms infinite,BAOeGlwG_fade 5200ms linear 0ms infinite;}.BAOeGlwG_32{stroke-dasharray:214 216;stroke-dashoffset:215;animation:BAOeGlwG_draw_32 5200ms ease 0ms infinite,BAOeGlwG_fade 5200ms linear 0ms infinite;}.BAOeGlwG_33{stroke-dasharray:4 6;stroke-dashoffset:5;animation:BAOeGlwG_draw_33 5200ms ease 0ms infinite,BAOeGlwG_fade 5200ms linear 0ms infinite;}.BAOeGlwG_34{stroke-dasharray:4 6;stroke-dashoffset:5;animation:BAOeGlwG_draw_34 5200ms ease 0ms infinite,BAOeGlwG_fade 5200ms linear 0ms infinite;}.BAOeGlwG_35{stroke-dasharray:2 4;stroke-dashoffset:3;animation:BAOeGlwG_draw_35 5200ms ease 0ms infinite,BAOeGlwG_fade 5200ms linear 0ms infinite;}.BAOeGlwG_36{stroke-dasharray:194 196;stroke-dashoffset:195;animation:BAOeGlwG_draw_36 5200ms ease 0ms infinite,BAOeGlwG_fade 5200ms linear 0ms infinite;}.BAOeGlwG_37{stroke-dasharray:187 189;stroke-dashoffset:188;animation:BAOeGlwG_draw_37 5200ms ease 0ms infinite,BAOeGlwG_fade 5200ms linear 0ms infinite;}.BAOeGlwG_38{stroke-dasharray:112 114;stroke-dashoffset:113;animation:BAOeGlwG_draw_38 5200ms ease 0ms infinite,BAOeGlwG_fade 5200ms linear 0ms infinite;}.BAOeGlwG_39{stroke-dasharray:20 22;stroke-dashoffset:21;animation:BAOeGlwG_draw_39 5200ms ease 0ms infinite,BAOeGlwG_fade 5200ms linear 0ms infinite;}.BAOeGlwG_40{stroke-dasharray:24 26;stroke-dashoffset:25;animation:BAOeGlwG_draw_40 5200ms ease 0ms infinite,BAOeGlwG_fade 5200ms linear 0ms infinite;}.BAOeGlwG_41{stroke-dasharray:19 21;stroke-dashoffset:20;animation:BAOeGlwG_draw_41 5200ms ease 0ms infinite,BAOeGlwG_fade 5200ms linear 0ms infinite;}.BAOeGlwG_42{stroke-dasharray:157 159;stroke-dashoffset:158;animation:BAOeGlwG_draw_42 5200ms ease 0ms infinite,BAOeGlwG_fade 5200ms linear 0ms infinite;}.BAOeGlwG_43{stroke-dasharray:12 14;stroke-dashoffset:13;animation:BAOeGlwG_draw_43 5200ms ease 0ms infinite,BAOeGlwG_fade 5200ms linear 0ms infinite;}.BAOeGlwG_44{stroke-dasharray:12 14;stroke-dashoffset:13;animation:BAOeGlwG_draw_44 5200ms ease 0ms infinite,BAOeGlwG_fade 5200ms linear 0ms infinite;}.BAOeGlwG_45{stroke-dasharray:12 14;stroke-dashoffset:13;animation:BAOeGlwG_draw_45 5200ms ease 0ms infinite,BAOeGlwG_fade 5200ms linear 0ms infinite;}.BAOeGlwG_46{stroke-dasharray:12 14;stroke-dashoffset:13;animation:BAOeGlwG_draw_46 5200ms ease 0ms infinite,BAOeGlwG_fade 5200ms linear 0ms infinite;}.BAOeGlwG_47{stroke-dasharray:106 108;stroke-dashoffset:107;animation:BAOeGlwG_draw_47 5200ms ease 0ms infinite,BAOeGlwG_fade 5200ms linear 0ms infinite;}.BAOeGlwG_48{stroke-dasharray:207 209;stroke-dashoffset:208;animation:BAOeGlwG_draw_48 5200ms ease 0ms infinite,BAOeGlwG_fade 5200ms linear 0ms infinite;}.BAOeGlwG_49{stroke-dasharray:67 69;stroke-dashoffset:68;animation:BAOeGlwG_draw_49 5200ms ease 0ms infinite,BAOeGlwG_fade 5200ms linear 0ms infinite;}.BAOeGlwG_50{stroke-dasharray:31 33;stroke-dashoffset:32;animation:BAOeGlwG_draw_50 5200ms ease 0ms infinite,BAOeGlwG_fade 5200ms linear 0ms infinite;}.BAOeGlwG_51{stroke-dasharray:133 135;stroke-dashoffset:134;animation:BAOeGlwG_draw_51 5200ms ease 0ms infinite,BAOeGlwG_fade 5200ms linear 0ms infinite;}.BAOeGlwG_52{stroke-dasharray:24 26;stroke-dashoffset:25;animation:BAOeGlwG_draw_52 5200ms ease 0ms infinite,BAOeGlwG_fade 5200ms linear 0ms infinite;}.BAOeGlwG_53{stroke-dasharray:25 27;stroke-dashoffset:26;animation:BAOeGlwG_draw_53 5200ms ease 0ms infinite,BAOeGlwG_fade 5200ms linear 0ms infinite;}@keyframes BAOeGlwG_draw{100%{stroke-dashoffset:0;}}@keyframes BAOeGlwG_fade{0%{stroke-opacity:1;}92.3076923076923%{stroke-opacity:1;}100%{stroke-opacity:0;}}@keyframes BAOeGlwG_draw_0{15.384615384615385%{stroke-dashoffset: 587}53.84615384615385%{ stroke-dashoffset: 0;}100%{ stroke-dashoffset: 0;}}@keyframes BAOeGlwG_draw_1{15.747460087082727%{stroke-dashoffset: 11}54.20899854862119%{ stroke-dashoffset: 0;}100%{ stroke-dashoffset: 0;}}@keyframes BAOeGlwG_draw_2{16.110304789550074%{stroke-dashoffset: 22}54.57184325108854%{ stroke-dashoffset: 0;}100%{ stroke-dashoffset: 0;}}@keyframes BAOeGlwG_draw_3{16.473149492017416%{stroke-dashoffset: 17}54.93468795355588%{ stroke-dashoffset: 0;}100%{ stroke-dashoffset: 0;}}@keyframes BAOeGlwG_draw_4{16.835994194484762%{stroke-dashoffset: 16}55.29753265602323%{ stroke-dashoffset: 0;}100%{ stroke-dashoffset: 0;}}@keyframes BAOeGlwG_draw_5{17.198838896952104%{stroke-dashoffset: 774}55.660377358490564%{ stroke-dashoffset: 0;}100%{ stroke-dashoffset: 0;}}@keyframes BAOeGlwG_draw_6{17.561683599419446%{stroke-dashoffset: 28}56.02322206095791%{ stroke-dashoffset: 0;}100%{ stroke-dashoffset: 0;}}@keyframes BAOeGlwG_draw_7{17.924528301886795%{stroke-dashoffset: 7}56.386066763425255%{ stroke-dashoffset: 0;}100%{ stroke-dashoffset: 0;}}@keyframes BAOeGlwG_draw_8{18.287373004354134%{stroke-dashoffset: 6}56.748911465892604%{ stroke-dashoffset: 0;}100%{ stroke-dashoffset: 0;}}@keyframes BAOeGlwG_draw_9{18.650217706821483%{stroke-dashoffset: 32}57.11175616835995%{ stroke-dashoffset: 0;}100%{ stroke-dashoffset: 0;}}@keyframes BAOeGlwG_draw_10{19.013062409288825%{stroke-dashoffset: 19}57.47460087082729%{ stroke-dashoffset: 0;}100%{ stroke-dashoffset: 0;}}@keyframes BAOeGlwG_draw_11{19.37590711175617%{stroke-dashoffset: 3}57.83744557329463%{ stroke-dashoffset: 0;}100%{ stroke-dashoffset: 0;}}@keyframes BAOeGlwG_draw_12{19.73875181422351%{stroke-dashoffset: 12}58.200290275761965%{ stroke-dashoffset: 0;}100%{ stroke-dashoffset: 0;}}@keyframes BAOeGlwG_draw_13{20.101596516690854%{stroke-dashoffset: 13}58.563134978229314%{ stroke-dashoffset: 0;}100%{ stroke-dashoffset: 0;}}@keyframes BAOeGlwG_draw_14{20.464441219158203%{stroke-dashoffset: 25}58.92597968069666%{ stroke-dashoffset: 0;}100%{ stroke-dashoffset: 0;}}@keyframes BAOeGlwG_draw_15{20.827285921625545%{stroke-dashoffset: 24}59.288824383164005%{ stroke-dashoffset: 0;}100%{ stroke-dashoffset: 0;}}@keyframes BAOeGlwG_draw_16{21.190130624092888%{stroke-dashoffset: 9}59.651669085631355%{ stroke-dashoffset: 0;}100%{ stroke-dashoffset: 0;}}@keyframes BAOeGlwG_draw_17{21.552975326560233%{stroke-dashoffset: 49}60.0145137880987%{ stroke-dashoffset: 0;}100%{ stroke-dashoffset: 0;}}@keyframes BAOeGlwG_draw_18{21.91582002902758%{stroke-dashoffset: 6}60.377358490566046%{ stroke-dashoffset: 0;}100%{ stroke-dashoffset: 0;}}@keyframes BAOeGlwG_draw_19{22.278664731494917%{stroke-dashoffset: 12}60.74020319303338%{ stroke-dashoffset: 0;}100%{ stroke-dashoffset: 0;}}@keyframes BAOeGlwG_draw_20{22.641509433962266%{stroke-dashoffset: 4}61.10304789550073%{ stroke-dashoffset: 0;}100%{ stroke-dashoffset: 0;}}@keyframes BAOeGlwG_draw_21{23.00435413642961%{stroke-dashoffset: 12}61.46589259796807%{ stroke-dashoffset: 0;}100%{ stroke-dashoffset: 0;}}@keyframes BAOeGlwG_draw_22{23.367198838896954%{stroke-dashoffset: 243}61.82873730043542%{ stroke-dashoffset: 0;}100%{ stroke-dashoffset: 0;}}@keyframes BAOeGlwG_draw_23{23.730043541364296%{stroke-dashoffset: 180}62.191582002902756%{ stroke-dashoffset: 0;}100%{ stroke-dashoffset: 0;}}@keyframes BAOeGlwG_draw_24{24.09288824383164%{stroke-dashoffset: 35}62.554426705370105%{ stroke-dashoffset: 0;}100%{ stroke-dashoffset: 0;}}@keyframes BAOeGlwG_draw_25{24.455732946298983%{stroke-dashoffset: 24}62.91727140783744%{ stroke-dashoffset: 0;}100%{ stroke-dashoffset: 0;}}@keyframes BAOeGlwG_draw_26{24.818577648766325%{stroke-dashoffset: 15}63.28011611030478%{ stroke-dashoffset: 0;}100%{ stroke-dashoffset: 0;}}@keyframes BAOeGlwG_draw_27{25.181422351233675%{stroke-dashoffset: 12}63.64296081277213%{ stroke-dashoffset: 0;}100%{ stroke-dashoffset: 0;}}@keyframes BAOeGlwG_draw_28{25.54426705370102%{stroke-dashoffset: 4}64.00580551523947%{ stroke-dashoffset: 0;}100%{ stroke-dashoffset: 0;}}@keyframes BAOeGlwG_draw_29{25.907111756168362%{stroke-dashoffset: 12}64.36865021770683%{ stroke-dashoffset: 0;}100%{ stroke-dashoffset: 0;}}@keyframes BAOeGlwG_draw_30{26.2699564586357%{stroke-dashoffset: 11}64.73149492017417%{ stroke-dashoffset: 0;}100%{ stroke-dashoffset: 0;}}@keyframes BAOeGlwG_draw_31{26.632801161103046%{stroke-dashoffset: 41}65.09433962264151%{ stroke-dashoffset: 0;}100%{ stroke-dashoffset: 0;}}@keyframes BAOeGlwG_draw_32{26.995645863570388%{stroke-dashoffset: 215}65.45718432510886%{ stroke-dashoffset: 0;}100%{ stroke-dashoffset: 0;}}@keyframes BAOeGlwG_draw_33{27.358490566037734%{stroke-dashoffset: 5}65.8200290275762%{ stroke-dashoffset: 0;}100%{ stroke-dashoffset: 0;}}@keyframes BAOeGlwG_draw_34{27.721335268505083%{stroke-dashoffset: 5}66.18287373004354%{ stroke-dashoffset: 0;}100%{ stroke-dashoffset: 0;}}@keyframes BAOeGlwG_draw_35{28.08417997097243%{stroke-dashoffset: 3}66.5457184325109%{ stroke-dashoffset: 0;}100%{ stroke-dashoffset: 0;}}@keyframes BAOeGlwG_draw_36{28.44702467343977%{stroke-dashoffset: 195}66.90856313497824%{ stroke-dashoffset: 0;}100%{ stroke-dashoffset: 0;}}@keyframes BAOeGlwG_draw_37{28.80986937590711%{stroke-dashoffset: 188}67.27140783744558%{ stroke-dashoffset: 0;}100%{ stroke-dashoffset: 0;}}@keyframes BAOeGlwG_draw_38{29.17271407837445%{stroke-dashoffset: 113}67.63425253991292%{ stroke-dashoffset: 0;}100%{ stroke-dashoffset: 0;}}@keyframes BAOeGlwG_draw_39{29.535558780841797%{stroke-dashoffset: 21}67.99709724238025%{ stroke-dashoffset: 0;}100%{ stroke-dashoffset: 0;}}@keyframes BAOeGlwG_draw_40{29.898403483309146%{stroke-dashoffset: 25}68.3599419448476%{ stroke-dashoffset: 0;}100%{ stroke-dashoffset: 0;}}@keyframes BAOeGlwG_draw_41{30.26124818577649%{stroke-dashoffset: 20}68.72278664731495%{ stroke-dashoffset: 0;}100%{ stroke-dashoffset: 0;}}@keyframes BAOeGlwG_draw_42{30.624092888243837%{stroke-dashoffset: 158}69.08563134978229%{ stroke-dashoffset: 0;}100%{ stroke-dashoffset: 0;}}@keyframes BAOeGlwG_draw_43{30.98693759071118%{stroke-dashoffset: 13}69.44847605224965%{ stroke-dashoffset: 0;}100%{ stroke-dashoffset: 0;}}@keyframes BAOeGlwG_draw_44{31.349782293178517%{stroke-dashoffset: 13}69.81132075471699%{ stroke-dashoffset: 0;}100%{ stroke-dashoffset: 0;}}@keyframes BAOeGlwG_draw_45{31.71262699564586%{stroke-dashoffset: 13}70.17416545718433%{ stroke-dashoffset: 0;}100%{ stroke-dashoffset: 0;}}@keyframes BAOeGlwG_draw_46{32.075471698113205%{stroke-dashoffset: 13}70.53701015965167%{ stroke-dashoffset: 0;}100%{ stroke-dashoffset: 0;}}@keyframes BAOeGlwG_draw_47{32.438316400580554%{stroke-dashoffset: 107}70.89985486211901%{ stroke-dashoffset: 0;}100%{ stroke-dashoffset: 0;}}@keyframes BAOeGlwG_draw_48{32.801161103047896%{stroke-dashoffset: 208}71.26269956458636%{ stroke-dashoffset: 0;}100%{ stroke-dashoffset: 0;}}@keyframes BAOeGlwG_draw_49{33.164005805515245%{stroke-dashoffset: 68}71.62554426705371%{ stroke-dashoffset: 0;}100%{ stroke-dashoffset: 0;}}@keyframes BAOeGlwG_draw_50{33.52685050798259%{stroke-dashoffset: 32}71.98838896952104%{ stroke-dashoffset: 0;}100%{ stroke-dashoffset: 0;}}@keyframes BAOeGlwG_draw_51{33.88969521044993%{stroke-dashoffset: 134}72.3512336719884%{ stroke-dashoffset: 0;}100%{ stroke-dashoffset: 0;}}@keyframes BAOeGlwG_draw_52{34.25253991291727%{stroke-dashoffset: 25}72.71407837445572%{ stroke-dashoffset: 0;}100%{ stroke-dashoffset: 0;}}@keyframes BAOeGlwG_draw_53{34.61538461538461%{stroke-dashoffset: 26}73.07692307692307%{ stroke-dashoffset: 0;}100%{ stroke-dashoffset: 0;}}</style></svg>