<svg id="Capa_6" data-name="Capa 6" xmlns="http://www.w3.org/2000/svg" viewBox="0 0 508.77 392.34" style=""><defs>
<style>
    .cls-1{
            fill:none;stroke:#8C9E70; /*#1d1d1b*/
            stroke-linecap:round;
            stroke-linejoin:round;
            stroke-width:4px;
        }
</style>
</defs>
<path class="cls-1 ndXPWinq_0" d="M279.78,53.93c-9.26,7.51-14.19,18.4-14.31,33a25.8,25.8,0,0,0,.17,3.17c3.35,30.39,12.18,46,26.87,45.92.78,0,1.55,0,2.33,0,18,1,30.56-11.28,33.92-45.64,2.22-16.42-2-28.95-13.19-37.27A29.21,29.21,0,0,0,279.78,53.93Z" transform="translate(-42.46 -45.42)"></path><path class="cls-1 ndXPWinq_1" d="M98.21,328.88c3.39,17.22,21.33,33.56,46.8,44.61l90.5,28.13A126.27,126.27,0,0,1,281.16,433a4.49,4.49,0,0,0,7.79-2.69l2.44-31.69a8.73,8.73,0,0,0-3.65-7.78l-9.9-7.05a10.36,10.36,0,0,0-4.37-1.78l-21.58-3.43a34,34,0,0,1-15.69-6.86l-36.4-28.63a37.35,37.35,0,0,0-15.22-7.17l-35.29-7.65" transform="translate(-42.46 -45.42)"></path><path class="cls-1 ndXPWinq_2" d="M44.88,322.59c16.89,18.81,50.91-.73,53.52,5.65" transform="translate(-42.46 -45.42)"></path><path class="cls-1 ndXPWinq_3" d="M279.68,130.86c1.73,4.24-3.14,27.51-14.21,28H255.14a37.17,37.17,0,0,0-14.24,2.82l-10.05,4.14a19.08,19.08,0,0,0-10.51,10.77L189.2,257.52a12.27,12.27,0,0,1-5.87,6.51l-71.21,36.28c-2.9,1.48-7.42,5.77-10.67,5.92l-36.08,1.53c-16.66-.33-22.65,2-20.49,14.83" transform="translate(-42.46 -45.42)"></path><path class="cls-1 ndXPWinq_4" d="M64.27,304.59" transform="translate(-42.46 -45.42)"></path><path class="cls-1 ndXPWinq_5" d="M145,373.49q-.39-24,22.79-41.24" transform="translate(-42.46 -45.42)"></path><path class="cls-1 ndXPWinq_6" d="M98.21,328.88c3.43-12.16,10.74-21.14,26.93-24.29H232.38a9.08,9.08,0,0,0,8.82-6.89l3.87-15.56a56.66,56.66,0,0,0,.19-26.47L242,241.72a30.11,30.11,0,0,1,1.54-18.46l4.56-10.92a62.75,62.75,0,0,0,4.84-24.14V158.87" transform="translate(-42.46 -45.42)"></path><path class="cls-1 ndXPWinq_7" d="M159.08,304.59l43.77-19.51a15.51,15.51,0,0,0,7.87-7.88L238,212.78a1.49,1.49,0,0,1,2.85.39l1.65,12.93" transform="translate(-42.46 -45.42)"></path><path class="cls-1 ndXPWinq_8" d="M246.73,264.9c6,6,12.94,7.69,20.34,7" transform="translate(-42.46 -45.42)"></path><path class="cls-1 ndXPWinq_9" d="M233.89,382.61L233.89,356.35"></path><path class="cls-1 ndXPWinq_10" d="M47.13,315.86H64.45a4.79,4.79,0,0,0,4.73-4.09l.34-2.37" transform="translate(-42.46 -45.42)"></path><path class="cls-1 ndXPWinq_11" d="M375.23,332.44" transform="translate(-42.46 -45.42)"></path><path class="cls-1 ndXPWinq_12" d="M270.67,381.53c18-8.21,37-7.64,57,0" transform="translate(-42.46 -45.42)"></path><path class="cls-1 ndXPWinq_13" d="M232.38,304.59c36.62,25.65,79.69,27.29,130,2.1" transform="translate(-42.46 -45.42)"></path><path class="cls-1 ndXPWinq_14" d="M265.47,158.87l5.2,47.08c0,26.29,50.29,26.29,50.29,0l8.33-45" transform="translate(-42.46 -45.42)"></path><path class="cls-1 ndXPWinq_15" d="M495.47,330.21c-3.39,17.22-21.33,33.56-46.8,44.61L358.17,403a126.15,126.15,0,0,0-45.65,31.35,4.49,4.49,0,0,1-7.79-2.69l-2.44-31.69a8.72,8.72,0,0,1,3.65-7.78l9.9-7.05a10.36,10.36,0,0,1,4.37-1.78l21.58-3.43A34.08,34.08,0,0,0,357.48,373l36.4-28.64a37.46,37.46,0,0,1,15.22-7.16l35.29-7.65" transform="translate(-42.46 -45.42)"></path><path class="cls-1 ndXPWinq_16" d="M548.8,323.92c-16.89,18.81-50.91-.73-53.52,5.65" transform="translate(-42.46 -45.42)"></path><path class="cls-1 ndXPWinq_17" d="M314,132.19c-1.73,4.23,3.15,27.51,14.21,28h10.33A37.17,37.17,0,0,1,352.78,163l10.05,4.14a19.05,19.05,0,0,1,10.51,10.77l31.14,80.92a12.27,12.27,0,0,0,5.87,6.51l71.21,36.28c2.9,1.48,7.42,5.77,10.67,5.92l36.08,1.53c16.66-.33,22.65,2,20.49,14.83" transform="translate(-42.46 -45.42)"></path><path class="cls-1 ndXPWinq_18" d="M529.41,305.92" transform="translate(-42.46 -45.42)"></path><path class="cls-1 ndXPWinq_19" d="M448.67,374.82q.39-24-22.79-41.24" transform="translate(-42.46 -45.42)"></path><path class="cls-1 ndXPWinq_20" d="M495.47,330.21c-3.43-12.16-10.74-21.14-26.93-24.29H361.3a9.09,9.09,0,0,1-8.82-6.89l-3.87-15.56a56.66,56.66,0,0,1-.19-26.47l3.26-13.95a30.11,30.11,0,0,0-1.54-18.46l-4.56-10.92a62.75,62.75,0,0,1-4.84-24.14V160.2" transform="translate(-42.46 -45.42)"></path><path class="cls-1 ndXPWinq_21" d="M434.6,305.92l-43.77-19.51a15.51,15.51,0,0,1-7.87-7.88l-27.3-64.42a1.49,1.49,0,0,0-2.85.39l-1.65,12.93" transform="translate(-42.46 -45.42)"></path><path class="cls-1 ndXPWinq_22" d="M347,266.22c-6,6-12.94,7.7-20.34,7" transform="translate(-42.46 -45.42)"></path><path class="cls-1 ndXPWinq_23" d="M274.88,383.94L274.88,357.68"></path><path class="cls-1 ndXPWinq_24" d="M546.55,317.19H529.23a4.79,4.79,0,0,1-4.73-4.09l-.34-2.37" transform="translate(-42.46 -45.42)"></path><style data-made-with="vivus-instant">.ndXPWinq_0{stroke-dasharray:245 247;stroke-dashoffset:246;animation:ndXPWinq_draw_0 5200ms ease-in-out 0ms infinite,ndXPWinq_fade 5200ms linear 0ms infinite;}.ndXPWinq_1{stroke-dasharray:425 427;stroke-dashoffset:426;animation:ndXPWinq_draw_1 5200ms ease-in-out 0ms infinite,ndXPWinq_fade 5200ms linear 0ms infinite;}.ndXPWinq_2{stroke-dasharray:57 59;stroke-dashoffset:58;animation:ndXPWinq_draw_2 5200ms ease-in-out 0ms infinite,ndXPWinq_fade 5200ms linear 0ms infinite;}.ndXPWinq_3{stroke-dasharray:341 343;stroke-dashoffset:342;animation:ndXPWinq_draw_3 5200ms ease-in-out 0ms infinite,ndXPWinq_fade 5200ms linear 0ms infinite;}.ndXPWinq_4{stroke-dasharray:0 2;stroke-dashoffset:1;animation:ndXPWinq_draw_4 5200ms ease-in-out 0ms infinite,ndXPWinq_fade 5200ms linear 0ms infinite;}.ndXPWinq_5{stroke-dasharray:50 52;stroke-dashoffset:51;animation:ndXPWinq_draw_5 5200ms ease-in-out 0ms infinite,ndXPWinq_fade 5200ms linear 0ms infinite;}.ndXPWinq_6{stroke-dasharray:300 302;stroke-dashoffset:301;animation:ndXPWinq_draw_6 5200ms ease-in-out 0ms infinite,ndXPWinq_fade 5200ms linear 0ms infinite;}.ndXPWinq_7{stroke-dasharray:147 149;stroke-dashoffset:148;animation:ndXPWinq_draw_7 5200ms ease-in-out 0ms infinite,ndXPWinq_fade 5200ms linear 0ms infinite;}.ndXPWinq_8{stroke-dasharray:23 25;stroke-dashoffset:24;animation:ndXPWinq_draw_8 5200ms ease-in-out 0ms infinite,ndXPWinq_fade 5200ms linear 0ms infinite;}.ndXPWinq_9{stroke-dasharray:27 29;stroke-dashoffset:28;animation:ndXPWinq_draw_9 5200ms ease-in-out 0ms infinite,ndXPWinq_fade 5200ms linear 0ms infinite;}.ndXPWinq_10{stroke-dasharray:27 29;stroke-dashoffset:28;animation:ndXPWinq_draw_10 5200ms ease-in-out 0ms infinite,ndXPWinq_fade 5200ms linear 0ms infinite;}.ndXPWinq_11{stroke-dasharray:0 2;stroke-dashoffset:1;animation:ndXPWinq_draw_11 5200ms ease-in-out 0ms infinite,ndXPWinq_fade 5200ms linear 0ms infinite;}.ndXPWinq_12{stroke-dasharray:59 61;stroke-dashoffset:60;animation:ndXPWinq_draw_12 5200ms ease-in-out 0ms infinite,ndXPWinq_fade 5200ms linear 0ms infinite;}.ndXPWinq_13{stroke-dasharray:138 140;stroke-dashoffset:139;animation:ndXPWinq_draw_13 5200ms ease-in-out 0ms infinite,ndXPWinq_fade 5200ms linear 0ms infinite;}.ndXPWinq_14{stroke-dasharray:165 167;stroke-dashoffset:166;animation:ndXPWinq_draw_14 5200ms ease-in-out 0ms infinite,ndXPWinq_fade 5200ms linear 0ms infinite;}.ndXPWinq_15{stroke-dasharray:425 427;stroke-dashoffset:426;animation:ndXPWinq_draw_15 5200ms ease-in-out 0ms infinite,ndXPWinq_fade 5200ms linear 0ms infinite;}.ndXPWinq_16{stroke-dasharray:57 59;stroke-dashoffset:58;animation:ndXPWinq_draw_16 5200ms ease-in-out 0ms infinite,ndXPWinq_fade 5200ms linear 0ms infinite;}.ndXPWinq_17{stroke-dasharray:341 343;stroke-dashoffset:342;animation:ndXPWinq_draw_17 5200ms ease-in-out 0ms infinite,ndXPWinq_fade 5200ms linear 0ms infinite;}.ndXPWinq_18{stroke-dasharray:0 2;stroke-dashoffset:1;animation:ndXPWinq_draw_18 5200ms ease-in-out 0ms infinite,ndXPWinq_fade 5200ms linear 0ms infinite;}.ndXPWinq_19{stroke-dasharray:50 52;stroke-dashoffset:51;animation:ndXPWinq_draw_19 5200ms ease-in-out 0ms infinite,ndXPWinq_fade 5200ms linear 0ms infinite;}.ndXPWinq_20{stroke-dasharray:300 302;stroke-dashoffset:301;animation:ndXPWinq_draw_20 5200ms ease-in-out 0ms infinite,ndXPWinq_fade 5200ms linear 0ms infinite;}.ndXPWinq_21{stroke-dasharray:147 149;stroke-dashoffset:148;animation:ndXPWinq_draw_21 5200ms ease-in-out 0ms infinite,ndXPWinq_fade 5200ms linear 0ms infinite;}.ndXPWinq_22{stroke-dasharray:23 25;stroke-dashoffset:24;animation:ndXPWinq_draw_22 5200ms ease-in-out 0ms infinite,ndXPWinq_fade 5200ms linear 0ms infinite;}.ndXPWinq_23{stroke-dasharray:27 29;stroke-dashoffset:28;animation:ndXPWinq_draw_23 5200ms ease-in-out 0ms infinite,ndXPWinq_fade 5200ms linear 0ms infinite;}.ndXPWinq_24{stroke-dasharray:27 29;stroke-dashoffset:28;animation:ndXPWinq_draw_24 5200ms ease-in-out 0ms infinite,ndXPWinq_fade 5200ms linear 0ms infinite;}@keyframes ndXPWinq_draw{100%{stroke-dashoffset:0;}}@keyframes ndXPWinq_fade{0%{stroke-opacity:1;}92.3076923076923%{stroke-opacity:1;}100%{stroke-opacity:0;}}@keyframes ndXPWinq_draw_0{15.384615384615385%{stroke-dashoffset: 246}53.84615384615385%{ stroke-dashoffset: 0;}100%{ stroke-dashoffset: 0;}}@keyframes ndXPWinq_draw_1{16.185897435897434%{stroke-dashoffset: 426}54.64743589743589%{ stroke-dashoffset: 0;}100%{ stroke-dashoffset: 0;}}@keyframes ndXPWinq_draw_2{16.98717948717949%{stroke-dashoffset: 58}55.44871794871795%{ stroke-dashoffset: 0;}100%{ stroke-dashoffset: 0;}}@keyframes ndXPWinq_draw_3{17.78846153846154%{stroke-dashoffset: 342}56.25%{ stroke-dashoffset: 0;}100%{ stroke-dashoffset: 0;}}@keyframes ndXPWinq_draw_4{18.58974358974359%{stroke-dashoffset: 1}57.05128205128205%{ stroke-dashoffset: 0;}100%{ stroke-dashoffset: 0;}}@keyframes ndXPWinq_draw_5{19.39102564102564%{stroke-dashoffset: 51}57.852564102564095%{ stroke-dashoffset: 0;}100%{ stroke-dashoffset: 0;}}@keyframes ndXPWinq_draw_6{20.192307692307693%{stroke-dashoffset: 301}58.65384615384615%{ stroke-dashoffset: 0;}100%{ stroke-dashoffset: 0;}}@keyframes ndXPWinq_draw_7{20.99358974358974%{stroke-dashoffset: 148}59.455128205128204%{ stroke-dashoffset: 0;}100%{ stroke-dashoffset: 0;}}@keyframes ndXPWinq_draw_8{21.794871794871792%{stroke-dashoffset: 24}60.256410256410255%{ stroke-dashoffset: 0;}100%{ stroke-dashoffset: 0;}}@keyframes ndXPWinq_draw_9{22.596153846153847%{stroke-dashoffset: 28}61.057692307692314%{ stroke-dashoffset: 0;}100%{ stroke-dashoffset: 0;}}@keyframes ndXPWinq_draw_10{23.397435897435894%{stroke-dashoffset: 28}61.858974358974365%{ stroke-dashoffset: 0;}100%{ stroke-dashoffset: 0;}}@keyframes ndXPWinq_draw_11{24.198717948717945%{stroke-dashoffset: 1}62.66025641025641%{ stroke-dashoffset: 0;}100%{ stroke-dashoffset: 0;}}@keyframes ndXPWinq_draw_12{25%{stroke-dashoffset: 60}63.46153846153846%{ stroke-dashoffset: 0;}100%{ stroke-dashoffset: 0;}}@keyframes ndXPWinq_draw_13{25.801282051282048%{stroke-dashoffset: 139}64.26282051282051%{ stroke-dashoffset: 0;}100%{ stroke-dashoffset: 0;}}@keyframes ndXPWinq_draw_14{26.602564102564102%{stroke-dashoffset: 166}65.06410256410255%{ stroke-dashoffset: 0;}100%{ stroke-dashoffset: 0;}}@keyframes ndXPWinq_draw_15{27.403846153846157%{stroke-dashoffset: 426}65.86538461538461%{ stroke-dashoffset: 0;}100%{ stroke-dashoffset: 0;}}@keyframes ndXPWinq_draw_16{28.205128205128204%{stroke-dashoffset: 58}66.66666666666666%{ stroke-dashoffset: 0;}100%{ stroke-dashoffset: 0;}}@keyframes ndXPWinq_draw_17{29.006410256410252%{stroke-dashoffset: 342}67.46794871794872%{ stroke-dashoffset: 0;}100%{ stroke-dashoffset: 0;}}@keyframes ndXPWinq_draw_18{29.807692307692307%{stroke-dashoffset: 1}68.26923076923077%{ stroke-dashoffset: 0;}100%{ stroke-dashoffset: 0;}}@keyframes ndXPWinq_draw_19{30.608974358974354%{stroke-dashoffset: 51}69.07051282051282%{ stroke-dashoffset: 0;}100%{ stroke-dashoffset: 0;}}@keyframes ndXPWinq_draw_20{31.41025641025641%{stroke-dashoffset: 301}69.87179487179486%{ stroke-dashoffset: 0;}100%{ stroke-dashoffset: 0;}}@keyframes ndXPWinq_draw_21{32.21153846153847%{stroke-dashoffset: 148}70.67307692307693%{ stroke-dashoffset: 0;}100%{ stroke-dashoffset: 0;}}@keyframes ndXPWinq_draw_22{33.01282051282051%{stroke-dashoffset: 24}71.47435897435898%{ stroke-dashoffset: 0;}100%{ stroke-dashoffset: 0;}}@keyframes ndXPWinq_draw_23{33.81410256410256%{stroke-dashoffset: 28}72.27564102564102%{ stroke-dashoffset: 0;}100%{ stroke-dashoffset: 0;}}@keyframes ndXPWinq_draw_24{34.61538461538461%{stroke-dashoffset: 28}73.07692307692307%{ stroke-dashoffset: 0;}100%{ stroke-dashoffset: 0;}}</style></svg>