<svg id="Capa_1" data-name="Capa 1" xmlns="http://www.w3.org/2000/svg" viewBox="0 0 149.17 420.79" style=""><defs><style>.cls-1{fill:none;stroke:#000;stroke-linecap:round;stroke-linejoin:round;stroke-width:4px;}</style></defs><path class="cls-1 nSzirGWm_0" d="M165.71,321.61a62.64,62.64,0,0,0-3.65-5.19,23.24,23.24,0,0,1-4.61-15.4c.38-6.37.43-12.93.59-19.86.27-11.5,7-20.51,13.34-29.59,5.66-8.15,11.34-16.27,17.06-24.47-6.24-7.87-13.33-15.19-18.49-23.7-8.79-14.5-16.59-29.63-24.34-44.73a85.34,85.34,0,0,1-6.5-17.88c-6-23.39-18.61-43.53-30-64.35-6-11-11.23-22.31-17.08-33.34C86.39,32.42,80.5,27.81,68.47,32.73a3.87,3.87,0,0,0-2,5.24,39.52,39.52,0,0,0,2.26,4.27c5,7.94,9.61,16.26,15.47,23.53C92.37,75.94,95.22,88,98.69,100.05c2.32,8.07,4.55,16.63,9,23.48,8.29,12.61,9.13,27.26,13.4,40.92,7,22.45,13.56,45,20.3,67.57" transform="translate(-64.05 -28.76)"></path><path class="cls-1 nSzirGWm_1" d="M155.2,234.47c-13.71-8-24.27,2.86-25.67,17.94-1.72,18.37-4.7,37.62-2.28,55.34,1.48,10.9-2.1,21.22-3.35,31.81-1.38,11.81-.9,23.86-.91,35.8l-.07,19.38c0,8.57,1,15.26,8.79,16.66" transform="translate(-64.05 -28.76)"></path><path class="cls-1 nSzirGWm_2" d="M155.53,374c3.5,4.59,12.82,4.37,15.88,9.7a2.94,2.94,0,0,1-1.49,4.15c-8.91,3.61-17.58.12-20.56-8.93,3.73-3,7.66-6.06,11.49-9.25,8.12-6.75,16.53-13.2,24.2-20.44,10.92-10.32,21.82-20.86,25.16-36.56.08-.41.17-.93.26-1.54a75,75,0,0,0,.2-19.69l-.39-3.21c-1.26-7-1.54-14.3-3.46-21.12-3.82-13.66-7.21-27.69-17.65-38.32" transform="translate(-64.05 -28.76)"></path><path class="cls-1 nSzirGWm_3" d="M157.81,291.85c-5.69,11.38-12.23,33.95-13.58,47.57l-2.35,23.4" transform="translate(-64.05 -28.76)"></path><path class="cls-1 nSzirGWm_4" d="M201.56,331.48c-1.26-7.1-4.53-14.78-13.19-15.67-7.56-.78-15.82-.15-22,5.77" transform="translate(-64.05 -28.76)"></path><path class="cls-1 nSzirGWm_5" d="M143.53,413.16c3.31.23,11.91,1.09,17,.7a1.82,1.82,0,0,0,.89-3.31c-5.17-3.49-12.49-5.4-18.47-6.95" transform="translate(-64.05 -28.76)"></path><path class="cls-1 nSzirGWm_6" d="M164.9,324.05l-7.14,2.4a6.28,6.28,0,0,0-4.21,4.9l-1,21.13" transform="translate(-64.05 -28.76)"></path><path class="cls-1 nSzirGWm_7" d="M149.36,378.9c-4.81,4.07-7.46,5.81-7.13,10.31.38,5.42.54,10.86.84,16.28.32,5.62.83,13.5,1.36,22.11,7.18,4.44,16.7,3.65,24.33,8.16a4.76,4.76,0,0,1-.69,8.54l-6.14,2.36a13.74,13.74,0,0,1-8.29.46c-3.41-.86-6.87-1.28-9.66-3.49-3.23-2.57-7.1-6-7.9-9.7-2.44-11.22-3.46-22.75-5.23-34.13l-2.59-18.18a7.3,7.3,0,0,1,1.35-5.41c2.72-3.63,5.59-6.21,9.45-10.67l26.65-25.71" transform="translate(-64.05 -28.76)"></path><path class="cls-1 nSzirGWm_8" d="M138.14,137.21l-22.57,4.94" transform="translate(-64.05 -28.76)"></path><path class="cls-1 nSzirGWm_9" d="M165.71,321.61v18.22" transform="translate(-64.05 -28.76)"></path><path class="cls-1 nSzirGWm_10" d="M173,334.05c-2.54,1.73-4.31,4.69-7.28,5.78" transform="translate(-64.05 -28.76)"></path><path class="cls-1 nSzirGWm_11" d="M58.87,325.42L76.91,325.42"></path><path class="cls-1 nSzirGWm_12" d="M190.23,351.6l8.41-3.25a8.11,8.11,0,0,1,8.05,1.16c7.79,6.36,2.54,22.41-10.73,44.43l1.15-37.82a3.05,3.05,0,0,0-2.12-3Z" transform="translate(-64.05 -28.76)"></path><path class="cls-1 nSzirGWm_13" d="M162.23,370c21.55,3.21,27.57-2.19,27.21-23.69" transform="translate(-64.05 -28.76)"></path><style data-made-with="vivus-instant">.nSzirGWm_0{stroke-dasharray:560 562;stroke-dashoffset:561;animation:nSzirGWm_draw_0 5200ms linear 0ms infinite,nSzirGWm_fade 5200ms linear 0ms infinite;}.nSzirGWm_1{stroke-dasharray:203 205;stroke-dashoffset:204;animation:nSzirGWm_draw_1 5200ms linear 0ms infinite,nSzirGWm_fade 5200ms linear 0ms infinite;}.nSzirGWm_2{stroke-dasharray:230 232;stroke-dashoffset:231;animation:nSzirGWm_draw_2 5200ms linear 0ms infinite,nSzirGWm_fade 5200ms linear 0ms infinite;}.nSzirGWm_3{stroke-dasharray:74 76;stroke-dashoffset:75;animation:nSzirGWm_draw_3 5200ms linear 0ms infinite,nSzirGWm_fade 5200ms linear 0ms infinite;}.nSzirGWm_4{stroke-dasharray:46 48;stroke-dashoffset:47;animation:nSzirGWm_draw_4 5200ms linear 0ms infinite,nSzirGWm_fade 5200ms linear 0ms infinite;}.nSzirGWm_5{stroke-dasharray:42 44;stroke-dashoffset:43;animation:nSzirGWm_draw_5 5200ms linear 0ms infinite,nSzirGWm_fade 5200ms linear 0ms infinite;}.nSzirGWm_6{stroke-dasharray:36 38;stroke-dashoffset:37;animation:nSzirGWm_draw_6 5200ms linear 0ms infinite,nSzirGWm_fade 5200ms linear 0ms infinite;}.nSzirGWm_7{stroke-dasharray:237 239;stroke-dashoffset:238;animation:nSzirGWm_draw_7 5200ms linear 0ms infinite,nSzirGWm_fade 5200ms linear 0ms infinite;}.nSzirGWm_8{stroke-dasharray:24 26;stroke-dashoffset:25;animation:nSzirGWm_draw_8 5200ms linear 0ms infinite,nSzirGWm_fade 5200ms linear 0ms infinite;}.nSzirGWm_9{stroke-dasharray:19 21;stroke-dashoffset:20;animation:nSzirGWm_draw_9 5200ms linear 0ms infinite,nSzirGWm_fade 5200ms linear 0ms infinite;}.nSzirGWm_10{stroke-dasharray:10 12;stroke-dashoffset:11;animation:nSzirGWm_draw_10 5200ms linear 0ms infinite,nSzirGWm_fade 5200ms linear 0ms infinite;}.nSzirGWm_11{stroke-dasharray:19 21;stroke-dashoffset:20;animation:nSzirGWm_draw_11 5200ms linear 0ms infinite,nSzirGWm_fade 5200ms linear 0ms infinite;}.nSzirGWm_12{stroke-dasharray:113 115;stroke-dashoffset:114;animation:nSzirGWm_draw_12 5200ms linear 0ms infinite,nSzirGWm_fade 5200ms linear 0ms infinite;}.nSzirGWm_13{stroke-dasharray:46 48;stroke-dashoffset:47;animation:nSzirGWm_draw_13 5200ms linear 0ms infinite,nSzirGWm_fade 5200ms linear 0ms infinite;}@keyframes nSzirGWm_draw{100%{stroke-dashoffset:0;}}@keyframes nSzirGWm_fade{0%{stroke-opacity:1;}92.3076923076923%{stroke-opacity:1;}100%{stroke-opacity:0;}}@keyframes nSzirGWm_draw_0{15.384615384615385%{stroke-dashoffset: 561}73.07692307692307%{ stroke-dashoffset: 0;}100%{ stroke-dashoffset: 0;}}@keyframes nSzirGWm_draw_1{15.384615384615385%{stroke-dashoffset: 204}73.07692307692307%{ stroke-dashoffset: 0;}100%{ stroke-dashoffset: 0;}}@keyframes nSzirGWm_draw_2{15.384615384615385%{stroke-dashoffset: 231}73.07692307692307%{ stroke-dashoffset: 0;}100%{ stroke-dashoffset: 0;}}@keyframes nSzirGWm_draw_3{15.384615384615385%{stroke-dashoffset: 75}73.07692307692307%{ stroke-dashoffset: 0;}100%{ stroke-dashoffset: 0;}}@keyframes nSzirGWm_draw_4{15.384615384615385%{stroke-dashoffset: 47}73.07692307692307%{ stroke-dashoffset: 0;}100%{ stroke-dashoffset: 0;}}@keyframes nSzirGWm_draw_5{15.384615384615385%{stroke-dashoffset: 43}73.07692307692307%{ stroke-dashoffset: 0;}100%{ stroke-dashoffset: 0;}}@keyframes nSzirGWm_draw_6{15.384615384615385%{stroke-dashoffset: 37}73.07692307692307%{ stroke-dashoffset: 0;}100%{ stroke-dashoffset: 0;}}@keyframes nSzirGWm_draw_7{15.384615384615385%{stroke-dashoffset: 238}73.07692307692307%{ stroke-dashoffset: 0;}100%{ stroke-dashoffset: 0;}}@keyframes nSzirGWm_draw_8{15.384615384615385%{stroke-dashoffset: 25}73.07692307692307%{ stroke-dashoffset: 0;}100%{ stroke-dashoffset: 0;}}@keyframes nSzirGWm_draw_9{15.384615384615385%{stroke-dashoffset: 20}73.07692307692307%{ stroke-dashoffset: 0;}100%{ stroke-dashoffset: 0;}}@keyframes nSzirGWm_draw_10{15.384615384615385%{stroke-dashoffset: 11}73.07692307692307%{ stroke-dashoffset: 0;}100%{ stroke-dashoffset: 0;}}@keyframes nSzirGWm_draw_11{15.384615384615385%{stroke-dashoffset: 20}73.07692307692307%{ stroke-dashoffset: 0;}100%{ stroke-dashoffset: 0;}}@keyframes nSzirGWm_draw_12{15.384615384615385%{stroke-dashoffset: 114}73.07692307692307%{ stroke-dashoffset: 0;}100%{ stroke-dashoffset: 0;}}@keyframes nSzirGWm_draw_13{15.384615384615385%{stroke-dashoffset: 47}73.07692307692307%{ stroke-dashoffset: 0;}100%{ stroke-dashoffset: 0;}}</style></svg>