<svg id="Capa_4" data-name="Capa 4" xmlns="http://www.w3.org/2000/svg" viewBox="0 0 332.69 419.46" style=""><defs><style>.cls-1{fill:none;stroke:#000;stroke-linecap:round;stroke-linejoin:round;stroke-width:4px;}</style></defs><path class="cls-1 RcxCYJtN_0" d="M302.61,76a24.43,24.43,0,0,1,2,7.48c1.8,16.81,1.71,33.36-2.88,50-5.54,20.15-9.4,40.77-13.86,61.21a18.51,18.51,0,0,0,0,6.43c1.59,10.88.57,21.36-1,32.35-1.8,12.76,1.48,26.24,2.55,39.4" transform="translate(-14.36 -35.97)"></path><path class="cls-1 RcxCYJtN_1" d="M277.37,79.4a32.08,32.08,0,0,1,13,37.91c-3.88,11.69-8.73,23.42-10.14,35.49-2,17.35-11,32.56-13.52,49.21-1.94,12.66-10.35,17.54-18.29,24.1" transform="translate(-14.36 -35.97)"></path><path class="cls-1 RcxCYJtN_2" d="M249.18,297.05c.81.8,1.47,1.93,2.44,2.37,12.4,5.56,13.7,16.28,14.7,28.24,2.46,29.64,8.7,58.68,17.64,87,2.89,9.17,5.81,17.95,2.23,27.44-.24.65-1,1.09-1.57,1.63" transform="translate(-14.36 -35.97)"></path><path class="cls-1 RcxCYJtN_3" d="M164.62,225.3c-11.85,2.33-22.11,7.6-26.3,19.45-2.36,6.7-2.89,14.46-2.5,21.66,1.06,19.91,2.54,39.83,4.86,59.63,1,9-3.64,16.11-5,24.22-.58,3.43-.68,6.94-1,10.45,7.51,3.89,14.48,5,21.89,3.25" transform="translate(-14.36 -35.97)"></path><path class="cls-1 RcxCYJtN_4" d="M135.63,362.34c.26,5.92,0,11.92.91,17.72,2.34,14.3,5.26,28.5,7.93,42.74a7.22,7.22,0,0,1,0,1.61c-.39,16-.4,16.1,16.12,19.32,5.06,1,10.17,1.79,15.3,2.42,8.17,1,14.4-2.57,20.45-9.33-3.54-1.67-6.23-3.56-9.2-4.26-25.84-6-29.25-16-29.68-38A247.58,247.58,0,0,1,166.14,326c3.45-13,6-26.31,9-39.46a27.71,27.71,0,0,1,1.58-4" transform="translate(-14.36 -35.97)"></path><path class="cls-1 RcxCYJtN_5" d="M285.42,244.65c-17.32,0-26-4.35-38.89-19.62-15.33,5-27.77-3.62-40.83-9.43-16.14-7.17-29.12-18.76-41.87-30.62-9.47-8.79-18.4-18.21-28.3-26.47-14.65-12.23-21-30.35-33-44.41-7.5-8.83-15.54-17.22-23.3-25.84C67.42,75.11,55.75,61.82,43.76,48.82c-4.95-5.37-9.28-12.63-18.45-10.45a37.29,37.29,0,0,0-6.23,2.26,4.52,4.52,0,0,0-2,6.55,11.6,11.6,0,0,0,1.83,2.34c12,11.13,21.83,24.62,36.9,32.49,6.85,3.58,10.16,11.16,12,18.38,4.72,18.17,17.16,29.91,29.92,39.1l49.16,92.26" transform="translate(-14.36 -35.97)"></path><path class="cls-1 RcxCYJtN_6" d="M181.53,203.54c-9.08,25.66-13,51.6-5.17,77.58l71.56,16.76c2.46-5.88,3.72-10.56,6.2-14.47,6-9.44,15.57-10.54,25.67-9.73,2.68.21,5.36.53,8,.8" transform="translate(-14.36 -35.97)"></path><path class="cls-1 RcxCYJtN_7" d="M345,250.29c-.44,3.89-2.27,8.59-5,11.08-6.66,6-14.18,11.15-21.6,16.27-5.29,3.65-10.56,4.06-14.45-2.36-.92-1.52-1.75-3.1-2.37-4.2l-12.94,2.59" transform="translate(-14.36 -35.97)"></path><path class="cls-1 RcxCYJtN_8" d="M345,250.29c.71-15.14-11.56-24.54-25.77-26.61a16.06,16.06,0,0,1-4-.83c-10.41-4.54-15.67-1.38-16.14,9.71-.11,2.42-.41,4.84-.72,8.34L287,244.65" transform="translate(-14.36 -35.97)"></path><path class="cls-1 RcxCYJtN_9" d="M316,223.69c-3.55,3.29-4.48,7.37-4.08,12.1.95,11.27-1.56,13.7-.76,25" transform="translate(-14.36 -35.97)"></path><path class="cls-1 RcxCYJtN_10" d="M298.44,240.33c7.85,5.36,1.73,17,12.75,20.44" transform="translate(-14.36 -35.97)"></path><path class="cls-1 RcxCYJtN_11" d="M289.45,434.09c9.13,4.82,19.84,7.73,23.36,19.34" transform="translate(-14.36 -35.97)"></path><path class="cls-1 RcxCYJtN_12" d="M297.64,75.3c-2.39-2.45-8.46-8.53-10.61-11.22" transform="translate(-14.36 -35.97)"></path><path class="cls-1 RcxCYJtN_13" d="M279,68.92c3.76,3.49,10.3,9.94,14,13.43" transform="translate(-14.36 -35.97)"></path><path class="cls-1 RcxCYJtN_14" d="M297.1,439.73q-1.82,6.86-3.62,13.7" transform="translate(-14.36 -35.97)"></path><path class="cls-1 RcxCYJtN_15" d="M112.27,131l-12.08,8.86" transform="translate(-14.36 -35.97)"></path><path class="cls-1 RcxCYJtN_16" d="M273.48,54.33L284.36,39.98"></path><path class="cls-1 RcxCYJtN_17" d="M298.72,76h3.89q-1.35-6.75-2.69-13.49" transform="translate(-14.36 -35.97)"></path><path class="cls-1 RcxCYJtN_18" d="M287.56,275c1.45,9.53,1.06,25.91-2.75,55l3.25,26.14a40.81,40.81,0,0,0,2.62,10.2l.52,1.29a16.41,16.41,0,0,1,1,8.21c-1.62,12.55.3,25.16,2.27,37.54,5.74,13,13.11,23.14,23,28.74" transform="translate(-14.36 -35.97)"></path><style data-made-with="vivus-instant">.RcxCYJtN_0{stroke-dasharray:200 202;stroke-dashoffset:201;animation:RcxCYJtN_draw_0 5200ms linear 0ms infinite,RcxCYJtN_fade 5200ms linear 0ms infinite;}.RcxCYJtN_1{stroke-dasharray:163 165;stroke-dashoffset:164;animation:RcxCYJtN_draw_1 5200ms linear 0ms infinite,RcxCYJtN_fade 5200ms linear 0ms infinite;}.RcxCYJtN_2{stroke-dasharray:157 159;stroke-dashoffset:158;animation:RcxCYJtN_draw_2 5200ms linear 0ms infinite,RcxCYJtN_fade 5200ms linear 0ms infinite;}.RcxCYJtN_3{stroke-dasharray:175 177;stroke-dashoffset:176;animation:RcxCYJtN_draw_3 5200ms linear 0ms infinite,RcxCYJtN_fade 5200ms linear 0ms infinite;}.RcxCYJtN_4{stroke-dasharray:311 313;stroke-dashoffset:312;animation:RcxCYJtN_draw_4 5200ms linear 0ms infinite,RcxCYJtN_fade 5200ms linear 0ms infinite;}.RcxCYJtN_5{stroke-dasharray:590 592;stroke-dashoffset:591;animation:RcxCYJtN_draw_5 5200ms linear 0ms infinite,RcxCYJtN_fade 5200ms linear 0ms infinite;}.RcxCYJtN_6{stroke-dasharray:206 208;stroke-dashoffset:207;animation:RcxCYJtN_draw_6 5200ms linear 0ms infinite,RcxCYJtN_fade 5200ms linear 0ms infinite;}.RcxCYJtN_7{stroke-dasharray:75 77;stroke-dashoffset:76;animation:RcxCYJtN_draw_7 5200ms linear 0ms infinite,RcxCYJtN_fade 5200ms linear 0ms infinite;}.RcxCYJtN_8{stroke-dasharray:90 92;stroke-dashoffset:91;animation:RcxCYJtN_draw_8 5200ms linear 0ms infinite,RcxCYJtN_fade 5200ms linear 0ms infinite;}.RcxCYJtN_9{stroke-dasharray:39 41;stroke-dashoffset:40;animation:RcxCYJtN_draw_9 5200ms linear 0ms infinite,RcxCYJtN_fade 5200ms linear 0ms infinite;}.RcxCYJtN_10{stroke-dasharray:26 28;stroke-dashoffset:27;animation:RcxCYJtN_draw_10 5200ms linear 0ms infinite,RcxCYJtN_fade 5200ms linear 0ms infinite;}.RcxCYJtN_11{stroke-dasharray:32 34;stroke-dashoffset:33;animation:RcxCYJtN_draw_11 5200ms linear 0ms infinite,RcxCYJtN_fade 5200ms linear 0ms infinite;}.RcxCYJtN_12{stroke-dasharray:16 18;stroke-dashoffset:17;animation:RcxCYJtN_draw_12 5200ms linear 0ms infinite,RcxCYJtN_fade 5200ms linear 0ms infinite;}.RcxCYJtN_13{stroke-dasharray:20 22;stroke-dashoffset:21;animation:RcxCYJtN_draw_13 5200ms linear 0ms infinite,RcxCYJtN_fade 5200ms linear 0ms infinite;}.RcxCYJtN_14{stroke-dasharray:15 17;stroke-dashoffset:16;animation:RcxCYJtN_draw_14 5200ms linear 0ms infinite,RcxCYJtN_fade 5200ms linear 0ms infinite;}.RcxCYJtN_15{stroke-dasharray:15 17;stroke-dashoffset:16;animation:RcxCYJtN_draw_15 5200ms linear 0ms infinite,RcxCYJtN_fade 5200ms linear 0ms infinite;}.RcxCYJtN_16{stroke-dasharray:19 21;stroke-dashoffset:20;animation:RcxCYJtN_draw_16 5200ms linear 0ms infinite,RcxCYJtN_fade 5200ms linear 0ms infinite;}.RcxCYJtN_17{stroke-dasharray:18 20;stroke-dashoffset:19;animation:RcxCYJtN_draw_17 5200ms linear 0ms infinite,RcxCYJtN_fade 5200ms linear 0ms infinite;}.RcxCYJtN_18{stroke-dasharray:178 180;stroke-dashoffset:179;animation:RcxCYJtN_draw_18 5200ms linear 0ms infinite,RcxCYJtN_fade 5200ms linear 0ms infinite;}@keyframes RcxCYJtN_draw{100%{stroke-dashoffset:0;}}@keyframes RcxCYJtN_fade{0%{stroke-opacity:1;}92.3076923076923%{stroke-opacity:1;}100%{stroke-opacity:0;}}@keyframes RcxCYJtN_draw_0{15.384615384615385%{stroke-dashoffset: 201}73.07692307692307%{ stroke-dashoffset: 0;}100%{ stroke-dashoffset: 0;}}@keyframes RcxCYJtN_draw_1{15.384615384615385%{stroke-dashoffset: 164}73.07692307692307%{ stroke-dashoffset: 0;}100%{ stroke-dashoffset: 0;}}@keyframes RcxCYJtN_draw_2{15.384615384615385%{stroke-dashoffset: 158}73.07692307692307%{ stroke-dashoffset: 0;}100%{ stroke-dashoffset: 0;}}@keyframes RcxCYJtN_draw_3{15.384615384615385%{stroke-dashoffset: 176}73.07692307692307%{ stroke-dashoffset: 0;}100%{ stroke-dashoffset: 0;}}@keyframes RcxCYJtN_draw_4{15.384615384615385%{stroke-dashoffset: 312}73.07692307692307%{ stroke-dashoffset: 0;}100%{ stroke-dashoffset: 0;}}@keyframes RcxCYJtN_draw_5{15.384615384615385%{stroke-dashoffset: 591}73.07692307692307%{ stroke-dashoffset: 0;}100%{ stroke-dashoffset: 0;}}@keyframes RcxCYJtN_draw_6{15.384615384615385%{stroke-dashoffset: 207}73.07692307692307%{ stroke-dashoffset: 0;}100%{ stroke-dashoffset: 0;}}@keyframes RcxCYJtN_draw_7{15.384615384615385%{stroke-dashoffset: 76}73.07692307692307%{ stroke-dashoffset: 0;}100%{ stroke-dashoffset: 0;}}@keyframes RcxCYJtN_draw_8{15.384615384615385%{stroke-dashoffset: 91}73.07692307692307%{ stroke-dashoffset: 0;}100%{ stroke-dashoffset: 0;}}@keyframes RcxCYJtN_draw_9{15.384615384615385%{stroke-dashoffset: 40}73.07692307692307%{ stroke-dashoffset: 0;}100%{ stroke-dashoffset: 0;}}@keyframes RcxCYJtN_draw_10{15.384615384615385%{stroke-dashoffset: 27}73.07692307692307%{ stroke-dashoffset: 0;}100%{ stroke-dashoffset: 0;}}@keyframes RcxCYJtN_draw_11{15.384615384615385%{stroke-dashoffset: 33}73.07692307692307%{ stroke-dashoffset: 0;}100%{ stroke-dashoffset: 0;}}@keyframes RcxCYJtN_draw_12{15.384615384615385%{stroke-dashoffset: 17}73.07692307692307%{ stroke-dashoffset: 0;}100%{ stroke-dashoffset: 0;}}@keyframes RcxCYJtN_draw_13{15.384615384615385%{stroke-dashoffset: 21}73.07692307692307%{ stroke-dashoffset: 0;}100%{ stroke-dashoffset: 0;}}@keyframes RcxCYJtN_draw_14{15.384615384615385%{stroke-dashoffset: 16}73.07692307692307%{ stroke-dashoffset: 0;}100%{ stroke-dashoffset: 0;}}@keyframes RcxCYJtN_draw_15{15.384615384615385%{stroke-dashoffset: 16}73.07692307692307%{ stroke-dashoffset: 0;}100%{ stroke-dashoffset: 0;}}@keyframes RcxCYJtN_draw_16{15.384615384615385%{stroke-dashoffset: 20}73.07692307692307%{ stroke-dashoffset: 0;}100%{ stroke-dashoffset: 0;}}@keyframes RcxCYJtN_draw_17{15.384615384615385%{stroke-dashoffset: 19}73.07692307692307%{ stroke-dashoffset: 0;}100%{ stroke-dashoffset: 0;}}@keyframes RcxCYJtN_draw_18{15.384615384615385%{stroke-dashoffset: 179}73.07692307692307%{ stroke-dashoffset: 0;}100%{ stroke-dashoffset: 0;}}</style></svg>