<svg id="Capa_2_copia" data-name="Capa 2 copia" xmlns="http://www.w3.org/2000/svg" viewBox="0 0 207.2 152.38" style=""><defs><style>.cls-1{fill:none;stroke:#fefeff;stroke-linecap:round;stroke-linejoin:round;stroke-width:4px;}</style></defs><path class="cls-1 mfSbYNbU_0" d="M268.22,311.25A67.1,67.1,0,0,0,202,255.69c-28.3.54-48.86,15.21-55.3,37.38-3.73,21.65,4.52,34.63,20.15,42.27,23.62,6.52,39.86-3.52,47-33.95,7.08-26.26,32.45-45.7,62.66-45.7,34.16,0,62.13,24.86,64.46,56.34" transform="translate(-135.78 -253.69)"></path><path class="cls-1 mfSbYNbU_1" d="M210.55,348.51a67.1,67.1,0,0,0,66.2,55.56c28.3-.54,48.85-15.2,55.3-37.37,3.73-21.65-4.52-34.63-20.15-42.27-23.63-6.52-39.86,3.52-47,33.95-7.09,26.26-32.45,45.69-62.66,45.69-34.16,0-62.14-24.86-64.47-56.34" transform="translate(-135.78 -253.69)"></path><style data-made-with="vivus-instant">.mfSbYNbU_0{stroke-dasharray:462 464;stroke-dashoffset:463;animation:mfSbYNbU_draw_0 6900ms linear 0ms infinite,mfSbYNbU_fade 6900ms linear 0ms infinite;}.mfSbYNbU_1{stroke-dasharray:462 464;stroke-dashoffset:463;animation:mfSbYNbU_draw_1 6900ms linear 0ms infinite,mfSbYNbU_fade 6900ms linear 0ms infinite;}@keyframes mfSbYNbU_draw{100%{stroke-dashoffset:0;}}@keyframes mfSbYNbU_fade{0%{stroke-opacity:1;}98.55072463768116%{stroke-opacity:1;}100%{stroke-opacity:0;}}@keyframes mfSbYNbU_draw_0{11.594202898550725%{stroke-dashoffset: 463}55.072463768115945%{ stroke-dashoffset: 0;}100%{ stroke-dashoffset: 0;}}@keyframes mfSbYNbU_draw_1{11.594202898550725%{stroke-dashoffset: 463}55.072463768115945%{ stroke-dashoffset: 0;}100%{ stroke-dashoffset: 0;}}</style></svg>