<svg id="Logo" xmlns="http://www.w3.org/2000/svg" viewBox="0 0 207.46 142.59"><defs><style>.cls-1{fill:#fffdfb;}</style></defs><path class="cls-1" d="M379.72,41.35a69.7,69.7,0,0,1,18.65,2.49,67.7,67.7,0,0,1,16.83,7.25c.16.1.33.18.48.29a1.47,1.47,0,0,0,1.89,0,63.72,63.72,0,0,1,8.83-4.59,60.45,60.45,0,0,1,8-2.77,65.38,65.38,0,0,1,7.56-1.67,68.18,68.18,0,0,1,9.35-.9c2,0,4.05-.1,6.09,0a81.43,81.43,0,0,1,8.26.71,54.75,54.75,0,0,1,7.18,1.48,68,68,0,0,1,8.66,2.86,64.5,64.5,0,0,1,29.06,23.47,58.08,58.08,0,0,1,7.87,16.23,40.57,40.57,0,0,1,1.93,12.52c0,.23,0,.46,0,.69a2.26,2.26,0,0,1-1.93,2.05,2.35,2.35,0,0,1-2.39-1.3,2.83,2.83,0,0,1-.27-1.34,36.9,36.9,0,0,0-.71-6.87,41.26,41.26,0,0,0-2.09-7.29,56.79,56.79,0,0,0-8.34-14.91,58.89,58.89,0,0,0-8.86-9.27A60.08,60.08,0,0,0,475.4,49.18a68.38,68.38,0,0,0-13.1-2.79,76.84,76.84,0,0,0-11.75-.26,65.7,65.7,0,0,0-14.86,2.37A58.36,58.36,0,0,0,422.3,54c-1.45.8-1.45.87-.13,1.9A67.44,67.44,0,0,1,435.57,70a67.13,67.13,0,0,1,11.71,28.09,6.14,6.14,0,0,1,.12,1,2.4,2.4,0,0,1-2,2.42,2.34,2.34,0,0,1-2.56-1.85c-.18-.76-.31-1.53-.44-2.3a58.81,58.81,0,0,0-5.69-16.55,62.51,62.51,0,0,0-10.87-15.25,60.4,60.4,0,0,0-7.87-7c-1.4-1-1.17-1.09-2.7,0a61,61,0,0,0-10,9.28,62.53,62.53,0,0,0-9.91,15.73A80.25,80.25,0,0,0,391,96.26,55.34,55.34,0,0,1,386.11,109,36.51,36.51,0,0,1,375,121.87a30.16,30.16,0,0,1-11.2,4.9,37.4,37.4,0,0,1-27.8-5.31,35.1,35.1,0,0,1-8.28-7.47A32.43,32.43,0,0,1,321.42,101a43.73,43.73,0,0,1-1.19-10,42.5,42.5,0,0,1,1-8.77,48.22,48.22,0,0,1,16.23-26.82,56.1,56.1,0,0,1,8.79-6A60.56,60.56,0,0,1,356.64,45a73.69,73.69,0,0,1,11.7-2.77,58.76,58.76,0,0,1,7-.7Zm.06,4.66a64.18,64.18,0,0,0-11.84,1,60.81,60.81,0,0,0-11.12,2.81,53.7,53.7,0,0,0-15.33,8.41,43.07,43.07,0,0,0-14.73,21.26A36.5,36.5,0,0,0,325,89c-.07,1.85-.06,3.69,0,5.53a30.3,30.3,0,0,0,2.5,10.43,27.68,27.68,0,0,0,7.37,9.9,31.79,31.79,0,0,0,5.75,4.07A32.43,32.43,0,0,0,353,122.71a30.85,30.85,0,0,0,10.45-.6A27.11,27.11,0,0,0,379,111.63a39.77,39.77,0,0,0,4.74-8.25,49,49,0,0,0,2.69-7.84,82.33,82.33,0,0,1,3.78-11.84A67.43,67.43,0,0,1,399,68.11a63.37,63.37,0,0,1,7-7.83,53.56,53.56,0,0,1,5.24-4.5,1.84,1.84,0,0,0,.22-.17c.83-.68.83-.86-.06-1.37s-1.68-1-2.55-1.39a63,63,0,0,0-16.29-5.62,57.88,57.88,0,0,0-7.52-1C383.29,46.07,381.53,46.06,379.78,46Z" transform="translate(-312.86 -41.35)"/><path class="cls-1" d="M453.3,183.87a57.32,57.32,0,0,1-11.7-.91,65.17,65.17,0,0,1-16.86-5.22,70.49,70.49,0,0,1-6.61-3.48,3.39,3.39,0,0,1-.34-.23,1.91,1.91,0,0,0-2.41,0,62.16,62.16,0,0,1-14.43,6.6,65.56,65.56,0,0,1-11.19,2.48c-2.75.37-5.49.65-8.26.75a72.55,72.55,0,0,1-12.15-.52,80.37,80.37,0,0,1-9-1.7,65.59,65.59,0,0,1-12.7-4.69,62.6,62.6,0,0,1-9.91-6c-1.93-1.44-3.77-3-5.54-4.58a59.06,59.06,0,0,1-5.09-5.28,63.09,63.09,0,0,1-6.32-8.72,56.53,56.53,0,0,1-7.21-18.29,40.43,40.43,0,0,1-.76-7.83,2.32,2.32,0,0,1,4.56-.67,7.22,7.22,0,0,1,.12,1.23c0,1.29.13,2.57.29,3.86a43.07,43.07,0,0,0,1.84,8.07,55.62,55.62,0,0,0,6.91,13.94,61.36,61.36,0,0,0,8.22,9.68,56.86,56.86,0,0,0,7.85,6.32,62.24,62.24,0,0,0,13.29,6.75,63.31,63.31,0,0,0,10.81,2.86,57.9,57.9,0,0,0,6.18.74,69.79,69.79,0,0,0,8.43.19,80.57,80.57,0,0,0,13.29-1.71,65.15,65.15,0,0,0,13-4.52c1.21-.56,2.37-1.24,3.54-1.88a3.53,3.53,0,0,0,.68-.46.32.32,0,0,0,0-.49,6.32,6.32,0,0,0-.72-.64A69.68,69.68,0,0,1,400,158.47a68.88,68.88,0,0,1-6.66-10c-1.07-1.94-2.05-3.92-2.92-5.95a69.24,69.24,0,0,1-4-12.63c-.24-1.12-.43-2.26-.56-3.41a2.25,2.25,0,0,1,2.75-2.56,2.21,2.21,0,0,1,1.8,2q.44,2.52,1.05,5a61.87,61.87,0,0,0,3.07,9.31A64.4,64.4,0,0,0,403.21,155a61.56,61.56,0,0,0,6.83,7.42,64.51,64.51,0,0,0,5.87,4.82c.64.45.72.46,1.34,0a52.59,52.59,0,0,0,5.7-4.6A62.11,62.11,0,0,0,433.56,150a67.27,67.27,0,0,0,5.67-11.36,83.55,83.55,0,0,0,3.08-10,56.42,56.42,0,0,1,2.75-8,42.17,42.17,0,0,1,7.73-12.36,31.07,31.07,0,0,1,18-10,37.58,37.58,0,0,1,8.41-.39,36.66,36.66,0,0,1,14.07,3.72,35.71,35.71,0,0,1,7.37,4.85,34.3,34.3,0,0,1,5.87,6.23,32.08,32.08,0,0,1,5,10.68A41.92,41.92,0,0,1,513,134.41a46.2,46.2,0,0,1-1.33,10.12,46.67,46.67,0,0,1-4.4,11.3,45.83,45.83,0,0,1-6.69,9.45A52.85,52.85,0,0,1,490,174a54.15,54.15,0,0,1-5.29,3,63.09,63.09,0,0,1-14.44,5.09,73.66,73.66,0,0,1-11.07,1.61c-.69,0-1.38.16-2.07.18C455.88,183.89,454.59,183.87,453.3,183.87Zm55-49.86a40,40,0,0,0-.85-8.37,27.66,27.66,0,0,0-3.61-8.77,31.68,31.68,0,0,0-19.6-13.61,31.49,31.49,0,0,0-13.18-.34,26.06,26.06,0,0,0-12.09,5.77,34.89,34.89,0,0,0-8.83,11.91,55.76,55.76,0,0,0-3.59,10.29,81.78,81.78,0,0,1-3.66,11.16,66.73,66.73,0,0,1-20.91,27.54c-1.08.84-.91,1,.12,1.58a61.33,61.33,0,0,0,11.63,5.09,63.89,63.89,0,0,0,17.12,3,70.29,70.29,0,0,0,10.36-.38,62.8,62.8,0,0,0,16-3.66,53.75,53.75,0,0,0,14.12-7.77,44.45,44.45,0,0,0,5.46-4.89,43.91,43.91,0,0,0,7.84-11.8A39.08,39.08,0,0,0,508.26,134Z" transform="translate(-312.86 -41.35)"/></svg>