<svg id="Capa_2" data-name="Capa 2" xmlns="http://www.w3.org/2000/svg" viewBox="0 0 519.25 98.21" style=""><defs><style>.cls-1,.cls-2{fill:none;stroke:#fff;stroke-miterlimit:10;stroke-width:3px;}.cls-2{stroke-linecap:round;}</style></defs><path class="cls-1 eKxJIelc_0" d="M1.5,22.94L1.5,83.18"></path><path class="cls-1 eKxJIelc_1" d="M44.84,22.98L44.84,83.22"></path><path class="cls-1 eKxJIelc_2" d="M1.5,53.1L44.84,53.1"></path><path class="cls-1 eKxJIelc_3" d="M128.65,264v38.24c-.73,11.41-8.47,21-21,21v.09c-12.55,0-20.29-9.6-21-21V264.07" transform="translate(-27.02 -241.09)"></path><path class="cls-1 eKxJIelc_4" d="M202.18,281.32a29.65,29.65,0,1,0,2.15,17.92H176.27" transform="translate(-27.02 -241.09)"></path><path class="cls-1 eKxJIelc_5" d="M370.67,54.09L389.48,82.57"></path><path class="cls-1 eKxJIelc_6" d="M379.22,294.88h19c13,.5,19.76-5.77,19.26-14.56v.27c.5-8.79-6.54-15.38-19.5-14.88l-19.79,0h1.56l-.46,58.63" transform="translate(-27.02 -241.09)"></path><path class="cls-1 eKxJIelc_7" d="M423.52,83.22L423.52,24.59L403.28,24.59L445.36,24.59"></path><path class="cls-1 eKxJIelc_8" d="M464.59,22.95L464.59,82.57"></path><path class="cls-1 eKxJIelc_9" d="M482.11,24.59L516.12,24.59L484.94,81.53L519.25,81.53"></path><path class="cls-2 eKxJIelc_10" d="M311.25,281.58c-2.95-22-22.23-39-45.56-39a46.55,46.55,0,0,0-25.07,7.26,30.91,30.91,0,0,0-13.07,19.35c-3.74,16.59,6.73,26.45,13.15,27.82,14.09,4.62,24.17.22,30-13.84C277.16,257.05,293.24,243,317,243c23.33,0,42.75,15.11,44.46,37.81" transform="translate(-27.02 -241.09)"></path><path class="cls-2 eKxJIelc_11" d="M271.77,298.82c3,22,22.23,39,45.56,39a46.46,46.46,0,0,0,25.07-7.26,30.87,30.87,0,0,0,13.07-19.34c3.74-16.59-6.73-26.45-13.15-27.82-14.08-4.62-24.17-.22-30,13.84-6.5,26.13-22.58,40.17-46.34,40.17-23.33,0-42.74-15.11-44.46-37.81" transform="translate(-27.02 -241.09)"></path><style data-made-with="vivus-instant">.eKxJIelc_0{stroke-dasharray:61 63;stroke-dashoffset:62;animation:eKxJIelc_draw_0 10200ms ease-in-out 0ms infinite,eKxJIelc_fade 10200ms linear 0ms infinite;}.eKxJIelc_1{stroke-dasharray:61 63;stroke-dashoffset:62;animation:eKxJIelc_draw_1 10200ms ease-in-out 0ms infinite,eKxJIelc_fade 10200ms linear 0ms infinite;}.eKxJIelc_2{stroke-dasharray:44 46;stroke-dashoffset:45;animation:eKxJIelc_draw_2 10200ms ease-in-out 0ms infinite,eKxJIelc_fade 10200ms linear 0ms infinite;}.eKxJIelc_3{stroke-dasharray:143 145;stroke-dashoffset:144;animation:eKxJIelc_draw_3 10200ms ease-in-out 0ms infinite,eKxJIelc_fade 10200ms linear 0ms infinite;}.eKxJIelc_4{stroke-dasharray:197 199;stroke-dashoffset:198;animation:eKxJIelc_draw_4 10200ms ease-in-out 0ms infinite,eKxJIelc_fade 10200ms linear 0ms infinite;}.eKxJIelc_5{stroke-dasharray:35 37;stroke-dashoffset:36;animation:eKxJIelc_draw_5 10200ms ease-in-out 0ms infinite,eKxJIelc_fade 10200ms linear 0ms infinite;}.eKxJIelc_6{stroke-dasharray:155 157;stroke-dashoffset:156;animation:eKxJIelc_draw_6 10200ms ease-in-out 0ms infinite,eKxJIelc_fade 10200ms linear 0ms infinite;}.eKxJIelc_7{stroke-dasharray:121 123;stroke-dashoffset:122;animation:eKxJIelc_draw_7 10200ms ease-in-out 0ms infinite,eKxJIelc_fade 10200ms linear 0ms infinite;}.eKxJIelc_8{stroke-dasharray:60 62;stroke-dashoffset:61;animation:eKxJIelc_draw_8 10200ms ease-in-out 0ms infinite,eKxJIelc_fade 10200ms linear 0ms infinite;}.eKxJIelc_9{stroke-dasharray:134 136;stroke-dashoffset:135;animation:eKxJIelc_draw_9 10200ms ease-in-out 0ms infinite,eKxJIelc_fade 10200ms linear 0ms infinite;}.eKxJIelc_10{stroke-dasharray:319 321;stroke-dashoffset:320;animation:eKxJIelc_draw_10 10200ms ease-in-out 0ms infinite,eKxJIelc_fade 10200ms linear 0ms infinite;}.eKxJIelc_11{stroke-dasharray:319 321;stroke-dashoffset:320;animation:eKxJIelc_draw_11 10200ms ease-in-out 0ms infinite,eKxJIelc_fade 10200ms linear 0ms infinite;}@keyframes eKxJIelc_draw{100%{stroke-dashoffset:0;}}@keyframes eKxJIelc_fade{0%{stroke-opacity:1;}96.07843137254902%{stroke-opacity:1;}100%{stroke-opacity:0;}}@keyframes eKxJIelc_draw_0{7.8431372549019605%{stroke-dashoffset: 62}27.450980392156865%{ stroke-dashoffset: 0;}100%{ stroke-dashoffset: 0;}}@keyframes eKxJIelc_draw_1{8.73440285204991%{stroke-dashoffset: 62}28.342245989304814%{ stroke-dashoffset: 0;}100%{ stroke-dashoffset: 0;}}@keyframes eKxJIelc_draw_2{9.62566844919786%{stroke-dashoffset: 45}29.233511586452764%{ stroke-dashoffset: 0;}100%{ stroke-dashoffset: 0;}}@keyframes eKxJIelc_draw_3{10.516934046345812%{stroke-dashoffset: 144}30.124777183600713%{ stroke-dashoffset: 0;}100%{ stroke-dashoffset: 0;}}@keyframes eKxJIelc_draw_4{11.408199643493761%{stroke-dashoffset: 198}31.01604278074866%{ stroke-dashoffset: 0;}100%{ stroke-dashoffset: 0;}}@keyframes eKxJIelc_draw_5{12.29946524064171%{stroke-dashoffset: 36}31.907308377896616%{ stroke-dashoffset: 0;}100%{ stroke-dashoffset: 0;}}@keyframes eKxJIelc_draw_6{13.19073083778966%{stroke-dashoffset: 156}32.79857397504456%{ stroke-dashoffset: 0;}100%{ stroke-dashoffset: 0;}}@keyframes eKxJIelc_draw_7{14.081996434937613%{stroke-dashoffset: 122}33.68983957219251%{ stroke-dashoffset: 0;}100%{ stroke-dashoffset: 0;}}@keyframes eKxJIelc_draw_8{14.973262032085561%{stroke-dashoffset: 61}34.58110516934046%{ stroke-dashoffset: 0;}100%{ stroke-dashoffset: 0;}}@keyframes eKxJIelc_draw_9{15.86452762923351%{stroke-dashoffset: 135}35.47237076648842%{ stroke-dashoffset: 0;}100%{ stroke-dashoffset: 0;}}@keyframes eKxJIelc_draw_10{16.75579322638146%{stroke-dashoffset: 320}36.36363636363637%{ stroke-dashoffset: 0;}100%{ stroke-dashoffset: 0;}}@keyframes eKxJIelc_draw_11{17.647058823529413%{stroke-dashoffset: 320}37.254901960784316%{ stroke-dashoffset: 0;}100%{ stroke-dashoffset: 0;}}</style></svg>